<svg width="276" height="112" viewBox="0 0 276 112" fill="none" xmlns="http://www.w3.org/2000/svg">
<g filter="url(#filter0_d_2_5068)">
<path d="M242.337 30.9052L247.631 28.3057L244.984 38.126L242.337 30.9052Z" fill="#0E2760"/>
<path d="M34.9362 44.3246L17.4283 50.9331L12.1155 37.9414L60.5316 18.1216L65.6014 30.888L48.6977 38.9494L67.2924 86.4279L48.0219 91.4854L34.9362 44.3246Z" fill="#3464AF"/>
<path d="M16.5344 39.7579L57.6322 23.4966L60.0613 29.0422L45.1412 36.6559L62.4623 82.8462L50.3886 86.4277L37.1067 40.2923L19.7389 46.4011L16.5344 39.7579Z" fill="#FFCC00"/>
<path d="M17.2881 41.3234L56.427 25.9603L58.3391 29.9202L60.0613 29.0422L57.6322 23.4966L16.5344 39.7579L17.2881 41.3234Z" fill="#CBA507"/>
<path d="M62.4621 82.8461L45.1411 36.6558L43.0234 37.0457L59.4507 83.7386L62.4621 82.8461Z" fill="#CBA507"/>
<path d="M43.0234 37.0462L59.4507 27.6533L60.0611 29.0426L45.1411 36.6563L43.0234 37.0462Z" fill="#CBA507"/>
<path d="M12.1154 37.9414L10.1628 41.3237L16.5344 55.9935L17.4282 50.9332L12.1154 37.9414Z" fill="#025D9F"/>
<path d="M16.5344 55.9936L32.8838 49.3649L45.2191 96.6845L48.4578 91.1331L34.9361 44.3247L17.4282 50.9332L16.5344 55.9936Z" fill="#1A275E"/>
<path d="M48.458 91.1328L67.2925 86.4277L65.15 90.3299L45.2192 96.6842L48.458 91.1328Z" fill="#1A275E"/>
<path d="M211.817 82.3179L215.866 39.5705L212.751 38.1264L217.734 35.5269L221.471 36.3934L216.644 80.0448L211.817 82.3179Z" fill="#19366E"/>
<path d="M212.752 38.1261V24.8831L217.423 22.2402L217.734 35.5266L212.752 38.1261Z" fill="#085798"/>
<path d="M216.644 80.0439L232.059 81.7394V88.0071L248.253 92.7151L243.27 95.3146L227.388 90.6932V84.6277L211.817 82.3171L216.644 80.0439Z" fill="#1E3371"/>
<path d="M217.423 22.2402L243.392 27.4392L245.513 36.1649L247.631 28.3057L270 33.2159L248.254 92.7157L232.06 88.0077V81.74L216.645 80.0445L221.472 36.3931L217.735 35.5266L217.423 22.2402Z" fill="#2476BA"/>
<path d="M222.095 27.439L239.223 30.905L244.984 55.7562L242.337 58.3124L236.607 33.2156L222.095 30.1829V27.439Z" fill="#CBA205"/>
<path d="M228.946 77.4073L233.539 55.9527L235.797 53.4341L231.094 77.4073H228.946Z" fill="#CBA205"/>
<path d="M221.472 76.1106L225.58 33.2159L222.095 32.2569V30.1831L236.607 33.2159L242.337 58.3126L244.984 55.7564L250.814 33.2159L263.825 36.1042L244.984 87.3202L236.42 84.6283L235.797 53.4342L233.539 55.9529L228.946 77.4074L221.472 76.1106Z" fill="#FFCC00"/>
<path d="M250.813 33.2158L263.824 36.1042L244.983 87.3202L243.775 86.9389L260.884 38.126L250.097 35.9771L250.813 33.2158Z" fill="#CBA205"/>
<path d="M146.108 70.7647L154.517 22.8183L159.811 20.2188L151.091 68.454L146.108 70.7647Z" fill="#10417F"/>
<path d="M172.267 21.3737L178.184 17.9077V23.0143L172.267 21.3737Z" fill="#18275F"/>
<path d="M151.091 68.4536L171.333 71.6308L166.973 73.9415L146.108 70.7643L151.091 68.4536Z" fill="#1F336E"/>
<path d="M173.513 76.5405L178.184 73.941L172.267 64.7041L171.333 71.6303L170.654 71.9914L173.513 76.5405Z" fill="#1D356C"/>
<path d="M181.479 68.4536L178.185 73.9415L177.285 74.444L177.767 80.0445L201.541 84.0506L206.212 81.74L182.856 77.9851L181.479 68.4536Z" fill="#19366E"/>
<path d="M159.811 20.2184H176.497L178.185 23.0143V17.9077H195.26L206.212 81.74L182.856 77.9851L181.479 68.4536L178.185 73.9415L172.268 64.7046L171.333 71.6308L151.091 68.4536L159.811 20.2184Z" fill="#2F6EAD"/>
<path d="M156.385 64.6988L163.859 24.8397H176.073L179.118 40.1479L182.538 22.2402H191.746L200.56 76.2522L187.203 73.9415L183.79 53.1454L179.118 64.41L171.333 49.8585L168.53 67.0095L156.385 64.6988Z" fill="#FFCC00"/>
<path d="M163.486 26.8381H173.952L177.285 42.877L179.119 40.1475L176.073 24.8394H163.859L163.486 26.8381Z" fill="#CBA205"/>
<path d="M171.334 49.8589L169.465 51.7016L166.824 66.6863L168.531 67.0098L171.334 49.8589Z" fill="#CBA205"/>
<path d="M183.79 53.145L181.922 54.3004L178.185 62.6621L179.119 64.4095L183.79 53.145Z" fill="#CBA205"/>
<path d="M182.149 24.2823H189.43L198 75.8102L200.56 76.2522L191.747 22.2402H182.538L182.149 24.2823Z" fill="#CBA205"/>
<path d="M118.704 23.1071L123.596 20.4614L127.735 25.3745L123.22 28.0289L118.704 23.1071Z" fill="#18275F"/>
<path d="M127.735 25.3741L153.583 15.0194L143.1 0L123.596 20.461L127.735 25.3741Z" fill="#3668AC"/>
<path d="M129.915 19.3525L142.06 6.35498L147.665 13.8647L131.472 21.3743L129.915 19.3525Z" fill="#FECC00"/>
<path d="M118.704 23.1067L137.701 2.59951L143.101 0L123.596 20.461L118.704 23.1067Z" fill="#06427D"/>
<path d="M139.703 8.87939L144.692 15.2453L147.666 13.8647L142.061 6.35498L139.703 8.87939Z" fill="#CBA205"/>
<path d="M65.4512 25.995L66.074 39.2814L71.0567 36.6819L70.1224 23.3955L65.4512 25.995Z" fill="#025D9F"/>
<path d="M74.9341 84.0499L71.0569 38.5499L66.0742 39.2807L71.0569 36.6812L74.9341 35.7974L80.0226 81.7393L98.1502 79.1398L94.2295 81.7393L74.9341 84.0499Z" fill="#1A275E"/>
<path d="M70.1233 23.3959L70.5468 23.2746L96.2824 15.8862V25.9636L102.075 15.8862L121.264 31.3388L106.871 46.5026L136.767 57.331V81.1627L98.1509 63.5265V79.1408L80.0233 81.7403L74.9347 35.7984L71.0575 36.6823L70.1233 23.3959Z" fill="#3464AF"/>
<path d="M75.105 26.8616V31.3385L79.7762 30.0387L83.9461 76.541L93.79 75.0968V56.6432L132.094 74.5192V61.1664L99.3955 47.9464L114.966 32.3494L103.6 22.2402L91.9215 37.8373L91.2613 22.2402L75.105 26.8616Z" fill="#FFCC00"/>
<path d="M98.1509 63.5259V68.1645L132.095 83.4843L136.767 81.1621L98.1509 63.5259Z" fill="#1A275E"/>
<path d="M93.79 56.6434C93.79 56.6116 91.364 58.7779 91.364 58.7779V75.4523L93.79 75.097V56.6434Z" fill="#CBA507"/>
<path d="M75.105 26.8616V28.0285L88.717 24.8397L89.7416 40.7256L91.9215 37.8373L91.2613 22.2402L75.105 26.8616Z" fill="#CBA507"/>
<path d="M101.654 24.8397L112.691 34.6312L114.967 32.3494L103.6 22.2402L101.654 24.8397Z" fill="#CBA507"/>
<path d="M53.0353 50.023C53.0353 50.023 62.5367 44.4456 70.4311 41.4128C71.8543 40.8669 96.7521 32.4532 74.7785 55.2971C43.3129 88.0104 10.1625 84.8159 10.1625 84.8159C-7.24266 79.9577 35.5648 59.7134 35.5648 59.7134L36.499 63.1794C36.499 63.1794 13.1801 76.2433 13.7967 79.432C14.4102 82.6208 43.1385 71.1223 51.8395 66.2728C60.1543 61.637 77.8055 48.0676 79.4871 42.6462C81.1688 37.2248 53.9104 52.2557 53.9104 52.2557L53.0353 50.023Z" fill="#FFCC00"/>
<path d="M10.1628 84.8156C10.1628 84.8156 24.1361 85.1074 38.4364 78.4757C57.271 69.7414 81.4183 54.2888 83.7134 41.3433C83.7134 41.3433 89.5089 51.3716 62.1011 71.3098C34.142 91.6466 10.1628 84.8156 10.1628 84.8156Z" fill="#3464AF"/>
<path d="M35.8759 60.8688C35.8759 60.8688 2.9404 78.7014 12.8404 80.4951C18.7043 81.5551 33.3659 78.5628 57.753 64.5948C82.1401 50.6268 95.3753 26.6102 53.4056 50.7105L53.907 52.2558C53.907 52.2558 76.1764 40.8295 77.5529 42.6463C78.9294 44.4631 69.7768 55.7276 50.7835 66.1516C31.7901 76.5756 14.9985 81.7255 14.167 79.0394C13.3355 76.3532 36.4147 63.0697 36.4987 63.1795C36.5828 63.2892 35.8759 60.8688 35.8759 60.8688Z" fill="#CBA507"/>
<path d="M99.3966 47.9463L96.8804 50.257L129.916 63.526L129.925 73.5052L132.095 74.519V61.1662L99.3966 47.9463Z" fill="#CBA507"/>
<path d="M97.3039 17.9081L102.075 15.8862L96.2825 25.9636V19.5746L97.3039 17.9081Z" fill="#1B2561"/>
<path d="M152.325 40.7259L159.811 33.8574C159.811 33.8574 141.749 11.0367 118.704 28.9126C95.6593 46.7885 127.296 84.0481 163.486 50.2545L152.325 40.7259Z" fill="#2A6AB8"/>
<path d="M147.666 44.0562L156.386 51.1384C156.386 51.1384 139.881 65.8545 122.441 56.0341C105.002 46.2138 125.244 14.4421 152.026 33.2163L136.767 48.6169C136.767 48.6169 143.306 50.2748 147.666 44.0562Z" fill="#FFCC00"/>
<path d="M122.618 32.0256C122.618 32.0256 138.728 24.5506 149.736 35.5263L152.025 33.2156C152.025 33.2156 136.809 21.0124 122.618 32.0256Z" fill="#CBA205"/>
<path d="M136.766 48.6168L133.982 51.1384C133.982 51.1384 142.994 52.2966 147.666 44.0562C147.666 44.0562 144.24 49.5758 136.766 48.6168Z" fill="#CBA205"/>
<path d="M153.981 52.9802L156.389 51.1403L147.669 44.0581C147.669 44.0581 146.735 45.8142 146.112 46.3023C145.489 46.7905 153.981 52.9802 153.981 52.9802Z" fill="#CBA205"/>
<path d="M129.321 49.2455L127.736 50.2564C127.736 50.2564 119.044 42.998 128.527 35.7974C128.53 35.7974 123.74 41.5914 129.321 49.2455Z" fill="#CBA205"/>
<path d="M141.438 36.682C141.438 36.682 135.549 31.1566 128.526 35.7982C121.507 40.4369 129.317 49.2463 129.317 49.2463L141.438 36.682Z" fill="#3563B9"/>
<path d="M129.32 44.9419L135.832 38.1254C135.832 38.1254 131.472 37.8366 130.226 38.4143C128.98 38.9919 127.788 42.5128 129.32 44.9419Z" fill="#000300"/>
<path d="M137.177 37.1241C137.177 37.1241 132.721 36.6822 130.229 38.4152C130.229 38.4152 134.91 38.2304 135.371 38.6116L137.177 37.1241Z" fill="#CBA205"/>
<path d="M83.7723 65.6665C83.7723 76.1945 74.3612 84.7295 62.7516 84.7295C51.142 84.7295 42.8396 73.7192 44.8451 63.3558C47.025 52.0913 58.1488 43.4263 69.7585 43.4263C81.3681 43.4263 83.7723 55.1385 83.7723 65.6665Z" fill="#1B275B"/>
<path d="M86.4278 67.8218C90.0561 57.054 84.6292 45.8993 74.3065 42.9072C63.9837 39.9151 52.6742 46.2186 49.0459 56.9865C45.4176 67.7543 50.8445 78.909 61.1673 81.9011C71.49 84.8932 82.7995 78.5897 86.4278 67.8218Z" fill="#3969AE"/>
<path d="M82.1552 66.4168C84.9498 58.1232 80.77 49.5317 72.8195 47.2272C64.869 44.9227 56.1583 49.7778 53.3637 58.0714C50.5692 66.3651 54.7489 74.9566 62.6994 77.2611C70.65 79.5656 79.3606 74.7104 82.1552 66.4168Z" fill="#C59F00"/>
<path d="M66.9558 77.7977C75.2114 77.7977 81.9039 71.2673 81.9039 63.2116C81.9039 55.1559 75.2114 48.6255 66.9558 48.6255C58.7003 48.6255 52.0078 55.1559 52.0078 63.2116C52.0078 71.2673 58.7003 77.7977 66.9558 77.7977Z" fill="#FFCC00"/>
<path d="M71.0042 49.7798C71.0042 49.7798 57.6132 51.2239 59.7932 61.0443C61.9731 70.8646 82.5796 65.6339 77.572 52.9425L75.0526 54.69C75.0526 54.69 74.7412 59.0225 73.807 59.889C73.807 59.889 63.5302 61.622 65.7101 52.6681C65.7101 52.6681 67.89 51.224 69.4471 51.8016L71.0042 49.7798Z" fill="#C69F03"/>
<path d="M71.0042 49.7798C71.0042 49.7798 64.7758 50.0686 62.2845 53.8235C59.7931 57.5783 63.8416 65.3768 71.9384 63.9326C80.0353 62.4885 77.572 52.9425 77.572 52.9425C77.572 52.9425 77.027 57.1999 73.8599 57.9682C73.8599 57.9682 67.89 59.4066 66.9557 54.3058C66.9557 54.3029 66.3329 51.224 71.0042 49.7798Z" fill="#2D6CB1"/>
<path d="M225.364 59.8007C225.364 70.3287 215.953 78.8638 204.343 78.8638C192.734 78.8638 184.431 67.8534 186.437 57.4901C188.617 46.2256 199.741 37.5605 211.35 37.5605C222.96 37.5605 225.364 49.2728 225.364 59.8007Z" fill="#1B275B"/>
<path d="M228.019 61.9527C231.647 51.1848 226.22 40.0302 215.898 37.0381C205.575 34.046 194.266 40.3495 190.637 51.1173C187.009 61.8852 192.436 73.0398 202.759 76.0319C213.081 79.024 224.391 72.7205 228.019 61.9527Z" fill="#3969AE"/>
<path d="M223.746 60.5486C226.541 52.255 222.361 43.6635 214.41 41.359C206.46 39.0545 197.749 43.9096 194.955 52.2033C192.16 60.4969 196.34 69.0884 204.29 71.3929C212.241 73.6974 220.951 68.8423 223.746 60.5486Z" fill="#C59F00"/>
<path d="M208.547 71.931C216.803 71.931 223.495 65.4006 223.495 57.3449C223.495 49.2892 216.803 42.7588 208.547 42.7588C200.292 42.7588 193.599 49.2892 193.599 57.3449C193.599 65.4006 200.292 71.931 208.547 71.931Z" fill="#FFCC00"/>
<path d="M212.596 43.9146C212.596 43.9146 199.206 45.3587 201.385 55.1791C203.565 64.9994 224.172 59.7686 219.164 47.0773L216.645 48.8247C216.645 48.8247 216.333 53.1572 215.399 54.0237C215.399 54.0237 205.122 55.7567 207.302 46.8029C207.302 46.8029 209.482 45.3587 211.039 45.9364L212.596 43.9146Z" fill="#C69F03"/>
<path d="M212.596 43.9146C212.596 43.9146 206.368 44.2034 203.877 47.9582C201.385 51.7131 205.434 59.5116 213.53 58.0674C221.627 56.6232 219.164 47.0773 219.164 47.0773C219.164 47.0773 218.619 51.3347 215.452 52.103C215.452 52.103 209.482 53.5414 208.548 48.4406C208.548 48.4377 207.925 45.3587 212.596 43.9146Z" fill="#2D6CB1"/>
<path d="M65.6013 30.8877L48.6975 38.949L49.9463 42.132L62.4622 35.4079L65.6013 30.8877Z" fill="#1A275E"/>
</g>
<defs>
<filter id="filter0_d_2_5068" x="0" y="0" width="276" height="111.685" filterUnits="userSpaceOnUse" color-interpolation-filters="sRGB">
<feFlood flood-opacity="0" result="BackgroundImageFix"/>
<feColorMatrix in="SourceAlpha" type="matrix" values="0 0 0 0 0 0 0 0 0 0 0 0 0 0 0 0 0 0 127 0" result="hardAlpha"/>
<feOffset dy="9"/>
<feGaussianBlur stdDeviation="3"/>
<feComposite in2="hardAlpha" operator="out"/>
<feColorMatrix type="matrix" values="0 0 0 0 0 0 0 0 0 0 0 0 0 0 0 0 0 0 0.5 0"/>
<feBlend mode="normal" in2="BackgroundImageFix" result="effect1_dropShadow_2_5068"/>
<feBlend mode="normal" in="SourceGraphic" in2="effect1_dropShadow_2_5068" result="shape"/>
</filter>
</defs>
</svg>
