<svg xmlns="http://www.w3.org/2000/svg" viewBox="0 0 1000 1000" xml:space="preserve"><switch><g><path fill="#FF0202" d="M830.5 368c-2.1-14.4-33.4-202.8-205-281-147.4-67.2-322.9-18.7-418 94-60.1 71.2-74 151.2-78 190 0 0 115.5-63.5 375.5-52.5S830.5 368 830.5 368z"/><path fill="#F2F2F2" d="M808 726.5c16.9-.2-94.5 184.4-283 210-142.3 19.4-301.2-48.8-368-187-60-124-17.9-246.3-8-273 0 0 127 109 301 170s266 81 358 80z"/><ellipse stroke="#000" stroke-miterlimit="10" cx="477.5" cy="410.5" rx="352.5" ry="66"/><ellipse fill="#828282" cx="477.5" cy="411" rx="311.5" ry="53.5"/><path fill="#4A4B4B" d="M830 410.5s4-29 .5-42.5-4.7-23.5-4.7-23.5-374.8-122-696.3 13c0 0-9.5 41-4.5 53 0 0 35.4-64.8 370.7-65.9 0 0 294.3 6.9 334.3 65.9z"/><circle stroke="#000" stroke-miterlimit="10" cx="638.5" cy="321" r="97.5"/><circle fill="#F2F2F2" cx="639" cy="320.5" r="69"/><circle fill="#FFF" stroke="#000" stroke-miterlimit="10" cx="640.5" cy="320" r="44.5"/><path opacity=".62" fill="#BDBDBD" d="M734 732.5c-7.9 58.3-64 95.6-115 84-52.2-11.9-86.8-72.4-66-129l181 45z"/><ellipse transform="rotate(-69.61 481.04 598.712)" fill="#919191" cx="481" cy="598.7" rx="69.8" ry="354.9"/><ellipse transform="rotate(-69.61 479.577 594.11)" fill="#BDBDBD" cx="479.6" cy="594.1" rx="53.1" ry="316.6"/><ellipse transform="rotate(-45.001 366.511 159.512)" opacity=".42" fill="#FFF" cx="366.5" cy="159.5" rx="83.1" ry="68.9"/></g></switch></svg>