<svg version="1.1" id="Слой_1" fill='None' xmlns="http://www.w3.org/2000/svg" x="0" y="0" viewBox="0 0 200 200" style="enable-background:new 0 0 200 200" xml:space="preserve">
    <style>.st0{fill:#010066}.st1{fill:none}</style>
    <path class="st0" d="m22 31 51 32V1.5L39 9zM126.6 1.5v68.93l62.29-38.18L166 6zM195 61l-18 11 20.01 1.15V61zM197.01 126.26 165 126l26 17zM126.6 197v-61.21l50.4 30.6L160 188zM17 163l56-34.02V197s-45-11-45-12-11-22-11-22zM2.54 126h21.25L5 139zM9 57l25.68 16.15H4.38S1 60 9 57z" />
    <path class="st1" d="M73 1.5V63L22 31l-7 9 69 42V1.5zM126.6 1.5v68.93l62.29-38.18L192 38l-73.57 44V1.5zM197.01 61 177 72l20.01 1.15L198.5 82h-58.63L195 50zM197.01 126.26 165 126l26 17-2.11 5.04-49.02-30.88h58.63zM177 166.39l-50.4-30.6V197l-10.22 1.5v-81.34l67.41 40.67zM73 197v-68.02L17 163l-2-3.72 69-43.06v82.28zM5 139l18.79-13H2.54l-1.04-9.78h59.73L9 148zM9 57l25.68 16.15L4 73l-2.5 9h59.73L10.85 50z" />
    <path d="M84 1.5V82L15 40l-4.15 10 50.38 32H1.5s-1.5 28.44 0 34.22h59.73L9 148l6 11.28 69-43.06v82.28s20.77 1.5 32.38 0v-81.34l67.4 40.67 5.11-9.79-49.02-30.88h58.63S201 94 198.5 82h-58.63L195 50l-3-12-73.57 44V1.5S93-1 84 1.5z" style="fill:#cd0001" />
    <path class="st1" d="M197.17 116.22c-.01.06-.02.13-.04.19-.02.18-.05.37-.09.55l-.03.2H200v-.92c-.94-.01-1.88-.02-2.83-.02zm-194.66-2.1H0v.22h2.54a.59.59 0 0 1-.02-.14c-.01-.02-.01-.05-.01-.08zM0 0v200h200V0H0zm194.51 72.21c.05.1.07.2.09.3.03.07.05.14.07.21.02.06.04.12.05.19.04.11.07.22.1.34.03.08.05.16.06.24.84 2.98 1.54 6.02 2.09 9.1.01.06.02.11.02.16.01.02.01.04.01.05.01.05.02.1.02.14.01.03.02.06.02.08.01.02.01.04.01.06.01.03.01.05.01.07.01.04.02.09.02.13.94 5.43 1.42 11.02 1.42 16.72 0 5.3-.42 10.49-1.22 15.56l-.03.18c-.01.04-.01.08-.02.12-.01.06-.02.13-.04.19v.01c0 .05-.01.1-.02.15v.01c-.01.06-.02.13-.04.19-.02.18-.05.37-.09.55l-.03.2c0 .02-.01.05-.02.08 0 .02 0 .05-.01.08 0 .01 0 .03-.01.05 0 .04-.01.09-.02.14-.01.02-.01.05-.02.08-.01.06-.02.13-.04.2-.46 2.56-1.03 5.1-1.7 7.59 0 .03 0 .05-.02.08 0 .02 0 .03-.01.05 0 .03-.01.05-.02.07-.04.17-.08.33-.14.49-.01.07-.02.14-.05.2 0 .03-.01.06-.02.08 0 .03-.01.05-.02.07 0 .03-.01.05-.02.07-.01.05-.02.09-.04.13 0 .03 0 .06-.02.08-.01.07-.03.14-.05.2a97.17 97.17 0 0 1-5.02 13.72c-.02.05-.04.09-.06.13 0 .02-.01.03-.03.04v.01c-.04.1-.08.21-.14.31a76.63 76.63 0 0 1-1.65 3.42c-.02.06-.05.11-.08.16v.02c-.03.05-.06.1-.08.15a96.926 96.926 0 0 1-5.74 9.75c-.02.05-.06.1-.09.14a.21.21 0 0 1-.04.06l-.12.18a96.83 96.83 0 0 1-5.85 7.81c-.03.05-.07.09-.1.13l-.18.21c-.04.05-.08.11-.14.16-.01.03-.04.06-.08.09-.02.04-.05.08-.1.12-11.9 14.11-27.7 24.82-45.74 30.48-.05.02-.09.03-.14.04-.02.01-.04.02-.06.02-.03.02-.05.02-.08.03-.27.09-.55.17-.83.24a.09.09 0 0 1-.07.03c-.02.01-.04.02-.06.01-.02.02-.04.03-.06.02-.12.05-.24.08-.36.11-.05.02-.09.04-.14.04-.02.02-.03.02-.05.01-.03.02-.06.03-.09.03-.03.02-.05.03-.08.02-.06.03-.13.05-.19.06-2.36.69-4.75 1.28-7.18 1.78-.07.02-.15.04-.23.05-.11.03-.21.05-.32.07-.07.01-.13.03-.2.04-.03.01-.05.01-.08.01-.06.02-.13.03-.19.04-.03.01-.05.01-.08.01-.07.02-.13.04-.2.04-.03.01-.05.02-.08.02-.03.01-.05.01-.08.01-.02.01-.04.02-.06.01-.02.01-.04.02-.06.01-.03.02-.05.02-.08.02-.1.03-.21.05-.31.06-.08.02-.16.04-.24.04-2.59.49-5.21.86-7.87 1.13-3.31.34-6.67.51-10.07.51a98.54 98.54 0 0 1-12.98-.85c-.06-.01-.13-.01-.19-.03-.06 0-.11-.01-.17-.02-.06 0-.13-.01-.19-.03-.37-.04-.75-.1-1.12-.15-.02 0-.04-.01-.05-.01-.03 0-.05-.01-.08-.01-.02 0-.04-.01-.06-.01-3.21-.49-6.38-1.13-9.48-1.92-.05-.01-.11-.02-.17-.04-.02 0-.05-.01-.08-.02-.05-.01-.1-.02-.15-.04-.01 0-.03 0-.05-.01-.02-.01-.05-.01-.08-.02-.09-.02-.19-.05-.28-.08-.03 0-.05-.01-.08-.02-.02 0-.03 0-.05-.02-.05 0-.09-.01-.14-.03-21.09-5.61-39.4-18.04-52.41-34.8-.05-.05-.1-.11-.14-.17a.508.508 0 0 1-.09-.13c-.05-.05-.09-.09-.11-.14-.11-.13-.22-.27-.3-.4-.07-.07-.13-.15-.18-.23-.47-.6-.92-1.22-1.36-1.84a.642.642 0 0 1-.1-.13c-.21-.28-.41-.57-.6-.86a.45.45 0 0 1-.1-.14c-.08-.09-.14-.19-.2-.29-.04-.04-.07-.09-.1-.14a.36.36 0 0 1-.07-.1c-.05-.06-.09-.12-.13-.19a93.745 93.745 0 0 1-5.36-8.74v-.01c-.02-.04-.05-.09-.07-.13 0-.01-.01-.01-.01-.02-.02-.03-.03-.06-.04-.09-.04-.06-.07-.12-.1-.18a.539.539 0 0 1-.07-.13 97.467 97.467 0 0 1-4.19-8.89c-.04-.09-.08-.17-.11-.26-.06-.14-.12-.29-.17-.43v-.01c-.03-.06-.06-.11-.07-.17h-.01l-.06-.15c-1.23-3.1-2.31-6.27-3.23-9.52-.02-.06-.04-.12-.05-.19a.292.292 0 0 1-.02-.09.326.326 0 0 1-.04-.14c-.01-.01-.02-.03-.01-.05a.114.114 0 0 1-.03-.08.188.188 0 0 1-.02-.08c-.03-.06-.04-.13-.05-.2-.06-.16-.1-.32-.14-.49a.145.145 0 0 1-.02-.07c-.01-.02-.02-.04-.01-.06-.02-.02-.02-.05-.02-.07-.86-3.2-1.55-6.46-2.08-9.78l-.03-.21c-.01-.03-.01-.05-.02-.08 0-.04-.01-.09-.02-.13 0-.02 0-.05-.01-.07 0-.03-.01-.05-.01-.08-.03-.18-.06-.36-.08-.55-.01-.02-.01-.05-.01-.08-.01-.02-.01-.04-.01-.06a.59.59 0 0 1-.02-.14c-.01-.02-.01-.05-.01-.08-.01-.06-.02-.12-.03-.19-.01-.03-.01-.07-.01-.11-.02-.05-.02-.11-.03-.16-.62-4.46-.94-9.02-.94-13.66 0-5.99.53-11.85 1.56-17.54 0-.02 0-.04.01-.07 0-.01 0-.03.01-.05 0-.02.01-.05.02-.08 0-.02 0-.04.01-.06 0-.05.01-.1.03-.16 0-.02 0-.03.01-.05 0-.03 0-.07.02-.1-.01-.02 0-.04.01-.06 0-.07.02-.13.04-.2.05-.31.11-.62.17-.93 0-.02.01-.05.02-.07.46-2.33 1-4.63 1.64-6.89a.83.83 0 0 1 .06-.21c.04-.21.1-.41.17-.61.01-.07.03-.13.05-.2s.04-.14.07-.21c.02-.11.05-.21.09-.32.01-.08.03-.15.07-.23 1.57-5.35 3.6-10.51 6.03-15.43v-.01c.03-.06.05-.11.08-.16.05-.09.09-.18.14-.27.03-.07.06-.13.09-.19.52-1.05 1.06-2.08 1.63-3.1.03-.07.07-.13.11-.2.01-.02.02-.05.04-.07.02-.05.04-.09.08-.14.06-.13.13-.25.21-.37.01-.04.03-.08.06-.12 1.78-3.2 3.75-6.28 5.88-9.24.02-.04.05-.08.08-.12.27-.38.55-.77.84-1.14.04-.07.09-.13.14-.19 1.84-2.48 3.81-4.88 5.88-7.17.03-.04.07-.08.1-.12.01-.01.02-.01.02-.02.04-.04.07-.08.11-.12C39.62 19.98 56.03 9.75 74.6 4.81c.05-.02.09-.03.14-.03.02-.02.03-.02.05-.02.03-.01.05-.02.08-.02.09-.03.19-.06.28-.08.05-.01.09-.02.13-.03.01 0 .01-.01.01-.01.05-.01.1-.02.14-.03a.31.31 0 0 1 .08-.02c.06-.02.12-.03.17-.04.15-.04.29-.08.44-.11.02-.01.04-.02.06-.01l.01-.01c.02-.01.04-.01.06-.01.03-.02.06-.02.09-.02.06-.03.12-.04.19-.05a92.87 92.87 0 0 1 7.87-1.59c.05-.01.09-.02.14-.02.02-.01.03-.01.05-.01h.02c.02-.01.04-.01.06-.01l.55-.09c.03 0 .05-.01.08-.01.01 0 .03-.01.05-.01.02 0 .04 0 .07-.01h.03c.06-.01.12-.02.19-.03.27-.04.55-.08.83-.11.08-.02.15-.03.23-.03.03-.01.06-.02.09-.02l.23-.03c4.25-.56 8.58-.85 12.98-.85 6.13 0 12.12.56 17.94 1.64.08 0 .15.02.23.04.15.02.3.05.45.09.03-.01.06 0 .09.01.02 0 .04 0 .06.01.02 0 .04 0 .06.02.16.02.33.05.49.09.05 0 .1.01.15.03.02 0 .03 0 .05.01.03 0 .05 0 .08.01.11.02.21.04.32.07.08.01.16.03.23.05 2.43.5 4.82 1.09 7.18 1.78.06.01.13.03.19.06.03-.01.05 0 .08.02.05 0 .1.02.15.04.02 0 .03 0 .05.02.03-.01.05 0 .08.02.1.02.19.05.28.09.03-.01.05 0 .07.02h.01c.02-.01.04 0 .05.01.01 0 .01.01.01.01.05 0 .09.01.13.04.28.07.56.15.83.24.03.01.05.01.08.03.02 0 .03 0 .05.01.05.01.1.03.15.05 19.73 6.19 36.79 18.43 48.99 34.54.05.05.08.09.11.14.85 1.11 1.67 2.25 2.46 3.41.04.04.08.09.1.14.03.03.05.06.07.09.02.03.05.07.07.11.01 0 .01 0 .01.01.04.05.07.1.11.16 2.05 3 3.93 6.12 5.64 9.35v.01c.04.06.07.12.1.18v.01c.03.05.06.1.09.16.04.07.07.14.11.21.03.05.05.1.08.15.04.07.07.14.11.22.03.06.06.11.09.17 1.47 2.87 2.81 5.83 4.01 8.85l.03.09c.01.02.02.04.02.06.02.04.03.08.04.11 1 2.55 1.89 5.14 2.66 7.78.04.08.06.17.07.25zM2.52 114.2c-.01-.02-.01-.05-.01-.08H0v.22h2.54a.59.59 0 0 1-.02-.14zm194.65 2.02c-.01.06-.02.13-.04.19-.02.18-.05.37-.09.55l-.03.2H200v-.92c-.94-.01-1.88-.02-2.83-.02z" />
</svg>