<?xml version="1.0" encoding="utf-8"?>
<!-- Generator: Adobe Illustrator 26.0.3, SVG Export Plug-In . SVG Version: 6.00 Build 0)  -->
<svg version="1.1" id="Слой_1" xmlns="http://www.w3.org/2000/svg" xmlns:xlink="http://www.w3.org/1999/xlink" x="0px" y="0px"
	 viewBox="0 0 1000 1000" style="enable-background:new 0 0 1000 1000;" xml:space="preserve">
<style type="text/css">
	.st0{fill:#CCFF34;}
</style>
<path class="st0" d="M537.79,64c13.34,1.91,26.73,3.48,40,5.8c46.12,8.05,89.41,23.36,127.34,51.55
	c49.27,36.62,77.37,85.62,84.23,146.62c2.99,26.58,2.85,53.2-2.33,79.53c-7.16,36.42-26.79,65.95-51.98,92.34
	c-27.6,28.92-59.84,52-92.54,74.65c-14.88,10.31-28.95,21.9-42.71,33.7c-27.24,23.34-39.91,54.05-43.16,89.13
	c-1.51,16.36-2.82,32.73-4.26,49.6c-49.89,0-99.63,0-149.83,0c0-5.62-0.5-11.37,0.08-17c2.96-28.36,4.77-56.94,9.67-84.97
	c7.64-43.78,30.84-78.88,65.71-106.27c23.42-18.39,47.31-36.21,70.3-55.12c24.72-20.34,45.48-44.38,59.41-73.41
	c5.26-10.96,9.45-23.06,10.99-35.04c3.75-29.12-8.98-51.77-34.35-64.94c-46.59-24.18-95.68-25.71-143.92-6.22
	c-35.97,14.54-52.31,45.71-58.27,82.78c-0.91,5.68-1.35,11.44-2.05,17.53c-56.85,0-113.38,0-171.22,0
	c1.11-12.64,1.86-24.87,3.31-37.02c4.74-39.7,14.53-77.96,33.37-113.53c32.58-61.5,84.21-98.86,150.53-116.23
	c23.05-6.03,47.1-8.23,70.68-12.2c1.88-0.32,3.72-0.85,5.58-1.28C494.18,64,515.99,64,537.79,64z"/>
<path class="st0" d="M465.11,936c-4.89-1.29-9.82-2.44-14.66-3.9c-43.43-13.13-70.45-53.55-66.59-99.52
	c3.5-41.78,38.08-76.83,81.73-82.85c49.97-6.89,95.93,25.05,106.55,74.06c10.14,46.77-18.72,94.38-65.74,108.48
	c-4.08,1.22-8.15,2.49-12.22,3.74C484.49,936,474.8,936,465.11,936z"/>
</svg>
