<?xml version="1.0" encoding="utf-8"?>
<!-- Generator: Adobe Illustrator 26.0.3, SVG Export Plug-In . SVG Version: 6.00 Build 0)  -->
<svg version="1.1" xmlns="http://www.w3.org/2000/svg" xmlns:xlink="http://www.w3.org/1999/xlink" x="0px" y="0px"
	 viewBox="0 0 1000 500" style="enable-background:new 0 0 1000 500;" xml:space="preserve">
<style type="text/css">
	.st0{fill:#0E2760;}
	.st1{fill:#3464AF;}
	.st2{fill:#FFCC00;}
	.st3{fill:#CBA507;}
	.st4{fill:#025D9F;}
	.st5{fill:#1A275E;}
	.st6{fill:#19366E;}
	.st7{fill:#085798;}
	.st8{fill:#1E3371;}
	.st9{fill:#2476BA;}
	.st10{fill:#CBA205;}
	.st11{fill:#10417F;}
	.st12{fill:#18275F;}
	.st13{fill:#1F336E;}
	.st14{fill:#1D356C;}
	.st15{fill:#2F6EAD;}
	.st16{fill:#3668AC;}
	.st17{fill:#FECC00;}
	.st18{fill:#06427D;}
	.st19{fill:#1B2561;}
	.st20{fill:#2A6AB8;}
	.st21{fill:#3563B9;}
	.st22{fill:#000300;}
	.st23{fill:#1B275B;}
	.st24{fill:#3969AE;}
	.st25{fill:#C59F00;}
	.st26{fill:#C69F03;}
	.st27{fill:#2D6CB1;}
</style>
<g id="Слой_1">
	<polygon class="st0" points="819.97,166.26 836.97,157.26 828.47,191.26 	"/>
	<polygon class="st1" points="153.98,212.72 97.76,235.6 80.7,190.62 236.17,122 252.45,166.2 198.17,194.11 257.88,358.49 196,376 
			"/>
	<polygon class="st2" points="94.89,196.91 226.86,140.61 234.66,159.81 186.75,186.17 242.37,346.09 203.6,358.49 160.95,198.76 
		105.18,219.91 	"/>
	<polygon class="st3" points="97.31,202.33 222.99,149.14 229.13,162.85 234.66,159.81 226.86,140.61 94.89,196.91 	"/>
	<polygon class="st3" points="242.37,346.09 186.75,186.17 179.95,187.52 232.7,349.18 	"/>
	<polygon class="st3" points="179.95,187.52 232.7,155 234.66,159.81 186.75,186.17 	"/>
	<polygon class="st4" points="80.7,190.62 74.43,202.33 94.89,253.12 97.76,235.6 	"/>
	<polygon class="st5" points="94.89,253.12 147.39,230.17 187,394 197.4,374.78 153.98,212.72 97.76,235.6 	"/>
	<polygon class="st5" points="197.4,374.78 257.88,358.49 251,372 187,394 	"/>
	<polygon class="st6" points="721.97,344.26 734.97,196.26 724.97,191.26 740.97,182.26 752.97,185.26 737.47,336.39 	"/>
	<polygon class="st7" points="724.97,191.26 724.97,145.41 739.97,136.26 740.97,182.26 	"/>
	<polygon class="st8" points="737.47,336.39 786.97,342.26 786.97,363.96 838.97,380.26 822.97,389.26 771.97,373.26 771.97,352.26 
		721.97,344.26 	"/>
	<polygon class="st9" points="739.97,136.26 823.36,154.26 830.17,184.47 836.97,157.26 908.8,174.26 838.97,380.26 786.97,363.96 
		786.97,342.26 737.47,336.39 752.97,185.26 740.97,182.26 	"/>
	<polygon class="st10" points="754.97,154.26 809.97,166.26 828.47,252.3 819.97,261.15 801.57,174.26 754.97,163.76 	"/>
	<polygon class="st10" points="776.97,327.26 791.72,252.98 798.97,244.26 783.87,327.26 	"/>
	<polygon class="st2" points="752.97,322.77 766.16,174.26 754.97,170.94 754.97,163.76 801.57,174.26 819.97,261.15 828.47,252.3 
		847.19,174.26 888.97,184.26 828.47,361.58 800.97,352.26 798.97,244.26 791.72,252.98 776.97,327.26 	"/>
	<polygon class="st10" points="847.19,174.26 888.97,184.26 828.47,361.58 824.59,360.26 879.53,191.26 844.89,183.82 	"/>
	<polygon class="st11" points="510.97,304.26 537.97,138.26 554.97,129.26 526.97,296.26 	"/>
	<polygon class="st12" points="594.97,133.26 613.97,121.26 613.97,138.94 	"/>
	<polygon class="st13" points="526.97,296.26 591.97,307.26 577.97,315.26 510.97,304.26 	"/>
	<polygon class="st14" points="598.97,324.26 613.97,315.26 594.97,283.28 591.97,307.26 589.79,308.51 	"/>
	<polygon class="st6" points="624.55,296.26 613.97,315.26 611.08,317 612.63,336.39 688.97,350.26 703.97,342.26 628.97,329.26 	
		"/>
	<polygon class="st15" points="554.97,129.26 608.55,129.26 613.97,138.94 613.97,121.26 668.8,121.26 703.97,342.26 628.97,329.26 
		624.55,296.26 613.97,315.26 594.97,283.28 591.97,307.26 526.97,296.26 	"/>
	<polygon class="st2" points="543.97,283.26 567.97,145.26 607.19,145.26 616.97,198.26 627.95,136.26 657.52,136.26 685.82,323.26 
		642.93,315.26 631.97,243.26 616.97,282.26 591.97,231.88 582.97,291.26 	"/>
	<polygon class="st10" points="566.77,152.18 600.38,152.18 611.08,207.71 616.97,198.26 607.19,145.26 567.97,145.26 	"/>
	<polygon class="st10" points="591.97,231.88 585.97,238.26 577.49,290.14 582.97,291.26 	"/>
	<polygon class="st10" points="631.97,243.26 625.97,247.26 613.97,276.21 616.97,282.26 	"/>
	<polygon class="st10" points="626.7,143.33 650.08,143.33 677.6,321.73 685.82,323.26 657.52,136.26 627.95,136.26 	"/>
	<polygon class="st12" points="422.97,139.26 438.68,130.1 451.97,147.11 437.47,156.3 	"/>
	<polygon class="st16" points="451.97,147.11 534.97,111.26 501.31,59.26 438.68,130.1 	"/>
	<polygon class="st17" points="458.97,126.26 497.97,81.26 515.97,107.26 463.97,133.26 	"/>
	<polygon class="st18" points="422.97,139.26 483.97,68.26 501.31,59.26 438.68,130.1 	"/>
	<polygon class="st10" points="490.4,90 506.42,112.04 515.97,107.26 497.97,81.26 	"/>
	<polygon class="st4" points="251.97,149.26 253.97,195.26 269.97,186.26 266.97,140.26 	"/>
	<polygon class="st5" points="282.42,350.26 269.97,192.73 253.97,195.26 269.97,186.26 282.42,183.2 298.76,342.26 356.97,333.26 
		344.38,342.26 	"/>
	<polygon class="st1" points="266.97,140.26 268.33,139.84 350.97,114.26 350.97,149.15 369.57,114.26 431.19,167.76 384.97,220.26 
		480.97,257.75 480.97,340.26 356.97,279.2 356.97,333.26 298.76,342.26 282.42,183.2 269.97,186.26 	"/>
	<polygon class="st2" points="282.97,152.26 282.97,167.76 297.97,163.26 311.36,324.26 342.97,319.26 342.97,255.37 465.97,317.26 
		465.97,271.03 360.97,225.26 410.97,171.26 374.47,136.26 336.97,190.26 334.85,136.26 	"/>
	<polygon class="st5" points="356.97,279.2 356.97,295.26 465.97,348.3 480.97,340.26 	"/>
	<path class="st3" d="M342.97,255.37c0-0.11-7.79,7.39-7.79,7.39v57.73l7.79-1.23V255.37z"/>
	<polygon class="st3" points="282.97,152.26 282.97,156.3 326.68,145.26 329.97,200.26 336.97,190.26 334.85,136.26 	"/>
	<polygon class="st3" points="368.22,145.26 403.66,179.16 410.97,171.26 374.47,136.26 	"/>
	<path class="st2" d="M212.1,232.45c0,0,30.51-19.31,55.86-29.81c4.57-1.89,84.52-31.02,13.96,48.07
		C180.88,363.97,74.43,352.91,74.43,352.91C18.54,336.09,156,266,156,266l3,12c0,0-74.88,45.23-72.9,56.27
		c1.97,11.04,94.22-28.77,122.16-45.56c26.7-16.05,83.38-63.03,88.78-81.8c5.4-18.77-82.13,33.27-82.13,33.27L212.1,232.45z"/>
	<path class="st1" d="M74.43,352.91c0,0,44.87,1.01,90.79-21.95c60.48-30.24,138.02-83.74,145.39-128.56
		c0,0,18.61,34.72-69.4,103.75C151.43,376.56,74.43,352.91,74.43,352.91z"/>
	<path class="st3" d="M157,270c0,0-105.76,61.74-73.97,67.95c18.83,3.67,65.91-6.69,144.22-55.05s120.81-131.51-13.96-48.07
		l1.61,5.35c0,0,71.51-39.56,75.93-33.27s-24.97,45.29-85.96,81.38S89.96,342.21,87.29,332.91c-2.67-9.3,71.44-55.29,71.71-54.91
		S157,270,157,270z"/>
	<polygon class="st3" points="360.97,225.26 352.89,233.26 458.97,279.2 459,313.75 465.97,317.26 465.97,271.03 	"/>
	<polygon class="st19" points="354.25,121.26 369.57,114.26 350.97,149.15 350.97,127.03 	"/>
	<path class="st20" d="M530.93,200.26l24.04-23.78c0,0-58-79.01-132-17.12s27.59,190.89,143.8,73.89L530.93,200.26z"/>
	<path class="st2" d="M515.97,211.79l28,24.52c0,0-53,50.95-109,16.95s9-144,95-79l-49,53.32
		C480.97,227.58,501.97,233.32,515.97,211.79z"/>
	<path class="st10" d="M435.54,170.14c0,0,51.73-25.88,87.08,12.12l7.35-8C529.97,174.26,481.11,132.01,435.54,170.14z"/>
	<path class="st10" d="M480.97,227.58l-8.94,8.73c0,0,28.94,4.01,43.94-24.52C515.97,211.79,504.97,230.9,480.97,227.58z"/>
	<path class="st10" d="M536.25,242.69l7.73-6.37l-28-24.52c0,0-3,6.08-5,7.77S536.25,242.69,536.25,242.69z"/>
	<path class="st10" d="M457.06,229.76l-5.09,3.5c0,0-27.91-25.13,2.54-50.06C454.52,183.2,439.14,203.26,457.06,229.76z"/>
	<path class="st21" d="M495.97,186.26c0,0-18.91-19.13-41.46-3.06c-22.54,16.06,2.54,46.56,2.54,46.56L495.97,186.26z"/>
	<path class="st22" d="M457.06,214.86l20.91-23.6c0,0-14-1-18,1S452.14,206.45,457.06,214.86z"/>
	<path class="st10" d="M482.29,187.79c0,0-14.31-1.53-22.31,4.47c0,0,15.03-0.64,16.51,0.68L482.29,187.79z"/>
	<path class="st10" d="M764.62,271.26"/>
	<path class="st23" d="M310.8,286.61c0,36.45-30.22,66-67.5,66s-63.94-38.12-57.5-74c7-39,42.72-69,80-69S310.8,250.16,310.8,286.61
		z"/>
	
		<ellipse transform="matrix(0.2983 -0.9545 0.9545 0.2983 -80.8337 440.688)" class="st24" cx="259.3" cy="275.32" rx="70.72" ry="62.88"/>
	
		<ellipse transform="matrix(0.2983 -0.9545 0.9545 0.2983 -80.2486 440.3701)" class="st25" cx="259.37" cy="274.76" rx="54.47" ry="48.43"/>
	<ellipse class="st2" cx="256.8" cy="278.11" rx="48" ry="50.5"/>
	<path class="st26" d="M269.8,231.61c0,0-43,5-36,39s73.17,15.89,57.09-28.05l-8.09,6.05c0,0-1,15-4,18c0,0-33,6-26-25c0,0,7-5,12-3
		L269.8,231.61z"/>
	<path class="st27" d="M269.8,231.61c0,0-20,1-28,14s5,40,31,35s18.09-38.05,18.09-38.05s-1.75,14.74-11.92,17.4
		c0,0-19.17,4.98-22.17-12.68C256.8,247.27,254.8,236.61,269.8,231.61z"/>
	<path class="st23" d="M765.47,266.3c0,36.45-30.22,66-67.5,66s-63.94-38.12-57.5-74c7-39,42.72-69,80-69
		S765.47,229.85,765.47,266.3z"/>
	
		<ellipse transform="matrix(0.2983 -0.9545 0.9545 0.2983 257.5938 860.4012)" class="st24" cx="713.96" cy="255.01" rx="70.72" ry="62.88"/>
	
		<ellipse transform="matrix(0.2983 -0.9545 0.9545 0.2983 258.1788 860.0833)" class="st25" cx="714.03" cy="254.45" rx="54.47" ry="48.43"/>
	<ellipse class="st2" cx="711.47" cy="257.8" rx="48" ry="50.5"/>
	<path class="st26" d="M724.47,211.3c0,0-43,5-36,39s73.17,15.89,57.09-28.05l-8.09,6.05c0,0-1,15-4,18c0,0-33,6-26-25c0,0,7-5,12-3
		L724.47,211.3z"/>
	<path class="st27" d="M724.47,211.3c0,0-20,1-28,14s5,40,31,35s18.09-38.05,18.09-38.05s-1.75,14.74-11.92,17.4
		c0,0-19.17,4.98-22.17-12.68C711.47,226.96,709.47,216.3,724.47,211.3z"/>
	<polygon class="st5" points="252.45,166.2 198.17,194.11 202.18,205.13 242.37,181.85 	"/>
</g>
<g id="Слой_2">
</g>
</svg>
