<?xml version="1.0" encoding="utf-8"?>
<!-- Generator: Adobe Illustrator 26.0.3, SVG Export Plug-In . SVG Version: 6.00 Build 0)  -->
<svg version="1.1" id="Слой_1" xmlns="http://www.w3.org/2000/svg" xmlns:xlink="http://www.w3.org/1999/xlink" x="0px" y="0px"
	 viewBox="0 0 1000 1000" style="enable-background:new 0 0 1000 1000;" xml:space="preserve">
<style type="text/css">
	.st0{fill:#FEFEFE;}
	.st1{fill:#A2A2A2;}
	.st2{fill:#FF1124;}
	.st3{fill:none;}
</style>
<path class="st0" d="M209.08,630.23c-0.17-0.08-0.35-0.16-0.52-0.24c0.15,0.1,0.31,0.2,0.46,0.3
	C209.02,630.29,209.08,630.23,209.08,630.23z"/>
<path class="st0" d="M-53.37,260.11c0.14-0.23,0.27-0.47,0.41-0.7c-0.01,0.11,0.01,0.25-0.05,0.32c-0.12,0.13-0.28,0.22-0.42,0.32
	C-53.43,260.06-53.37,260.11-53.37,260.11z"/>
<path class="st1" d="M-579.98,226.22c0.19,0.16,0.38,0.33,0.58,0.49c-0.12-0.02-0.3,0-0.35-0.08c-0.1-0.13-0.12-0.31-0.17-0.47
	C-579.93,226.17-579.98,226.22-579.98,226.22z"/>
<circle class="st2" cx="507.5" cy="502.5" r="371.5"/>
<path class="st0" d="M546.85,687.48c14.71-15.83,43.99-12.9,53.45,5.91c7.58,15.06,6.9,30.27-2.61,43.58
	c-8.65,12.11-23.54,15.15-37.21,11.3c-13.01-3.67-21.65-14.97-23.02-29.27C536.37,707.64,538.92,696.01,546.85,687.48z
	 M587.89,714.54c0.15-5.92-0.7-10.78-2.86-15.49c-2.84-6.21-8.33-8.81-14.3-8.92c-5.73-0.11-10.97,3.26-13.37,8.63
	c-4.47,10-4.61,20.41,0.59,30.24c2.93,5.55,8.12,7.86,14.57,7.51c5.63-0.3,9.84-2.98,12.04-7.76
	C586.71,724.12,588.59,719.13,587.89,714.54z"/>
<path class="st0" d="M615.39,719.11c-0.03-11.85-0.03-23.7-0.11-35.54c-0.02-2.57,0.32-4.7,3.49-4.91
	c10.63-0.71,21.25-2.08,31.84,0.66c8.41,2.18,13.51,7.34,14.73,15.89c1.12,7.85-2.11,13.91-8.67,18.27
	c-0.79,0.52-1.47,1.21-2.38,1.98c9.61,8.07,9.35,20.08,12.95,30.48c0.64,1.84-0.5,2.6-2.04,2.63c-3.69,0.07-7.38-0.05-11.06-0.07
	c-2.55-0.01-3.17-1.94-3.7-3.82c-1.43-5.04-2.76-10.11-4.15-15.16c-0.89-3.26-2.13-6.28-5.7-7.53c-8.61-3.15-9.88-2.32-9.89,6.4
	c0,3.3,0.02,6.59-0.01,9.89c-0.11,10.5-0.11,10.35-10.9,10.18c-3.34-0.05-4.3-1.1-4.25-4.35
	C615.67,735.77,615.47,727.44,615.39,719.11z M630.55,699.54c0.02,2.66,0.27,5.36,1,7.67c1.19,3.74,5.83,2.29,8.77,1.89
	c6.55-0.9,9.89-4.91,9.19-11.03c-0.89-7.79-9.21-8.5-15.42-8.26c-0.52,0.02-1.06,0.05-1.54,0.27c-1.33,0.6-1.67,2.3-1.78,3.75
	C630.65,695.6,630.54,697.56,630.55,699.54z"/>
<path class="st0" d="M366.28,726.87c0.7,2.09,1.62,4.06,2.84,5.85c0.67,0.98,1.46,1.92,2.5,2.5c1.21,0.67,2.64,0.8,4.02,0.91
	c7.99,0.65,12.57-3.32,13.43-11.39c1.38-12.99,0.23-26.04,0.68-39.05c0.09-2.47-1.51-6.08,2.15-7.04c4.1-1.08,8.49-1.28,12.65-0.06
	c1.55,0.45,0.91,2.42,0.91,3.68c0.01,13.81,0.28,27.62-0.19,41.42c-0.52,15.12-10.8,24.77-26.74,25.97
	c-0.88,0.07-1.76,0.11-2.64,0.12c-9.31,0.1-19.04-3.73-23.43-12.46c-5.3-10.53-4.28-23.89-4.26-35.22
	c0.01-3.68,0.01-7.36,0.02-11.04c0-1.84,0.01-3.68,0.01-5.52c0-1.19-0.6-4.54,0.01-5.52c0,0-0.05,0.08-0.05,0.08
	c0.21-0.42,0.42-0.84,0.63-1.26c0,0,0.45-0.29,0.45-0.29c4.67,0.04,9.33,0.08,14,0.12c0,0,0.31,0.28,0.3,0.28
	c0.22,0.41,0.44,0.82,0.65,1.23c0,0-0.03,0.02-0.02,0.02c-0.01,9.59-0.05,19.17-0.03,28.76
	C364.17,714.66,364.38,721.17,366.28,726.87z"/>
<path class="st0" d="M480,691.02c-0.18-12.9-0.18-12.99,12.79-13.14c8.5-0.09,17.05-0.99,25.25,2.72
	c7.95,3.59,11.9,9.75,12.31,18.09c0.43,8.71-2.65,16.03-10.52,20.59c-5.86,3.39-12.35,4.72-19.02,4.15
	c-4.05-0.35-5.18,1.2-5.07,4.83c0.17,5.44,0.07,10.89,0.3,16.33c0.13,3.07-1.1,4.34-4.08,4.07c-3.75-0.02-7.5-0.03-11.25-0.05
	c-1.08-1.57-0.7-3.35-0.71-5.06c-0.04-11.57-0.05-23.14-0.07-34.71C479.96,702.9,479.98,696.96,480,691.02z M501.79,689.98
	c-4.74-1.11-6.37,1.5-5.89,6.74c0.34,3.63,0.08,7.33,0.02,10.99c-0.03,1.67,0.12,3.28,2.16,3.42c5.06,0.33,10.3,0.46,13.96-3.76
	c2.82-3.26,3.38-7.39,1.62-11.43C511.59,691.19,507.36,690.08,501.79,689.98z"/>
<path class="st0" d="M419.37,737.81c0-17.66,0.11-35.32-0.06-52.98c-0.04-4.32,1.18-6.34,5.81-6.47c9.65-0.29,19.33-1.96,28.84,1.15
	c10.91,3.56,16.27,10.72,16.03,21.35c-0.23,10.3-6.75,18.3-17.31,21.2c-3.94,1.08-7.98,1.85-12.04,1.6
	c-3.95-0.24-5.21,1.67-5.2,5.14c0.01,5.04-0.08,10.09,0.07,15.12c0.08,2.83-0.75,4.36-3.85,4.4c-4.04,0.05-8.08,0.88-12.09-0.31
	c-0.06-1.16-0.12-2.31-0.19-3.47c0.01-1.03,0.02-2.06,0.03-3.1C419.39,740.23,419.38,739.02,419.37,737.81z M440.69,711.17
	c2.97-0.41,6.17,0.04,8.79-2.13c3.96-3.27,5.73-7.21,4.06-12.29c-1.55-4.73-6.67-7.33-13.32-7.03c-3.13,0.14-5.1,0.98-4.84,4.74
	c0.27,3.84,0.23,7.73-0.05,11.57C435.05,710.1,436.52,711.9,440.69,711.17z"/>
<path class="st0" d="M317.6,677.3c2.2,0.18,4.93,0.26,7.61,0.65c9.52,1.4,11.02,4.4,6.87,13.04c-1.04,2.17-2.19,1.96-4.16,1.31
	c-4.25-1.4-8.66-2.19-13.18-1.85c-3.64,0.28-7.17,1.11-8.17,5.23c-1.02,4.22,1.81,6.41,5.16,7.95c3.33,1.53,6.8,2.77,10.13,4.31
	c12.68,5.83,16.74,11.86,15.55,22.88c-0.97,8.94-8.35,15.72-20.06,18.12c-4.65,0.96-9.44,1.06-14.14,0.45
	c-3.95-0.51-9.31-1.24-12.78-3.29c-0.51-0.3-1-0.67-1.33-1.16c-0.93-1.36-0.45-3.2,0.13-4.73c0.76-1.99,1.64-3.93,2.64-5.81
	c0.23-0.42,0.5-0.88,0.95-1.03c0.36-0.12,0.75-0.02,1.11,0.09c6,1.74,11.88,2.91,18.19,2.76c4.22-0.1,7.8-1.48,8.83-6.02
	c1.02-4.52-2.21-6.83-5.58-8.5c-4.51-2.24-9.35-3.83-13.83-6.11c-7.07-3.6-11.26-9.25-11.53-17.5
	c-0.32-10.03,9.22-18.75,20.07-20.28C312.41,677.48,314.75,677.48,317.6,677.3z"/>
<path class="st0" d="M690.41,720c0-7.76-0.14-15.53,0.06-23.29c0.09-3.61-0.82-5.55-4.82-5.1c-1.92,0.22-3.88,0.03-5.82,0.02
	c-8.42-0.02-10.07-2.22-8.29-10.65c0.54-2.55,2.23-2.94,4.26-2.94c15.34-0.04,30.67,0.07,46.01-0.12c4.64-0.06,3.51,3.5,3.82,5.66
	c1.07,7.34,0.37,7.97-6.79,8.03c-12.02,0.1-12.13,0.09-12.27,12.13c-0.15,13.01-0.26,26.02,0.03,39.02c0.1,4.7-1.45,6.02-5.98,5.93
	c-10.26-0.2-10.26,0-10.25-10.06c0.01-6.21,0-12.43,0-18.64C690.39,720,690.4,720,690.41,720z"/>
<path class="st1" d="M348.82,678.83c-0.21,0.42-0.42,0.84-0.63,1.26C348.4,679.67,348.61,679.25,348.82,678.83z"/>
<path class="st1" d="M364.22,680.17c-0.22-0.41-0.44-0.82-0.65-1.23C363.79,679.36,364.01,679.76,364.22,680.17z"/>
<path class="st0" d="M496.8,394.72c1.69,1.67,3.51,3.22,5.44,4.63c22.57,16.49,58.56,14.69,79.31-3.99
	c18.78-16.91,26.3-37.84,21-62.47c-9.33-43.39-61.4-64.44-98.88-38.12c-11.36,7.98-19.73,19.86-23.89,33.07
	c-4.64,14.69-2.23,30.86,3.19,45.09C486.04,381.03,490.66,388.66,496.8,394.72z M366.79,420.79c-12.87,10.1-23.68,22.86-32.71,36.45
	c-12.15,18.28-20.83,39.46-22.6,61.48c-0.03,0.41-0.06,0.85,0.11,1.23c0.36,0.79,1.38,0.96,2.24,1.04
	c11.63,0.99,23.48-0.67,35.21,0.3c7.89,0.65,9.64-2.82,10.49-9.61c1.41-11.2,3.55-22.34,5.92-33.38c1.14-5.33,4.42-9.26,10.83-8.09
	c11.62,2.12,5.65,18.79,4.79,26.32c-0.13,1.16-0.26,2.31-0.4,3.47c-0.39,3.41-4.83,20.17-0.4,20.83c3.9,0.53,8.51,1.99,11.23-3.6
	c18.16-37.29,54.6-66.1,92.76-81.03c0.88-0.35,8.83-4.26,8.87-4.24c-11.28-6.64-20.35-14.81-28.45-24.17
	c-2.56-2.95-3.26-7.66-7.88-8.75c-0.91-0.13-1.82-0.26-2.73-0.4c-0.71-0.1-1.43-0.19-2.14-0.29c-25.03-2.42-50.58,1.09-72.43,13.8
	C375.06,414.72,370.82,417.62,366.79,420.79z M459.43,487.28c-13.91,11.46-25.61,25.62-34.82,41.05
	c-10.99,18.42-21.29,40.39-20.42,62.37c0.29,7.26,13.3,4.42,18.33,4.42c5.22,0,10.44,0,15.67,0.01c3.5,0.01,10.5,1.52,12.8-2.05
	c0.69-1.07,0.95-2.35,1.2-3.6c2.25-11.24,4.42-22.5,6.52-33.78c1.59-8.57,2.46-16.87,12.83-16.87c6.22,1.01,9.47,6.62,8.12,14.58
	c-2.02,11.9-3.98,23.83-6.51,35.63c-1.05,4.91,0.53,5.88,4.91,5.88c41.55-0.07,83.11-0.09,124.66,0.08c5.3,0.02,5.83-1.92,4.92-6.47
	c-2.38-11.85-4.34-23.77-6.43-35.68c-0.77-4.37-1.01-8.53,3.25-11.64c7.56-5.54,15.41-1.67,17.51,9.16
	c2.53,13.03,4.8,26.11,6.81,39.22c0.53,3.49,1.4,5.2,5.2,5.17c13.54-0.11,27.09,0,40.64,0.02c2.38,0,3.14-0.03,3.16-3.5
	c0.1-14.34-5.42-28.62-10.41-41.86c-14.49-38.46-48.94-70.83-88.16-83.22c-9.25-2.92-18.47-4.2-27.94-5.98
	c-8.37-1.57-16.98-0.93-25.54-0.39c-20.89,1.3-41.11,9.24-58.21,21.31C464.74,483.06,462.04,485.12,459.43,487.28z M387,265.98
	c-2.51,4.43-4.37,9.45-5.53,15.37c-3.15,16.18,0.99,32.8,10.47,46.17c10.99,15.5,26.02,22.33,43.85,25c4.49,0.67,6.37-0.9,6.61-5.86
	c0.86-17.47,5.91-33.79,14.52-49.07c6.88-12.23,16.21-22.21,27.58-30.16c4.58-3.2,4.03-5.43,0.87-9.04
	c-10.48-11.96-22.29-20.1-39.17-21.68c-13.62-1.27-25.66-0.12-36.96,7.47C399.62,250.64,392.02,257.12,387,265.98z M593.99,265.7
	c0.87,0.6,1.73,1.2,2.6,1.8c2.93,2.39,5.86,4.79,8.78,7.18c5.85,4.2,9.67,9.93,13.63,15.93c12.16,18.41,18.54,39.83,17.31,61.94
	c-1.22,21.86-11.24,43.01-24.8,60.02c-6.65,8.34-15.96,13.33-24.19,19.96c1.2-0.96,13.45,5.43,15.21,6.19
	c5.11,2.23,10.17,4.59,15.19,7.03c9.03,4.41,17.3,9.4,25.24,15.59c16.5,12.87,32.27,29.57,41.96,48.12
	c6.68,12.8,12.48,26.07,17.34,39.67c2.47,6.92,4.7,13.92,6.68,20.99c1.91,6.8,2.37,14,3.63,20.99c0.81,4.46,0.41,9.12,0.89,13.66
	c1.12,10.61-1.17,19.4-12.02,23.96c-2.41,0.13-4.82,0.37-7.24,0.37c-70.56,0.02-141.11-0.02-211.67,0.05
	c-34.54,0.03-69.08,0.24-103.63,0.37c-10.06-3.75-14.98-10.67-14.78-21.3c0.22-11.98,2.64-23.79,5.6-35.36
	c1.33-5.19,3.95-10.8,4.6-16.05c0.49-3.96-1.97-4.59-5.54-4.55c-23.69,0.26-47.38,0.17-71.07,0.12c-4.04-0.01-8.18,0.46-12.07-1.28
	c-6.43-6.08-8.47-13.52-7.36-22.19c1.07-8.38,1.52-16.32,3.35-24.52c1.87-8.43,3.35-16.95,5.89-25.22
	c11.61-37.89,39.42-73.5,74.61-92.01c10.62-5.59,21.14-11.41,32.68-14.92c-2.88-1.99-4.63-3.19-6.37-4.39
	c-36.93-25.55-49.36-72.34-30.53-112.99c16.03-34.59,52.03-52.37,89.61-46.86c24.7,3.62,47.63,20.86,62.92,39.91
	c3.07,3.82,7.58,2.11,11.92,1.81c5.91-0.4,11.83-0.57,17.75-0.49c18.49,0.24,37.69,7.74,53.47,17c2.38,1.4,4.71,2.87,7,4.41
	 M403.13,248.77c0.16,0.18,0.76,0.19,0.91,0.03c-0.23-0.15-0.47-0.3-0.7-0.45C403.26,248.51,403.18,248.66,403.13,248.77z"/>
<path class="st3" d="M594.91,265.19c-4.15-1.23-8.05-3.28-11.42-5.99"/>
</svg>
