<?xml version="1.0" encoding="utf-8"?>
<!-- Generator: Adobe Illustrator 26.0.3, SVG Export Plug-In . SVG Version: 6.00 Build 0)  -->
<svg version="1.1" id="Слой_1" xmlns="http://www.w3.org/2000/svg" xmlns:xlink="http://www.w3.org/1999/xlink" x="0px" y="0px"
	 viewBox="0 0 1000 1000" style="enable-background:new 0 0 1000 1000;" xml:space="preserve">
<style type="text/css">
	.st0{fill:none;stroke:#000000;stroke-miterlimit:10;}
</style>
<path class="st0" d="M407.94,522.59c0,0,9.32-13.33,16.44-26.71c7.12-13.38,132.55-5.71,132.55-5.71s5.5,15.38,14.54,28.35
	c0,0,56.03,178.98-46.97,221.98l-78,4C446.5,744.5,355.38,618.67,407.94,522.59z"/>
<path d="M407.94,522.59c-19.86,77.44-4.7,146.63,42.35,214.17c4.3-32.88,7.2-61.29,12.01-89.38c2.59-15.1,8.68-29.57,12.68-44.46
	c1.08-4.03,2.16-10.68,0.06-12.52c-15.23-13.43-13.14-26.45,0.64-39.83c-14.68-11.43-29.13-21.27-41.7-33.11
	c-5.4-5.08-10.25-14.61-9.6-21.57c2.7-28.76-11.8-50.75-22.91-75.25c-9.18-20.25-22-43.26-8.45-68c1.74-3.18-0.14-8.23,0.02-12.41
	c0.77-20.69-1.01-41.93,3.1-61.94c7.31-35.55,29.77-58.78,66.83-64.16c15.68-2.28,32.09-3.57,47.69-1.58
	c47.37,6.02,73.81,36.04,77.81,86.93c1.08,13.73-0.86,27.68-0.7,41.53c0.06,5.33,2.73,10.58,3.11,15.95
	c0.6,8.27,2.38,17.31-0.09,24.8c-7.5,22.79-15.36,45.7-25.9,67.17c-6.7,13.65-10.21,26.73-7.97,41.25
	c2.14,13.82-3.15,23.57-13.95,31.44c-12.41,9.03-24.58,18.39-38.11,28.54c14.12,13.58,15.93,27.28,0.14,40.79
	c-1.64,1.4-2.1,6.15-1.06,8.41c18.42,40.28,20.08,83.67,24.07,126.65c0.19,2,0.76,3.96,1.21,6.18
	c39.43-26.46,59.47-124.86,42.25-213.66c17.19,30.51,45.91,36.97,71.58,47.93C670,577.96,698,587.12,724.52,599.5
	c8.98,4.19,19.48,14.13,21.27,23.05c5.38,26.9,7.71,54.54,9.41,82c0.92,14.82-11.79,21.75-23.76,24.4
	c-33.73,7.46-67.6,15.48-101.86,19.2c-92.59,10.04-185.47,9.69-278.09,0.12c-32.21-3.33-64.37-9.34-95.84-17.05
	c-27.28-6.68-31.21-14.43-31.33-42.25c-0.03-6.94,0.29-13.88,0.58-20.81c1.63-39.15,12.85-70.13,57.14-80.53
	c24.13-5.67,46.87-17.49,70.02-27.07C373.19,551.81,395.29,544.25,407.94,522.59z"/>
</svg>
