<svg xmlns="http://www.w3.org/2000/svg" viewBox="0 0 1000 1000" xml:space="preserve"><switch><g><path fill="#D7D4A8" stroke="#000" stroke-miterlimit="10" d="M299.5 375.5s-20-11-21-26c0 0-25 14-33-5 0 0-14 27-44 8 0 0-48 28-74 2s-13-57-13-57-9-50 20-72 21-67 78-57 36 53 36 53 42-1 51 30.5-15 50.5-15 50.5 24 11 7 41c0 0 5 18 19 21l-11 11zM189.5 404.5s13-22 33-11 23 43.9 0 61.5c-23 17.5-37 21.5-42 13.5s-44-56 9-64zM640.5 215.5s-38-3-45 17-3 40 11 47 16 31 55 15 29-93-21-79zM710.5 405.5c3 0 24-15 23-25s-36-34-7-70c0 0-13.7-33.3 37.1-53.6 0 0 14.9-33.4 54.9-10.4 0 0 49-10 55 22 0 0 64 6 36 76 0 0 6.5 23.8-8.8 45.9-15.2 22.1-62.2 25.1-62.2 25.1s-60 35-85-17c0 0-38 24-47 17l4-10z"/><circle fill="#D7D4A8" stroke="#000" stroke-miterlimit="10" cx="815" cy="493" r="20.5"/><circle fill="#D7D4A8" stroke="#000" stroke-miterlimit="10" cx="362.5" cy="828.5" r="24"/><path fill="#D7D4A8" stroke="#000" stroke-miterlimit="10" d="M170.5 760.5s-4-43 19-52 49.1 0 49.1 0 21.5-4 41.7 24 42.3 45 12.3 72c0 0-5.1 50-67.1 29 0 0-73 8-55-73zM685.4 742.2s-3.9-49.7 50.1-45.7c0 0 29-17 44 13 0 0 38 10.9 15 56.4 0 0 3 28.6-26 27.6 0 0-9 37-55 5 0 0-52.2-7.6-28.1-56.3z"/><radialGradient id="a" cx="455.006" cy="425.897" r="307.393" gradientUnits="userSpaceOnUse"><stop offset=".384" style="stop-color:#a39fcf"/><stop offset="1" style="stop-color:#4c4882"/></radialGradient><path fill="url(#a)" stroke="#000" stroke-miterlimit="10" d="M326.3 704.5s-37.8-35-56.8-103c0 0-29.1-12-32-37-3-25-.3-35 19.9-51 0 0 4.2-57 32.2-95 0 0-11-33 10-54s49-15 49-15 18-18 91-43c0 0-3.8-32.4 21.6-35.2s59.7-6 62 28.6c0 0 87.4.6 138.4 69.6 0 0 43.6-4.8 55.3 32.6 11.7 37.4 0 53.6 0 53.6s18.7 84.1 5.2 118c0 0 27.5 20.8 14.5 50.8s-40 29-40 29-12.7 21.4-27.8 38.2c0 0 4.8 17.8-1.2 24.8s-27 29-52 12c0 0-36 27-85 35 0 0-9 24.8-30.5 23.9-21.5-.9-30.5-4.9-31.5-21.9 0 0-52-3.9-82-17.9 0 0-8.8 12.2-31.9 4.1-23.2-8.2-30.6-26.2-28.4-47.2z"/><path fill="none" stroke="#000" stroke-miterlimit="10" d="M347 528.5s-13.5-1-18.5 15-5.1 39.7 18.5 39.4M347 643.4s-9.5 27.1 6.5 40.1 33-4.9 33-4.9M685.4 535.4s29.2 28.9-11.4 47.5"/><path fill="#F6F7FF" stroke="#000" stroke-miterlimit="10" d="M562.5 405.5c.4 2.8 89 7 89 7s-5.7-51.4-59.4-48.7c0 0-34.6 3.7-29.6 41.7zM484.5 400.5l-98 12s2-46.6 49-53.3c0 0 44-6.7 49 41.3z"/><path fill="none" stroke="#000" stroke-miterlimit="10" d="m370.5 438.5 12 13h277.7l13.8-13"/><path fill="#C1272D" stroke="#FFB080" stroke-miterlimit="10" d="M402.1 451.5s27.9 57 114.1 57 128.7-57 128.7-57H402.1z"/><path fill="#F6F7FF" stroke="#000" stroke-miterlimit="10" d="M398.2 451.5s7.3 33 12.3 30 14.9-30 14.9-30h-27.2zM619.8 451.5s3 25 8.9 28.5c5.8 3.5 19.4-28.5 19.4-28.5h-28.3z"/><ellipse fill="#F6F7FF" stroke="#000" stroke-miterlimit="10" cx="539" cy="576" rx="74.5" ry="52.5"/><radialGradient id="b" cx="531.298" cy="547.128" r="117.231" gradientUnits="userSpaceOnUse"><stop offset="0" style="stop-color:#a39fcf"/><stop offset=".835" style="stop-color:#29274e"/></radialGradient><ellipse fill="url(#b)" stroke="#000" stroke-miterlimit="10" cx="539.5" cy="576" rx="46" ry="31.5"/><path fill="#F6F7FF" stroke="#000" stroke-miterlimit="10" d="M581.5 697.1c3.1 1.9 6.3 3.7 9.6 5.3 12 5.6 22.7-5 27.4-15.6 1.7-3.8 2.2-8.2.8-12s-5.1-7-9.2-7.2c-1 0-2.1.1-3.1.2-5.6.8-10.9 3.6-16.6 3.5-5.5-.1-11.2-2.1-15.6-5.5-2.1-1.6-4.1-4.1-3.3-6.6.5-1.6 2-2.7 3.4-3.6 9.5-6.2 19.7-11.5 30.2-15.8 6.7-2.7 13.7-5.1 19.7-9 6.1-4 11.3-9.9 12.4-17.1 1.1-7.2-2.9-15.3-9.9-17.2-4.9-1.3-10.2.6-14.3 3.6-4.1 3-7.3 7-10.9 10.6-4.1 4.2-8.8 7.8-13.5 11.3-16.8 12.4-37.3 29.3-59.2 21.3-12.5-4.6-24.6-10.5-36.5-16.6-9.7-5.1-19.7-10.9-25.1-20.5-3.1-5.5-5.2-12.6-11.1-14.5-5-1.6-10.3 1.5-13.9 5.3-7.6 8.1-10.4 21.9-3 30.2 4 4.5 10 6.5 15.8 7.5 6 1 11.1 1.8 16.8 4.3 6.5 2.9 12.6 6.6 18.4 10.7 7.6 5.3 20.8 11 9 20.2-8.1 6.3-18.1 9.6-28.1 11.4-2.3.4-4.6.7-6.8.1-5-1.5-7-5.4-12.5-2.7-4.5 2.2-8 5.9-9.7 10.7-2.2 6.2-1.4 13.1 1.2 19.1 2.4 5.4 6.7 10.4 12.5 11.2 6 .8 11.5-3 16.4-6.4 10.9-7.7 22.3-14.8 34.1-21.3 11-6 23.2-13.6 36.1-13.5 10.6.1 20.1 6.3 28.9 12.2 3.1 2.2 6.3 4.4 9.6 6.4z"/><circle stroke="#000" stroke-miterlimit="10" cx="445.5" cy="369.5" r="6"/><circle stroke="#000" stroke-miterlimit="10" cx="595.5" cy="372.5" r="6"/><path fill="none" stroke="#000" stroke-miterlimit="10" d="m289.5 418.5 6 15M348.5 349.5h12.8M439.5 306.5v8.3M523.1 299.9l2.6 10.7M257.3 513.5s12.9-8 14.6-13.5M269.5 601.5s15 2 23 12M326.3 704.5s3.8-9.1 0-22.6M386.5 747.6s12-11.1 21-7.1M468.5 765.5h19.7M530.5 763.5s5.1-15.9 12-15.9M615.5 728.5s14.9-7.4 18.4-8.7M668.7 691.7l-7.2 8.8M696.5 653.5l10-21.1M722 573.7l-7.4 17.6"/></g></switch></svg>