<svg xmlns="http://www.w3.org/2000/svg" viewBox="0 0 1000 1000" xml:space="preserve"><switch><g><g stroke="#000" stroke-miterlimit="10"><path fill="#FBB03B" d="M482.1 233.1s-34.6-38.6-55.6-14.6-66 97-6 106 61.6-91.4 61.6-91.4z"/><path fill="#F7931E" d="M473.5 246.5s-28-24-42-9-51 71-11 78 53-69 53-69z"/><path fill="#FBCA3B" d="M441.5 548.5s-8-107-112-100S177 498.3 177 498.3s21.9-3.8 41.7 3.7c0 0-51.2 24.5-80.2 92.5 0 0 15-16 47-24 0 0-10 18-10 31 0 0 16-17 34-21 0 0-35 48-55 94 0 0 17-14 34-22 0 0 5 17-3 35 0 0 23-8 30-36 0 0 1 47 44 81 0 0 68-121 182-184z"/><path fill="#F7931E" d="m438 791.4-42.5 84.1 78 23.1s-6-106.2-35.5-107.2zM513.6 500l-77.3 43.8h-21.5l-19.3 11.9-21.2 32.6-31.8 8.2s-45 47-72 94c0 0 138-44.1 167.5 100.9l322.5-312.9L513.6 500z"/><path fill="#F7931E" d="M283.5 883.5s-27-36-31-46 15.5-33 15.5-33l-24.5-6V770l18-39.5 9-40s47-48 88-45 64.6 11.7 77.8 92.4c13.2 80.6 13.2 86.6-20.8 122.6 0 0 67 15.4 29 70.2H292s-21.5-23.2-8.5-47.2zM627.5 673.5s-44 73-16 264c0 0 6 21 26 21h123s-17-30-29-37-5-34 11-76 36-133 26-189l-141 17z"/><path fill="#F7931E" d="M500 608.1s-66.7 41.6-55.6 190.5S457.5 959 500 965.2s125.5 0 125.5 0-19.6-12.3-23.3-25c-3.7-12.7 10.3-193.7 9.3-254.7L500 608.1z"/><path d="M243.5 798.5s30.9-54 112.9-68l-6.6 9.7s16.7-2.7 31.7-4.7l-24 18s13-2.7 24-1.4c0 0-54 16.4-129 85.4l-9-39zM270.5 690.5s37-24 61-25l-13.2 18.7s26.3-5.7 45.2-6.2c0 0-25.1 12.5-32.1 22.5 0 0 18.1-6 32.1 0 0 0-59.1 6-120.1 69.5.1 0 10.1-53.5 27.1-79.5zM342.5 596.5s-1.3 17 7.3 33l5.4-21.4s9.2 30.4 35.3 48.4c0 0-13-30.7-9-44.8 0 0 5 6.8 14 14.8 0 0-9-33.6 0-70.8 0 0-38 24.8-53 40.8zM414.8 543.8s-10.7 49.4 0 69c0 0 3.5-26.7 13.1-34.5 0 0-5 34.2 23.8 78.2l-.2-27 4.7 15.9 6.3-36.9 11 15.1s-14-54.6 0-100.9c0 0-39.5 9.4-58.7 21.1zM758.3 791.4s-7.8 31.1-15.8 54.1l-28 22-27.8-22.5 7.8 22.5s-51-51-59-103l23-29s18 53 57 89c0 0 22.6-10.1 42.8-33.1zM608.7 775.9l-3.6 69.1-40.6 29.5-16-15 10 21s-52.2-32.2-108.1-101.1l31.7 12-14.3-29s56.7 53 92.2 59c0 .1 31.9-14 48.7-45.5z"/><path fill="#FCFFD1" d="M741.5 930.7s-18.3-.2-14.6 27.8h33.6s0-17.6-19-27.8zM690.1 930.7s-19.8 4.8-22.2 27.8h43.7s-6.9-25.6-21.5-27.8zM602.2 940.2s-18.9 7-17.3 27.1l40.6-2.1s-17.6-15.2-23.3-25zM547.6 944.6s-22.1 1.7-24.1 22.8H566s-3.2-4.7-18.4-22.8z"/><path fill="#FBB03B" d="M422.5 348.5s1.3-14.7 3.4-32.5c2.8-23.8 7.2-53.1 12.1-60.1 8.5-12.3 107.5-79.3 107.5-79.3s140 14 167 69 34 121 30 147 10.4 73 28.7 99.5c0-.1-260.7-17.6-348.7-143.6z"/><path fill="#FBCA3B" d="M568.5 468.5s-73.7-17.7-109.3 7.1c-35.7 24.9-45.7 39.4-53.7 53.6 0 0 28-14.8 58-18.8 0 0-16.1 3.5-20 18.8 0 0 9.4-6.3 25.2-6.5 0 0-24.2 10.2-31.2 33 0 0 21-11.8 39-16.5 0 0-26.5 29.5-31.8 68.9 0 0 17.8-18.6 46.8-25.6 0 0-18 44-15 78.5 0 0 5.9-10.8 17.5-15.6 0 0-4.5 12.1-1.5 29.1 0 0 12.1-22.4 40-34.2 0 0-9 43.3 0 84.3 0 0 7-22.1 18-31.1 0 0-3.4 47.9 7.8 69 0 0 28.2-30 34.2-49 0 0 26.6 36 24.8 94 0 0 11.2-17.9 21.2-19.5 0 0 2.8-1.5-3.6 13.5 0 0 46.4-35 65-66 0 0-3 25-10.2 34.5 0 0 15.8-11.5 19.8-19.5 0 0 4 8.9 0 15.4 0 0 24-10.4 46-62.4 0 0 15.4 13 18.7 32 0 0 12.3-12 9.3-60 0 0 11 4 13 16 0 0 10-24-9-74 0 0 25.4 8.7 31.2 27.9 0 0 6.8-18.4-35.2-89.7 0 0 16-1.2 28 4.8 0 0 4.4-6.6-28.8-37.8 0 0 10.8-10.2 44.8-7.2 0 0-22.1-34.1-81.1-49.1 0 0 0-8.2 24-4.1 0 0-4-9.9-34-11.9 0 0-2-10 22-9 0 0-55-33-134 17 .1.1-25.9 19.1-55.9 10.1zM491.3 236.1C489.1 238.5 451 202 464 170S555.6 52 648.3 16.5c0 0-28.3 34.8-38.3 55.1 0 0 49.6-22.2 100.8-21.4 0 0-21.8 15.8-26.8 31.8 0 0 22-2 42 3 0 0-27 8-32 16 0 0 19 4.1 32 15.1 0 0-19 .9-21 2.9 0 0 69.1 29.1 94.6 67.5 0 0-25.2-1.2-31.9 6.1C761 200 730 202 730 202s21.3 19.5 44.2 18.2c0 0-52.3 20-101.2 13.4S577 193 536 203c0 0-19.4 5.1-44.7 33.1z"/><path fill="#FBB03B" d="M625.5 246.6s63-53.1 96-40.1 98.7 113.5 77.4 127.8c-21.4 14.2-43.4 32.2-65.4 24.2s-39-3-39-3l6.3-43.5-30.6-44.2-44.7-21.2z"/><path fill="#F7931E" d="M657.9 262s38.5-42.4 60.5-29.4c22.1 12.9 67.1 71.9 58.1 88.9s-29 26-49 21-31.3 1.4-31.3 1.4-3.9-37.4-38.3-81.9z"/><path fill="#FFF" d="M506.7 331.6c2.8-2.1 10.8-20.1 18.8-30.1l12.9 32.8-31.7-2.7zM554.5 274.3s20.7-8.1 42.3-6.4c0 0 15.4 26.4 10.5 50l-52.9 9.9c.1 0 11.2-25.8.1-53.5z"/><path d="M525.5 301.5s4.1-13.5 29-27.2c0 0 26 15.9 0 53.5l-16.1 6.4s-13.9-13.7-12.9-32.7z"/><ellipse fill="#FFF" cx="552" cy="291.5" rx="6.5" ry="13"/><path fill="#FBCA3B" d="M536.4 336.2s79.4-7.2 95.7 0c16.3 7.2 62.3 45.2 32.3 83.2s-67 67-87 71-112-10.7-136-37.4-19.1-38.7-41-56.7c-22-17.9-30-63.9 18-69.9s46-29.4 118 9.8z"/><path fill="none" d="M416.5 409.6s7-19.1 35-17.1 71.6 17.1 71.6 17.1 60.1 28.8 73.7-3.7"/><path d="M438 355.4s-39.5-34.1-15.5-47.5 51 4.2 51 4.2 13 20.2-35.5 43.3z"/><path fill="none" d="M324 867.5s30.7-3.1 39.6 17.9c8.9 21.1 5.4 45.3 5.4 45.3M385.1 862.4s29.4-.9 37.4 18.1 0 50.2 0 50.2M217.5 649.5s-7-79.9 26-131"/></g></g></switch></svg>