<svg xmlns="http://www.w3.org/2000/svg" viewBox="0 0 1000 1000" xml:space="preserve"><switch><g><path fill="#100D0C" d="M562.2 442.5c11.7 17.7 17.7 37.6 22.5 58 4.8 20.5 7.3 41.3 10.4 62.1 3.8 24.8 7.8 49.6 10 74.6 2.3 25.7 3.6 51.4 2.3 77.1-.1 2 .3 2.9 2 3.8 4 2 7.8 4.3 11.3 7.2 4.5 3.8 5.2 6.3 3.2 11.8-1.6 4.2-3.9 8-6.7 11.6-2.1 2.6-3.9 5.5-6.2 8-3.6 4-4.8 8.3-4.7 13.8.5 33.6-1.5 67.1-5.1 100.5-2.7 25.6-6.2 51.1-12.9 76-1.8 6.8-4 13.6-7.4 19.8-1.7 3.2-3.5 7.1-7.7 6.7-4.1-.4-5.3-4.7-6.4-8-5.5-16.2-8.9-32.8-11.4-49.7-3.8-25.7-7.5-51.4-11-77.2-2.3-16.9-4.1-33.8-6.1-50.7-2.5-21-6.5-41.8-11-62.4-7.7-35.2-16.1-70.2-23.7-105.4-1.4-6.5-3.5-11.3-9.7-14.7-6.7-3.7-10.9-10.2-12.8-17.7-.6-2.4-1.7-2.7-3.9-2.5-5.1.4-10.1 1.2-15.3.7-1.2-.1-2.2.2-2.5 1.6-.2 1-.8 1.8-1.1 2.8-2.2 9.4-9 13.3-17.8 14.4-3.4.4-4.8 1.9-6 5.1-14.1 39.2-30.9 77.4-47 115.8-1.4 3.2-1.3 5.7.1 9 18.4 43.7 36.4 87.5 50.5 132.8 3.4 11 6.1 22.3 7.5 33.8.2 2 .1 4-.5 5.9-1 3.2-3.5 4.5-6.7 3.4-4.5-1.5-8-4.5-11.2-7.9-26.1-27.9-47.6-59.2-68.5-91.1-5-7.6-9.9-15.2-14.9-22.8-.4-.7-.6-1.7-2-1.8 1.7 11.7 2.9 23.4 2.8 35.3-.1 33-9.8 63.1-27.8 90.6-3 4.6-5.9 9.2-9.6 13.3-.5.6-1 1.1-1.6 1.6-1.6 1.2-3.2 3-5.2 1.7-1.8-1.2-.9-3.4-.5-5.2 4.6-17.8 10.5-35.2 13.6-53.4 4-23.7 2.8-47.3-1.5-70.8-.1-.4-.4-.8-.8-1.6-4.8 8.7-9.8 16.8-15.4 24.5-26.6 36.4-62.7 58.4-106.1 69.1-7.1 1.8-14.6 3.1-22.1 2.6-1.3-.1-3 .2-3.4-1.6-.3-1.5.8-2.5 1.9-3.4 4.8-4 10.6-5.8 16-8.6 28-14.5 54.2-31.5 74.5-56.2 15.4-18.8 27.3-39.6 33.5-63.4 1.7-6.6 2.2-13.2 2.1-20 0-3.1-2-5.3-3.1-7.8-3.3-7.2-8.2-12.7-15.7-16.1-7.7-3.5-14.6-8.4-21.4-13.4-4.1-3-3.8-5.9.9-8.2 2.9-1.4 5.8-2.8 8.9-3.8 3.3-1.1 4-2.3 2.2-5.7-9.6-18.1-17.8-36.8-25.8-55.7-9.2-21.5-13.9-44.2-17-67.3-2.1-15.5-4.3-31.1-3.6-46.8 1.5-36.3 9.4-71.2 30-101.6 22.9-33.8 52.5-60.2 91.3-75.1.5-.2.9-.4 1.4-.5 7.5-1.9 13.5-5.3 18.5-11.9 6.6-8.7 16.6-13.2 27-16.4 18.7-5.8 37.4-11.7 55.1-20.4 4.5-2.2 6.1-6.2 4.5-10.8-.3-1-1-1-1.7-1-23.2 1-36.4-14.4-49.1-30.3-5.7-7.2-9.6-15.6-12-24.6-.3-1.2-.5-2.4-1.4-3.4-10.7-11.7-18-25.5-24.8-39.7-4.4-9-8.8-18.1-13-27.2-.9-2-2.9-4.5-1.1-6.4 1.8-1.9 4.2.2 6.1 1.1 11.4 5.2 21.3 12.8 31.5 19.8 3.5 2.4 3.4 2.4 4.9-1.6 6.9-18.5 16.1-36 25.7-53.2 11.5-20.5 23.6-40.6 38.7-58.8 4-4.9 8.3-9.6 13.3-13.6 4.1-3.2 7.1-1.2 8.3 3 3.3 11.9 4.7 24.1 5.3 36.4.8 16 1.8 32.1.8 48.1-.5 7.5 1.5 12 7.5 16.4 7 5.1 11.9 12.7 15.7 20.6 1.3 2.7 2.4 2.8 4.9 1.9 24-8.4 47.9-17.1 71.8-25.9 15.8-5.8 32.1-10.5 48.8-13.3 1.5-.2 3.3-.7 4.1.7.9 1.5-.5 2.8-1.4 3.9-3.5 4.2-6.9 8.5-10.7 12.4-32.3 33.6-66.3 65.3-104.4 92.4-5.4 3.8-10.8 7.6-16.2 11.3-1.3.9-2.2 1.7-2.3 3.5-.4 8.4.1 16.7 2.3 24.8 1.8 7 5.9 12 12.7 15 14.9 6.5 30.2 12 46 15.9 11.5 2.8 21.7 8.3 29.9 17.2 3.2 3.5 7.3 5.9 11.6 7.9 26.8 12 51.3 27.4 71.6 48.8 19.4 20.4 32.2 44.6 41 71.1 9.1 27.5 13.7 55.6 13.1 84.7-.6 32.3-6.8 63.3-17.8 93.6-7.9 21.8-14.7 44-21.9 66.1-1.7 5.3-.1 10.6.8 15.8 4.4 26.5 17 49 33.5 69.7 23.4 29.4 54.2 46 90.8 52.5 11.5 2 23.1 3.5 34.6 5.2 1.8.3 3.9.5 4 2.5.1 1.9-1.6 3.2-3.5 3.8-8.5 2.8-17.3 4.1-26.3 4.6-13.1.8-26.1-.6-38.9-3.3-22.5-4.7-43.5-12.8-62.7-25.5-20.5-13.6-35.5-32-47-53.5-.6-1-.8-2.4-2.2-3.2-1.7 11.6-2.4 23-1.7 34.6 1.5 25.1 12.9 45.8 27.9 65 11.9 15.3 26.4 28.1 40.1 41.6 7.1 7 14.3 13.9 21.4 20.8 1.3 1.2 2.2 2.6 3 4.2.6 1.3 2.2 2.3 1 4-1.1 1.5-2.8 1-4.1.8-5.7-.6-11-3-16.3-5.2-24.5-10.3-46.3-24.6-65-43.4-17.3-17.4-30.8-37.3-37.2-61.5-4.7-18-4.4-36.2-3-54.5 1.9-24.4 6.6-48.2 15.3-71.1 1.2-3.3.1-6.7 0-10-1-38.5.6-76.9.9-115.3.3-31.6-3.3-62.7-10.5-93.5-7.1-30.4-20.9-57-44.1-78.3-6.8-6.2-14.1-11.8-21.8-16.9-1.2-.8-2.2-1.2-3.7-.4-16.2 8.2-33.2 14.4-50.2 20.6-10.1 3.7-15.7 10.7-16.9 21.1-1.1 8.9-1.6 17.8-1.7 26.8-.1 4.7 1.2 8.7 4.4 12.3 4.8 5.3 9.1 11.1 13.1 17.4 5.5-8.5 8.6-17.5 11.6-26.6 3.3-10.1 6.5-20.3 10-30.4 1-3 1.6-7 5.4-7.8 3.8-.8 5 3.1 7.1 5.2 2 2.1 3.5 4.5 4.7 7.1-.1.5-.1 1.1-.2 1.6-2.4-3.3-4.5-6.9-7.6-9.6-3.8-3.3-4.8-3.1-6.3 1.5-3.4 10.1-6.7 20.3-9.9 30.5-4.3 13.6-9.7 26.5-18.5 38-10.4 13.6-18.5 28.5-24.3 44.7-4 11.3-7.2 22.7-7.9 34.7-.2 16.7 7 27.9 19.2 32.6-1-7.7-2.1-15.3-2.2-23l.9-12.6c.1-1-.2-2.7 1.3-2.6 1.4.1.9 1.8.8 2.8-.3 3.8-1.2 7.7-1.1 11.5.6 14.3 3.2 28.4 6.3 42.3 11.6 52.6 25.3 104.7 33.3 158.1.3 2.7.5 5.4.8 8.1 1.9 15 3.8 30 5.6 45.1 1.8 14.5 3.5 29.1 5.5 43.6 2.4 17.6 5.3 35.1 8.7 52.5 2.3 11.3 4.4 22.7 8.7 33.5.8 1.9 1.2 4.8 3.6 4.8 2.5 0 4.3-2.3 5.7-4.4.6-.9 1-2 1.4-3 4.6-10.1 7.5-20.8 9.7-31.6 7.5-36.8 11.2-74.1 13.2-111.6.9-17.4 1.4-34.8 1.1-52.2 0-.6.4-1.5-.8-2-1.6 2-4.5 2.9-4.6 6.3-.1 5.2-.5 10.4-.8 15.6-.5 10.2-.9 20.4-1.6 30.5-1.6 22.3-2.9 44.6-5 66.9-1.5 15.8-3.3 31.6-6.3 47.2-.8 4.1-1.7 8.3-3.3 12.2-.6 1.4-1.3 3.1-3 3-2-.1-2.3-2.2-2.5-3.7-.4-3.1-.7-6.2-.7-9.3 0-13.1-.8-26.1-1.8-39.1-1.3-16.6-2.7-33.2-5-49.6-1.5-10.9-2.5-21.9-4.7-32.8-.5-8.1-2.2-16-3.5-23.9-5.2-34-10.6-68-16.8-101.9-7.2-39.3-9.3-78.7-6.3-118.5.5-6.2 1.1-12.4 2.9-18.4.5-1.8 1.1-4.1 2.9-4.4 2-.3 3.1 1.8 4 3.4 2.5 4.5 5.2 8.8 7.1 13.5 13.7 33.6 26.6 67.5 34.5 103.1 3.4 14.2 6.2 28.6 8.3 43 .4 3.1 1.8 4.7 4.6 5.9 2.4 1 3.5 1.3 3.4-2-.3-9.8.8-19.6.2-29.4-.6-10.2-.9-20.3-1.5-30.5-1.4-23.7-4.6-47.1-8-70.5-4.6-31-11.9-61.3-23.8-90.5 7.8 12 11.3 25.7 15.6 39.1.2-.9.2-1.8.1-2.6-1.8-10.4-3.9-20.7-6.3-31-4.3-19-11.7-36.9-20.6-54.1 1.2-.6 1.4-.8 1.7-1zm-271.5-24.9c.2-.3.5-.6.7-1 .1-.3.3-.7.2-.8-.4-.3-.5 0-.7.4-.3.2-.5.5-.8.7-.3.2-1 .4-.5 1 .5.5.8 0 1.1-.3zM365 180.2c-.1-.2-.1-.4-.2-.6l-.3.3c.2.2.4.2.5.3.2.3.3.7.4 1.1 3.9 6.9 8.8 13.1 14.1 20.5-.1-3.4.8-5.7-1.1-7.7l-12.6-13.2c0-.5-.3-.8-.8-.7zm-79.1 248.9c-.7.2-.9.8-1 1.4-1.1 1.6-2.3 3.2-3.3 4.9-10.9 18.6-18.6 38.5-24.1 59.2-2.8 10.3-5.8 20.6-5.5 31.5.7 30.9 6 61 15.9 90.4 7.1 21 15.5 41.4 27 60.5 1.2 2 2.1 2.6 4.4 1.7 3.7-1.4 7.5-2.5 11.3-3.7.9-.3 2.2-.4 2.3-1.5.3-3.6 1.9-7-.1-10.8-10-19.4-18.1-39.5-23.7-60.6-6.6-25-9.4-50.2-6.6-76.1 1.5-13.7 4.1-27.3 6.9-40.8 1.2-.9 1.1-2.4 1.5-3.7 11.4-36.3 32-65.7 65.2-85.4 2.1-1.3 5.2-2.1 6.1-4 1.1-2.3-2.5-3.8-3.3-6.1 0-.1-.1-.2-.2-.3-1.9-2.7-1.7-7.7-4.5-8.3-2.9-.6-6.5 1.8-9.7 3.1-16.9 6.6-33.1 14.3-44.6 29.3-4.1 5.4-9.1 10.2-12.1 16.4-.5.7-1 1.4-1.6 2.1.1.2-.1.5-.3.8zm159.2-159.8c.4-.3.9-.6 1.3-.9.5-.5 1.1-1 1.5-1.6 8-10.8 8.5-23.7 10.3-36.3-1.5-.3-2.3.5-3.1.9-4.9 2.5-10.1 4.2-15.4 5.6-2.6.7-3.9.2-3.4-2.8.5-3.2.5-6.5 1.2-9.6 1.5-7.1 3-14.2 10.3-18 6-3.2 6.1-3.3 3.1-9.7-6.9-14.4-15.3-27.6-28.4-37.3-4.5-3.3-9.5-5.4-15.1-5.9-9.3-.8-14.4 4.9-18.6 11.9-6.8 11.4-7 24.1-7.4 36.8-.1 1.9 1.3 2.9 2.5 4 8.7 8.1 11.8 18.7 14 29.8.4 2.2-.6 2.6-2.5 2.2-1.8-.4-2.9-2.3-5-2.1 0-.2-.1-.4-.1-.6-.1 0-.2.1-.3.1.2.1.3.3.5.4 6.5 15 17.5 25.8 31 34.4.3.2.9 0 1.4 0 .1.2.2.5.4.7 8 6.2 13.1 6.5 21.8-2zm-5.3 266.5c.9 2.1.2 6 3.2 5.9 5-.3 10.5.5 14.7-3.6 1.4 0 1.9-.8 2.2-2 3.6-12.9 10.9-23.7 18.4-34.5 1.3-1.9 3.3-3.4 3.7-5.9 3.2-1.6 4.2-3.9 2.4-7.3-1-1.9-1.6-3.9-2.3-5.9-3.4-10.1-7.7-20-7.9-30.9-.2-9.2-.3-18.4-.9-27.6-.4-5.2-1.1-9.9-5.5-13.9-4.8-4.4-8.9-9.7-10.6-16.9-4.4 5-9 9.1-15.4 10.4-1.6.3-1.5 1.5-1.1 2.6 1.1 3.7 2.3 7.3 3.5 11 1.3 3.9 3.9 7.3 4.3 11.5 1.4 14.1.2 27.9-5.2 41.2-2.1 5.3-4.3 10.6-4.5 16.5-1.4 2-1.3 4.5-1.7 6.7-2.8 14.3-2.5 28.4 2.5 42.3.1.1.1.2.2.4zM371 393.9c6.2 5.1 13 9.2 20.8 11.4.3.4.7.7 1.2.2-.3-.2-.6-.4-.8-.6l-6.9-10.2c-2.7-4.8-5-9.7-5.7-15.3-.6-5.4 1-8.1 6-10.1 7-2.7 14.4-2.6 21.6-3.7 1.4-.2 2.8.1 2.6-2.1-.4-3.6.6-7.2.9-10.8.4-4.8.5-4.7-4.5-5.2-7-.7-14.1-1.5-20.8-3.9-3.6-1.3-5.5-3.9-6-7.4-.4-2.9-.7-5.9-.4-8.9.4-4.2 1.6-8.2 2.4-12.5-.8.3-1.2.4-1.7.6-1.2.6-2.5 1.1-3.7 1.8-9.6 5.1-18.3 11.1-21.9 22.2-.2.7-.5 2-1.6 1.7-1.7-.5.3-2.3-.8-3.3-6.8 1.9-13.5 4.2-19.9 7.1-34.3 15.5-61 40.1-81.9 70.9-19.7 29-27.9 62.1-29.8 96.8-1.3 23.9 1.8 47.5 6.8 70.7 7.9 36.7 22.4 71 40.2 103.9.9 1.6 1.7 1.6 3.2 1.1 6.9-2.5 13.8-5 20.8-7.2 2.7-.9 2.9-1.7 1.5-4.1-15.4-25.8-25.2-53.9-34.1-82.4 0-.6.2-1.2.1-1.8-6.5-25.3-8.9-51-9-77.1-.1-22.7 3.9-44.4 13.8-65 11.8-24.4 29.4-43.9 52-58.7 12.5-8.2 26.4-13.7 40.7-18.3 1.7.9 1.5 2.7 2 4.2 2 6.4 5.3 11.8 11.6 15 .2 1.1.8 1 1.3 1zm72.9-85.1c2.9-2.2 4.2-5.8 6.8-8.2 6.5-6.3 7.9-14.1 7.1-22.6-.1-.8.1-2.1-1.2-1.8-2.7.6-5.5 1-7.8 2.3-1.7 1-.6 3.4-.7 5.2-.1 2.4.1 4.8-.1 7.1-.3 2.8-.6 5.7-2.9 7.8-.5.5-1.1 1.2-1.9.5-.5-.5-.2-1.2.1-1.7 1.1-2 2.6-3.8 2-6.7-6.1 3.9-12.7 6.3-19 9.3-3.8.4-6 2.6-7.2 6-1.1 3.2-1.9 6.4-2.4 9.7-.4 3.5.7 6.6 3.6 8.9 1.4 1.1 2.7 1.6 4.3.2 3.9-3.2 8.4-4.7 13.4-4.9 1.2 0 1.9-.5 2.3-1.6 1.1-3 2.3-6.3 3.6-9.5zm12.3 82c6.5-8.7 8.7-18.7 8.7-29.2 0-3.9.3-8.1-1.9-11.8 1-1.3.3-2.7-.2-3.8-1.3-3-2.9-6-4.3-8.9-.2-2.1-1.4-2.9-3.5-3-6.3-.3-11.1 2.6-14.9 7.2-6.8 8.3-9.8 18.1-9.2 28.8.7 12.9 9.5 21.8 21.6 22.5 1.6 0 3 .1 3.7-1.8zM345.1 149.3c-.2-.1-.4-.1-.6-.2.1.2.2.3.2.5.1.5 0 1 .2 1.5 8.2 20 17.8 39.4 29.8 57.5 1.5 2.3 3.5 4.3 5.9 7.3-.4-5.8-.7-10.2-3.6-14.5-6-8.6-13.3-16.5-17.5-26.3-.4-.9-1.3-1.9-.4-2.7 1.1-1 1.7.5 2.4 1 1.3 1.1 2.6 2.3 3.8 3.6 4.7 5.1 9.4 10.2 14.5 15.8 1.1-6.1 1.9-11.5 3-16.8.5-2.7-.3-4.4-2.5-6-8.5-6.1-17.3-11.8-26.5-16.8-2.7-1.5-5.4-3.4-8.7-3.9zM389 396.1c3.6 5.4 7.1 10.6 14.3 12.1 3.2.7 5.8 3.2 8.2 5.6 1.3 1.3 2.6 2.4 4.1 3.9 1.3-6.9 3.2-13.5 5.7-19.8 1.2-1 .4-1.6-.3-2.4-1.9-2.4-3.8-4.9-5.3-7.6-2.8-5.2-4.3-10.8-5.3-16.5-.2-1.5.1-3.7-2.7-3.5-7.6.4-15 1.3-22.2 3.8-2.3.8-3.4 2.4-3.6 5-.3 7.4 3.1 13.5 7.1 19.4zm47.7-54.5c4.6-5.9 10.3-9.8 18.3-9.9-5.6-8.7-16.4-11.9-25.6-7.1-6.8 3.5-10.6 9.5-13.5 16.2-2.8 4.9-2.9 10.5-3.5 15.9-1.4 12.5.9 24.3 8.4 34.7 5.1 7.1 12.1 10.6 21 9.3 4.1-.6 7.6-2.5 10.7-5.7-18-3.7-25.6-14.8-23.3-32.6.9-7.5 3.9-14.2 7.5-20.8zm.4 193.5c-3.2-11.1-5.1-22.3-3.3-33.8.9-5.6 1.5-11.3 2.2-17 3.2-12.2 9.4-23.5 10.3-36.3.6-8.4 1.4-16.9-2.1-25-1.8-4.2-3.7-8.4-4.6-13-.8-4.2-2.3-7.3-7.4-7.5-1.9-.1-3.8-1.1-5.4-2.4-1.7-1.4-2.6-.8-3.6 1.1-2.9 5.2-3.5 11.1-5.2 16.6-.7 2.4-.5 4.5.1 6.9 3 10.5 2.6 21.3 2.3 32-.2 6-3.4 11.1-4.6 16.8-3.5 3-6.2 6.2-6.1 11.2.3 16.9 4.5 32.7 13.1 47.4.7 1.2 1.7 1.7 2.6 2.4 2.4 6.3 7.6 7.1 13.5 6.8-.6-2.2-1.2-4.2-1.8-6.2zM317.8 858l.1.2c-.6 4-1.1 8.1-1.7 12.1-2.9 17.6-7.3 34.7-13.3 51.5-.6 1.7-2.3 4.3-.4 5.3 1.6.8 3.1-1.9 4.3-3.4 13.3-16.3 22.6-34.7 28.9-54.7 4.8-15.2 7.2-30.7 7.4-46.5.1-9.7-1.3-19.3-2.1-29-.7-9.2-4.3-17.1-9.2-24.8-5.4-8.4-10.6-16.9-14.5-26-1.7-3.9-4.6-5.6-8.3-6.5-6.7-4.4-14.2-7.4-21.3-10.9-.3 0-.5-.1-.8-.1.1.2.2.5.3.7 3.1 5.4 6.5 10.6 9.1 16.2 16.5 36.5 24.5 74.7 21.6 114.9-.5.3-.6.6-.1 1zm168.3-362.5c-4.7 4.5-8.1 10-11.5 15.4-5.3 8.2-10.3 16.7-12.7 26.4-1.7 3.3-4.6 5.3-8.2 5.8-5.1.8-10.4 1.6-15.5.8-3.5-.5-7.3.1-10.2-2.6-2.7-2.5-5.5-5.1-7-8.6-6.6-11.5-11.4-23.7-13-37-.4-3.7-.7-7.5-1.1-11.5-10.3 9.1-15.3 19.9-14.7 31.3 0 16.6 5.6 31.5 16.8 43.4 18.6 19.8 42.3 26.7 69.1 24 1.6-.2 2.3-.7 1.9-2.3-1.2-5.1 0-10.1.6-15.1 1.3-9.6 4.4-18.8 7.1-28.1 1-2.4 2.1-4.8 3.1-7.2 6.2-14.6 14.4-28.1 23.7-40.9.8-1.1 2.4-2.1 1-3.9-1.6-2-2.5-4.6-4.8-6.1-.9-2.6-2.7-1.1-3.9-.6-6 2.6-11.3 6.1-16 10.7-1.7 2-4 3.4-4.7 6.1zm123.2-118.8c.5 1 1.2 1.5 2.4 1.3.5.4 1 .8 1.5 1.1 28.8 16.3 49.4 40 61.1 70.9 18.4 48.5 19.6 98.3 8.4 148.3-7.5 33.4-18.8 65.9-30.4 98.2-3.2 8.9-7.1 17.5-8.4 27-2 3.1-2.2 6.7-3 10.2-3.6 15.9-5.8 32-6.6 48.2-.4 7.4-.7 14.9.2 22.3 1.6 16.2 5.6 31.8 12.7 46.5 8.2 17.1 20.9 30.4 34.7 43 19.6 17.8 41.2 32 66.6 40 2.6.8 5.1 1.9 8.4 1-2.9-5.3-7.2-9-11.3-12.9-12.3-11.8-24.8-23.4-37-35.3-4.9-4.8-9.3-10-13.9-15l-3.3-4.5c-10.8-14.2-20.5-29-25.2-46.5-5.5-20.7-3.8-41.4-.3-62 4.6-27.8 13.1-54.5 22.5-80.9 2.2-6.3 4.8-12.5 6-19.1 3.4-7.6 5.5-15.7 8.2-23.6 8.4-25 16.1-50.1 17.9-76.7 1.9-28.4 1.1-56.4-6.1-84-6.5-25-15.3-49.1-30.1-70.6-22-31.9-52.6-53-87.6-68.5-4.6-2-8.9-4.6-12.3-8.3-10-10.9-23.1-15.5-36.9-18.8-1.1-.3-2.1-.5-3.2.1-9.8 5.6-18.6 12.2-22.5 23.4-.9 2.5-2.6 3.9-4.8 4.8-2.5 1-5.2 1.8-7.8 2.6-13.1 3.8-26.5 5.5-39.9 7.4-2.6.4-4.3.8-3.3 4.2 1.1 3.6 1.1 7.4.9 11.1-.2 2.6.7 3.3 3.3 3.5 11.2.6 22.3 1.3 33.5 2.1 3.7.3 7 1.4 9.6 4.2 1.9 2.1 4.3 3.8 6.4 5.6 3.5 4 7.6 7.1 11.9 10.1 9 6.5 18.3 9 28.3 1.9.9-.6 2.1-.8 3.1-1.3 1.6-.9 3.5-1.2 4.8-3-1.8-1-3.4-2-5-2.9-3.9-2.1-5.9-6.1-5.5-10.5.4-4.7 3.6-7.2 8.8-6.6 14.1 1.7 27.7 5.4 40.7 11.4.6.4 1.5.8 2.5.6zm30.8 25.3c-.3-.7-.8-.8-1.4-.4.2.3.5.7.7 1 .4.6.8 1.3 1.2 1.9 14.7 22.1 25.1 46.2 30.9 72.1 8.1 36.6 10.3 73.8 10.2 111.2 0 1-.6 2 .5 3.4 3.4-18 5.2-35.8 5.4-53.7.2-27.3-4-54-12.6-79.9-7.2-21.3-18.5-40.1-34.9-55.6zM521.9 299.7c-3.7-2.5-8.1-3.6-12-5.6-1.8-.9-2 .4-2.3 1.7-.9 4.1-3.4 7-7 9.1-3 1.7-6.2 3.1-9.3 4.6-3.8 1.8-8.4 2.1-11.5 5.6-9 1.8-15.6 7.8-22.7 13-.7.5-.8 1.1-.2 1.9 3.2 3.7 4.5 8.3 6.5 12.5.9 2 2.1 2.1 3.8 1.9 7.1-1.2 14.2-2.2 21.2-3.7 9.2-2 18.6-3.2 27.4-7 1.6-.7 3.1-1.3 3.7-3.3 1.6-5.8 5.3-10.3 9.5-14.5 3.6-3.6 8-6.2 12.6-9.4-6.8-2.3-13.3-4.5-19.7-6.8zm-49.4 15.6c2-1 4-1.9 6-2.9 6.8-3.3 14.3-5.1 20.6-9.4 2.7-1.8 4.8-3.9 6-6.9.7-1.9.8-3.7-1.1-5-6.1-4.3-8.3-10.7-9.8-17.7-1.4-6.4-1.3-12.9-1.4-19.9-.9.6-1.3.8-1.6 1.1-8.5 8.4-17.8 15.4-29 19.7-2.1.8-2.2 2.1-1.8 4.1 1.3 7.9-.4 15-5.7 21.1-2.9 3.4-5.8 6.8-8 10.7-1.6 2.7-3 5.4-4 8.3-.4 1.1-.6 1.8.9 2.2 3.7.9 6.9 2.7 9.8 5.1 1.3 1.1 2.3 1 3.5-.1 4.6-4.1 10-7.4 15.6-10.4zM282.7 789.7c-.7 1.2-1.5 2.3-2.1 3.5-12.6 24.3-29.8 44.8-51.7 61.3-16.8 12.7-34.7 23.6-53.9 32.4-2.9 1.3-5.8 2.6-8.1 6.1 14.2-1.2 27.6-3.1 40.3-8.5 2.2.1 4-1.2 6-1.9 43.4-16 75-45.4 96.8-85.8.8-1.5.9-2.9.6-4.6-2.3-10.4-5.2-20.7-8.8-30.8-1.8-5.2-3.6-10.4-6.8-16.2-.2 5.2-.7 9.2-1.5 13.2-2 11-6.3 21.2-10.8 31.3zm171.2-526.6h-.8c-2.9 5.7-7.5 9.9-12.8 13.4 13.9-1 26.3-5.3 37.5-13.4 6-4.3 10.5-10.3 16.5-14.5 40.3-27.5 77.3-58.8 111.3-93.9 5-5.2 10.4-10 14.9-15.6 2.7-2.6 5.3-5.3 7.3-8.8-18 2.2-34.6 7.7-51 13.6-26 9.5-52 19-78.3 27.7-1.7.6-4.4 2.6-5.2.6-.7-1.8 2.7-1.6 4.3-2.3 1.2-.6 2.3-.7 1.4-2.5-5.3-10.1-11.3-19.7-21.3-25.9-2.4-1.5-3.1-3.1-2.8-5.8.4-3.7.6-7.4.6-11.2 0-19.6-.9-39.3-2.2-58.9-.4-6.8-1.4-13.6-3.5-20.1-1.4-4.2-1.8-4.3-5.6-2.4-5.3 2.7-8.6 7.5-12.1 12-15.7 20.4-30.3 41.6-42.3 64.4-6.6 12.5-12.9 25.2-18.7 38.1-.4.3-.7.9-.3 1.1.5.4.6-.4.9-.7 7.9-8.3 16.9-8.3 26.5-3.6 5.3 2.6 10 6.1 14 10.4 9.7 10.4 17.3 22.1 22.8 35.2 1 2.3 1.9 3 4.4 2 4.9-2 10-3.7 15.1-5.4 3.3-1.1 3.6-.7 3.1 2.8-1.7 10.7-6.7 19.7-14.8 26.9-1.8 1.6-2.7 3.3-2.7 5.7 0 5-1.2 9.8-1.9 14.8-1.1 5.5-3.3 10.7-4.3 16.3zm63 115.1c-4.1-5.6-9.6-8.8-16.5-9.5-10.3-1.1-20.7-1.5-31.1-1.8-1.9 0-2.5.6-2.8 2.5-1 7-2.8 13.8-6.6 19.9-.9 1.4-.5 2.6 0 3.9 1.6 6.8 6.3 11.7 10.9 16.6 1.9 2.1 3.8 4 4.2 7.2 1.4 10.8 1.7 21.8 1.8 32.7.1 13.3 5.8 24.8 9.6 36.9.5 1.6 1.5 2.3 3.1.9 5.5-5 11.8-8.8 18.8-11.7-.7-.8-1.1-1.2-1.5-1.7-2.7-3.7-6.8-6.8-7.6-11.3-1-5.3-1.6-10.8-1.1-16.3.5-5.8 1-11.6 1.4-17.4.6-10.9 8.1-20 18.5-23.2 8.6-2.6 16.9-6.1 25.7-10.1-10.7-4-19.1-10.3-26.8-17.6zm-147.7 215c-.1.3-.2.7-.3 1v1.3c-.3 3.6-.5 7.2-.9 10.8-1.5 12.9-2.2 26.1-4.9 38.8-5 24.1-10.7 48-12.7 72.6-.9 11-.4 21.6 3.7 31.9 5.9 14.9 12.4 29.6 19.5 44 12.2 24.9 24.6 49.7 35.8 75.1 5.2 11.8 8.8 24.6 19.8 32.8.1.1.1.2.2.3 2.8 2.7 5.7 5.2 9.5 6.5 3.3 1.1 4.3.4 4.6-3.1.4-5.7-.9-11.1-2-16.6-3.7-17.9-9.6-35.2-15.7-52.4-10.8-30.5-23.6-60.1-35.4-90.2-1.5-3.9-3.2-7.8-5-12.4-.6 1.3-.8 1.7-1 2.1-.3.8-.5 2-1.5 1.7-1.4-.4-.7-1.6-.4-2.5.6-1.9 1-3.9 1.8-5.7 7.9-18.9 15.9-37.8 23.8-56.7 8.7-20.9 17-41.9 24.9-63.1 1.2-3.1.3-4.2-2.7-4.5-3.3-.3-6.7-.7-10-1-.8-.1-2-.2-1.9-1.3.1-1.3 1.3-.8 2.1-.8 1.5 0 3 .3 4.4.4 6.7.6 13.4 1.6 19.9-.5 2.6-.9 5.4-1.6 7.4-4.1-1.8-.5-3.2 0-4.7.1-7.2.6-14.1-.5-20.6-3.7-.9-.4-2.5-.9-1.7-2.3.6-1 1.8-.1 2.7.3 7.3 3.2 14.8 4.8 22.9 3.2 3.7-.7 7.2-4.1 6.8-8.1-.4-3.3-3.8-1.5-5.7-2.5-1-.5-2.2-.5-3.2-.8-24.1-5.8-43.2-18-53.2-41.8-5.3-12.7-7.4-25.7-3.5-39.2 2.5-8.7 8.2-15.2 14.6-21.3 4.6-4.4 7.8-9.3 4.5-16-.3-.7-.3-1.5-.5-2.2-2.3-9-4.5-18.1-9.7-26-4.4-5-5.3-5.1-10.6-1-4.8 3.7-8.4 8.5-11.2 13.8-11.9 23.1-17.2 47.8-16.7 73.7 0 1.1.4 2.2-1.5 3-.8-4.6-.8-9-.3-13.9-11.7 18.1-45.6 139.3-44.9 160 3.9-1 6.8-2.1 7.9-7.2 6.1-27.8 14.3-55.1 24.1-81.8 3-8.2 6.3-16.3 10.8-23.7 1.5-2.4 3.8-5.1 6.5-4.9 3 .3 3.4 3.9 4.1 6.5.3 1.2.4 2.5.5 3.7 1 9.3-.2 18.5-.4 27.7zm312.6 192.2c.6 1.1 1.1 2.2 1.9 3.2 12.8 17.3 28.7 30.9 47.9 40.8 22.9 11.7 47.2 18.5 72.8 20 11.6.7 23.1-.2 34.4-3 2.2-.6 4.6-1.4 6.5-3.1-1.5-.8-2.8-1.1-4.1-1.3-9.5-1.2-19-2.3-28.5-3.8-44.5-7-79.7-28.8-105.1-66.1-5.2-7.6-9.7-15.6-14.2-23.6-5.7-13.2-10.4-26.8-12.3-41.2-.6.6-.9 1.1-1 1.7-4.5 14.6-8.3 29.4-10.9 44.4-.5 2.9-2.3 6-1.1 8.7 3.7 8.3 7.8 16.3 13.7 23.3zm-361.2-42.9c-.3-.3-.4-1-.9-.6-.4.3 0 .8.3 1.1.8 1.8 1.4 3.7 2.4 5.5 10.7 19.8 23 38.6 35.3 57.5 16.2 24.9 32.6 49.7 51.4 72.8.7.9 1.2 2.2 2.8 2.2.4-1.8-.7-3.1-1.3-4.5-5.9-14.5-13.1-28.4-19.9-42.5-11.1-23.1-22.6-45.9-32.8-69.4-6.3-14.4-11.4-28.9-9.9-44.9 2-21.5 5.6-42.8 10.7-63.8 3.2-13.2 4.4-26.6 6.1-40 1.4-11.9 2.6-23.9 2.7-35.9 0-6.3.4-12.7-.9-19-.3-1.2-.3-2.7-1.6-3.2-1.6-.6-2.5 1-3.3 1.9-2.6 3.2-4.6 6.8-6.1 10.6-12.1 30.8-22.6 62.1-29.8 94.4-.3 1.1-.7 2.3-.1 3.8 2.5-1.7 4.6-3.5 6.2-5.7.5-.6.2-2.5 1.7-1.4 1.2.8.5 2.1-.3 2.9-3.5 3.5-6.8 7.3-11.7 9-17.5 6.1-35 12-52.4 18.2-5.6 2-11.3 3.7-16.2 7.4-1.5 1.2-2.1 2-.2 3.3 5.2 3.8 10.3 7.9 16.5 10.1.2.8 1 1 1.6 1.4 7.8 4.6 15.8 8.7 23.9 12.7 7.3 3.6 14.6 7.3 21.9 11 3.9 2 7.4 4.5 9.3 8.7.4.9 1.4 2.2-.1 2.9-1.4.6-1.4-1-1.9-1.7-.7-2-1.5-3.9-3.4-4.8zm323.2-246.2c.3 2.3.3 4.7.9 7 4.1 17.4 5.7 35.1 6.4 52.8.8 19.5-.1 39.1-.5 58.6-.3 16.2-.6 32.3-.8 48.5-.1 9.9 0 19.7 0 29.6.4 0 .9.1 1.3.1.3-.9.7-1.8 1-2.6 8.8-23.4 16.1-47.3 23.1-71.3 1.6-5.5 4.2-10.8 4.3-16.6.3-32.5.1-64.9-5-97.2-3.1-19.4-6.4-38.8-13.5-57.2-4.8-12.4-10.1-24.6-18-35.5-2.6-5.5-6.4-10.3-10.1-15.1-2.1-2.8-3.9-5.7-6.8-7.8-18.2-13.1-38.8-19.8-60.6-23.2-2.3-.4-4.8.3-5.8 2.4-1.2 2.5.2 9 3.7 10.8 17.4 8.9 32.2 21 44.8 35.9 14.1 16.6 24.1 35.5 29.6 56.7 2 8 4 16 6 24.1zm-53.9 184.5c-.4-2.5-.6-5.1-1.2-7.6-3.4-15.4-7.4-30.7-12.3-45.7-7.2-22.1-14.1-44.3-24.7-65.1-2.4-4.8-4.9-9.6-7.4-14.3-1.3 2.4-1.8 4.5-2.2 6.7-2.2 12.4-2.8 24.9-3.1 37.5-.7 29.3.9 58.4 5.8 87.4 5.9 35.4 11.7 70.9 17.6 106.3 1.4 8.2 2.3 16.4 4.3 24.5.1 1.6 0 3.2.3 4.8 2.9 18.5 5.3 37.1 7.1 55.7 2.2 22.2 4 44.5 4 66.9 0 2.1 0 4.3 1.7 6.1 13.1-56.5 13.5-114.1 17.1-171.8-4.2 1.9-5.5 4.8-6.2 8.3-1.3 6.2-2.9 12.3-4.4 18.5-.2 1-.2 2.7-1.6 2.3-1.3-.3-.6-2-.4-2.9 1.7-7.3 3.4-14.5 5.2-21.7.4-1.7 1.3-2.9 2.7-3.9 10.6-7.4 17.9-17.9 25.6-27.9 1.3-1.7 2.1-3.7 2.1-5.9 4-7.9 3.7-9-3.3-14.2-1.1-.8-2.2-1.6-3.4-2.3-8.6-5.1-17.7-8.9-27.1-12.3-2.3-.8-3.4-2.1-3.9-4.4-1.3-5-2.6-10.1-4.6-14.9-.3-.8-1.6-2.3.2-2.7 1.2-.3 1.4 1.2 1.6 2.1 1.6 4.8 3.1 9.7 4.7 14.5.4 1.2.3 2.9 2.2 2.9 2.9 1.5 5.9 2.8 9.5 3.7-.5-3.2-.7-6.1-1.3-9-1.5-7.2-2-14.6-4.6-21.6zM414.1 469.4h.8c.8-2.7 1.9-5.3 2.4-8 2.2-11.1 1.1-22.3-.6-33.4-1.7-10.7-10.3-18.4-21-19.8-3.8-.5-7.2-1.7-10.6-3.3-6.1-2.9-11.8-6.3-17.2-10.3-1.7-1.2-2.9-1.2-4.6-.2-21.9 11.8-39.6 28.2-52.7 49.4-12.3 19.8-19.5 41.4-23.2 64.3-3.2 19.6-4.6 39.2-2.5 59 2.7 25.2 9.9 49.1 19.7 72.3 3 7.1 6.1 14.2 10.2 21.6 5.1-27.2 11.9-53.2 19.5-79 7.5-25.6 14.8-51.3 26.4-75.4.4-.9.5-1.9.6-2.9 2-17.7 6.7-34.6 14-50.7 3.8-8.4 8.8-15.9 17.2-20.5 4.7-2.6 8.2-1.7 10.5 3.1 2.4 5 4.7 10.1 6.2 15.5 1.7 6.2 3.3 12.3 4.9 18.3zm-32.7-139.8c0 9.6 1.1 11.4 9.1 13.1 6.4 1.4 13 2.1 19.4 3.2 1.8.3 2-.9 2.4-2.1 1.7-4.9 3.9-9.7 7.3-13.7 1.4-1.7.7-2.6-.6-3.6-4.2-3.5-5.1-8-4.2-13.1.4-2.3.9-4.6 1.7-6.8.3-.8 1.4-1.8.4-2.7-.9-.7-1.9.1-2.8.4-9 2.9-17.9 5.9-26.9 8.7-1.9.6-3 1.5-3.6 3.3-1.5 4.4-2.4 9-2.2 13.3zM252.2 505.8c7.8-31.1 19.1-60.7 38.1-87.8-16.3 8.6-38.5 60-38.1 87.8zm213-289.9c0-5-4.1-9.3-9.2-9.3-4.9-.1-9.4 4.3-9.5 9.2-.1 5.4 4.4 10 9.5 10 5.1-.2 9.2-4.5 9.2-9.9zm-83.1-8.2c.5 3.4 1 5.9 1.1 8.3.2 4.4 2.6 7 6.3 8.7.8.4 1.5 1.5 2.6.5 1-.9.4-1.8.1-2.7-1.8-5.5-5.4-9.9-10.1-14.8zm30.6 674.4c-.1-.1-.1-.2-.2-.2-.1.1-.2.1-.2.2s.1.2.2.2l.2-.2z"/><path fill="#3E4141" d="M562.2 442.5c-.3.2-.6.4-.9.7l-5.1-9c.1-.5.1-1.1.2-1.6 2.3 3.1 4.2 6.4 5.8 9.9z"/><path fill="#E05841" d="m556.2 434.2 5.1 9c8.9 17.3 16.3 35.1 20.6 54.1 2.3 10.3 4.5 20.6 6.3 31 .1.8.1 1.7-.1 2.6-4.4-13.4-7.8-27.1-15.6-39.1 11.9 29.2 19.1 59.5 23.8 90.5-1.8-.7-2-3.4-4.6-3.6 1 4.5.7 9 .7 13.4-.2 15.8.2 31.5-.9 47.3-.5 7.2-1.1 14.3-.9 21.5 0 1.6-.1 3.4-1.3 4.9-7.9-35.6-20.9-69.4-34.5-103.1-1.9-4.7-4.6-9.1-7.1-13.5-.9-1.6-2-3.7-4-3.4-1.9.3-2.4 2.7-2.9 4.4-1.9 6-2.5 12.2-2.9 18.4-3 39.8-1 79.2 6.3 118.5 6.2 33.8 11.6 67.9 16.8 101.9 1.2 8 2.9 15.9 3.5 23.9-1.3.2-2.1 1.3-3 2.1-1.5 1.5-2.5 1.7-4-.4-5.2-7.5-9.6-15.3-13.2-23.6-1.2-2.7-2.6-5.3-4-7.9-8-53.3-21.6-105.5-33.3-158.1-3.1-13.9-5.7-28-6.3-42.3-.1-3.8.7-7.6 1.1-11.5.1-1 .6-2.7-.8-2.8-1.5-.1-1.2 1.6-1.3 2.6-.4 4.2-.6 8.4-.9 12.6-7 2.3-11.5-.8-14.9-6.7-.6-1.1-1.4-2-2.1-3 .7-12 3.9-23.5 7.9-34.7 5.8-16.2 13.9-31.1 24.3-44.7 8.8-11.5 14.2-24.4 18.5-38 3.2-10.2 6.5-20.3 9.9-30.5 1.6-4.7 2.6-4.9 6.3-1.5 3 2.8 5.1 6.3 7.5 9.7z"/><path fill="#914221" d="M400.9 437.3c5.2 7.9 7.4 17 9.7 26 .2.7.2 1.5.5 2.2 3.2 6.7 0 11.6-4.5 16-6.3 6.1-12.1 12.6-14.6 21.3-3.9 13.5-1.9 26.5 3.5 39.2 10 23.8 29.1 36 53.2 41.8 1.1.3 2.3.3 3.2.8 1.9 1 5.4-.8 5.7 2.5.4 3.9-3.1 7.3-6.8 8.1-8 1.6-15.5 0-22.9-3.2-.9-.4-2.1-1.3-2.7-.3-.8 1.4.9 1.9 1.7 2.3 6.5 3.3 13.4 4.4 20.6 3.7 1.4-.1 2.9-.7 4.7-.1-2 2.5-4.8 3.3-7.4 4.1-6.6 2.1-13.3 1.1-19.9.5-1.5-.1-3-.4-4.4-.4-.8 0-2-.5-2.1.8-.1 1.1 1.1 1.2 1.9 1.3 3.3.4 6.7.8 10 1 3 .3 3.9 1.4 2.7 4.5-7.9 21.2-16.2 42.2-24.9 63.1-7.8 18.9-15.9 37.8-23.8 56.7-.8 1.8-1.2 3.8-1.8 5.7-.3.9-1 2.1.4 2.5 1 .3 1.2-.9 1.5-1.7.2-.4.4-.9 1-2.1 1.9 4.6 3.5 8.5 5 12.4 11.8 30.1 24.6 59.8 35.4 90.2 6.1 17.2 12 34.5 15.7 52.4 1.1 5.5 2.4 10.9 2 16.6-.3 3.5-1.3 4.2-4.6 3.1-3.7-1.3-6.6-3.8-9.5-6.5-.1-.1-.1-.2-.2-.3-11.1-8.2-14.6-21-19.8-32.8-11.2-25.4-23.7-50.1-35.8-75.1-7-14.4-13.6-29-19.5-44-4-10.3-4.6-20.9-3.7-31.9 2-24.6 7.6-48.5 12.7-72.6 2.7-12.7 3.3-25.8 4.9-38.8.4-3.6.6-7.2.9-10.8 1-.5 1.1-1.5 1.4-2.5 2.8-9.2 5.5-18.5 9.6-27.3 1.2-2.6 2.3-3.2 5-1.8 4 2.1 7.8 4.9 12.5 5.5.5.4.9.8 1.3 1.2.7.7 1.5 1.9 2.4 1.1 1.3-1.1-.4-1.9-.9-2.7-.3-.4-.7-.7-1-1.1-15.2-16.8-23.2-36.5-23-59.3.1-6.8.7-13.6 1.5-20.4 2-15.5 5.8-30.5 14.3-43.9.7-1 1.7-1.9 1.2-3.3 2.9-.6 5.2-2.4 7.7-3.7z"/><path fill="#E05841" d="M643.8 723.4c1.4-9.4 5.2-18.1 8.4-27 11.6-32.3 22.9-64.7 30.4-98.2 11.2-50 10-99.8-8.4-148.3-11.7-30.9-32.2-54.5-61.1-70.9-.5-.3-1-.7-1.5-1.1-.3-1.4-1.3-1.5-2.4-1.3-.1-1.9-1.8-2.3-3-3-14.1-8.8-29.1-15.2-45.9-17.5-8.8-1.2-15.7.6-21.3 7.3-3.2 3.8-7.3 6.3-11.5 8.7-2.7 1.5-5.4 3-8.1 4.6-2.2-1.9-4.5-3.6-6.4-5.6-2.7-2.9-6-4-9.6-4.2-11.2-.8-22.3-1.6-33.5-2.1-2.6-.1-3.4-.9-3.3-3.5.2-3.7.2-7.5-.9-11.1-1-3.4.6-3.8 3.3-4.2 13.4-1.9 26.8-3.7 39.9-7.4 2.6-.8 5.3-1.5 7.8-2.6 2.2-.9 3.9-2.3 4.8-4.8 3.9-11.2 12.7-17.8 22.5-23.4 1.1-.6 2.1-.4 3.2-.1 13.8 3.3 26.9 7.9 36.9 18.8 3.4 3.7 7.6 6.2 12.3 8.3 35 15.4 65.6 36.5 87.6 68.5 14.8 21.5 23.6 45.6 30.1 70.6 7.2 27.6 8 55.6 6.1 84-1.8 26.6-9.5 51.7-17.9 76.7-2.6 7.9-4.8 15.9-8.2 23.6-.7.1-1.1.5-1.4 1-6.3 9.8-13.3 19.2-20.4 28.4-9.7 12.7-19.7 25.3-26.1 40.3-1.5-1.2-.3-3.7-2.4-4.5zM391 157.6c5.8-12.9 12.1-25.6 18.7-38.1 12-22.8 26.6-44.1 42.3-64.4 3.4-4.5 6.7-9.3 12.1-12 3.8-1.9 4.2-1.8 5.6 2.4 2.1 6.5 3.1 13.3 3.5 20.1 1.3 19.6 2.2 39.2 2.2 58.9 0 3.7-.2 7.5-.6 11.2-.3 2.6.5 4.3 2.8 5.8 9.9 6.3 16 15.8 21.3 25.9 1 1.8-.2 1.9-1.4 2.5-1.5.8-5 .5-4.3 2.3.7 1.9 3.5-.1 5.2-.6 26.3-8.7 52.3-18.3 78.3-27.7 16.4-6 33.1-11.5 51-13.6-2 3.5-4.6 6.2-7.3 8.8-4.4.5-8.2 2.8-11.9 4.9-11.8 6.8-21.3 16.5-32.1 24.7-11.6 8.9-22.9 18.3-34.7 26.9-15.6 11.3-31.7 21.8-48.1 31.8-3.6 2.2-7.7 3.6-10.5 7-6.9 8.6-14.6 16.6-22.7 24-2 1.8-3.8 4-6.6 4.6 1-5.5 3.3-10.8 4.2-16.4.8-4.9 2-9.8 1.9-14.8 0-2.5.9-4.1 2.7-5.7 8.1-7.2 13.1-16.1 14.8-26.9.6-3.5.2-3.9-3.1-2.8-5 1.8-10.1 3.4-15.1 5.4-2.5 1-3.4.3-4.4-2-5.5-13.1-13.1-24.8-22.8-35.2-4-4.3-8.7-7.8-14-10.4-9.7-4.7-18.7-4.7-26.5 3.6-.1.2-.3 0-.5-.2zM503 206c1.2-.3 2.3-.6 3.4-1 14.6-4.6 27.7-12.3 40.4-20.5 7.9-5.1 15.6-10.7 21.5-18.2.6-.8 1.9-1.7 1-2.9-.7-.9-1.8-.3-2.8.1l-2.4.9c-19 7.6-36.4 18.3-53.2 29.9-3.5 2.4-6.5 5.4-8.9 9-.9 1.3-1.1 2.6 1 2.7zm-87.6-77c15-25.5 29.1-51.4 44.1-76.9-4.1 3.7-7.1 8.3-10.2 12.7-10.9 15.3-19.7 31.9-29.3 48-3 5-3.5 10.6-4.6 16.2zm-.5 2c0-.1-.1-.2-.1-.3-.1 0-.2.1-.2.1 0 .1 0 .2.1.3 0-.1.1-.1.2-.1zm45.3-80.4.2.1v-.2l-.2.1zM369.7 393.2c-6.2-3.2-9.5-8.5-11.6-15-.5-1.5-.2-3.3-2-4.2-.4-.8-.7-1.6-1.1-2.3-3.2-5.8-1.4-5.5-7.9-3.1-27.2 10.2-50.3 26.3-68.8 48.7-17.9 21.8-30.7 46.1-34.7 74.6-2.1 14.9-1.9 29.6-.2 44.4 1.8 15.1 5.1 30 9.8 44.5 1.5 4.7 2.2 9.8 5.4 14 8.9 28.5 18.7 56.6 34.1 82.4 1.4 2.3 1.2 3.2-1.5 4.1-7 2.2-13.9 4.7-20.8 7.2-1.5.6-2.4.6-3.2-1.1-17.8-32.9-32.3-67.2-40.2-103.9-5-23.3-8.1-46.9-6.8-70.7 1.8-34.7 10-67.8 29.8-96.8 20.9-30.8 47.6-55.4 81.9-70.9 6.4-2.9 13.1-5.2 19.9-7.1 1.1 1-.9 2.7.8 3.3 1 .3 1.3-.9 1.6-1.7 3.5-11.1 12.3-17.1 21.9-22.2 1.2-.6 2.5-1.2 3.7-1.8.4-.2.9-.3 1.7-.6-.8 4.3-2 8.3-2.4 12.5-.3 3 0 6 .4 8.9.5 3.5 2.3 6.1 6 7.4 6.8 2.4 13.8 3.2 20.8 3.9 5 .5 4.9.4 4.5 5.2-.3 3.6-1.3 7.1-.9 10.8.2 2.2-1.2 1.9-2.6 2.1-7.2 1.1-14.6.9-21.6 3.7-5 2-6.7 4.6-6 10.1.7 5.6 3 10.5 5.7 15.3-.8 1.2-1.9.6-3 .5-3.8-.4-7.5-1.4-11.3-1.2-.5-.5-.9-.8-1.4-1z"/><path fill="#56B0A4" d="M586.2 707.7c-2 0-1.8-1.7-2.2-2.9-1.6-4.8-3.1-9.7-4.7-14.5-.3-.9-.4-2.4-1.6-2.1-1.8.5-.5 1.9-.2 2.7 2 4.8 3.3 9.9 4.6 14.9.6 2.3 1.7 3.5 3.9 4.4 9.3 3.4 18.5 7.3 27.1 12.3 1.2.7 2.3 1.4 3.4 2.3 7 5.2 7.3 6.3 3.3 14.2-1.8 0-2.5 1.5-3.5 2.6-9.9 10.2-19.9 20.1-32.1 27.5-6.4 3.9-6.3 4-1.1 9.6 1 1.1 2.3 2.1 1.2 3.8-1.4 2.3-2.2 5-3.5 7.4-4.1 7.3-9.2 13.8-14.1 20.5-2-8.1-2.9-16.3-4.3-24.5-5.9-35.4-11.7-70.9-17.6-106.3-4.9-28.9-6.5-58.1-5.8-87.4.3-12.6.9-25.1 3.1-37.5.4-2.2.9-4.3 2.2-6.7 2.5 4.8 5 9.6 7.4 14.3 10.6 20.8 17.5 43 24.7 65.1 4.9 15 8.9 30.3 12.3 45.7.6 2.5.8 5.1 1.2 7.6-2 9-2.5 18-3.7 27z"/><path fill="#56AFA3" d="M289.5 485.1c-2.8 13.5-5.4 27-6.9 40.8-2.8 25.8-.1 51.1 6.6 76.1 5.6 21.1 13.6 41.3 23.7 60.6 2 3.8.4 7.2.1 10.8-.1 1.1-1.4 1.2-2.3 1.5-3.8 1.2-7.6 2.3-11.3 3.7-2.2.9-3.2.3-4.4-1.7-11.4-19.1-19.9-39.5-27-60.5-9.9-29.3-15.2-59.4-15.9-90.4-.2-10.9 2.7-21.2 5.5-31.5 5.6-20.7 13.2-40.6 24.1-59.2 1-1.7 2.2-3.3 3.3-4.9.7-.2.9-.7.9-1.4l.6-.9c.5-.7 1-1.4 1.6-2.1 2.3-.2 3.2-2.2 4.4-3.7 4.4-5.2 9.4-9.5 15.3-12.9 1.1-.6 2.3-1.2 3.5-.2 1.3 1.1.5 2.3.1 3.4-2.1 5-4.1 10.2-6.5 15-7.8 15.2-12.8 31.2-14.9 48-.6 3.1-2.4 6.3-.5 9.5zM642.9 412.7c7.8 10.9 13.1 23.1 18 35.5 7.1 18.4 10.5 37.8 13.5 57.2 5.1 32.2 5.3 64.7 5 97.2-.1 5.8-2.7 11.1-4.3 16.6-7 24-14.3 47.9-23.1 71.3-.3.9-.7 1.8-1 2.6-.4 0-.9-.1-1.3-.1 0-9.9-.1-19.7 0-29.6.2-16.2.5-32.3.8-48.5.4-19.5 1.3-39.1.5-58.6-.7-17.8-2.3-35.5-6.4-52.8-.5-2.3-.6-4.7-.9-7 1.2-1 .7-2.3.7-3.5.1-8.7-.3-17.3-1.4-26-2.4-18.7-6.5-37-12.6-54.9-.4-1.2-1.7-2.5-.4-3.8 1.4-1.3 2.8 0 4.1.5 3.1.8 5.5 3.2 8.8 3.9z"/><path fill="#56AFA3" d="M269.4 712.1c-6.2-2.2-11.2-6.3-16.5-10.1-1.8-1.3-1.3-2.1.2-3.3 4.8-3.7 10.6-5.4 16.2-7.4 17.4-6.2 34.9-12.2 52.4-18.2 4.9-1.7 8.2-5.5 11.7-9 .8-.8 1.5-2.1.3-2.9-1.5-1-1.3.8-1.7 1.4-1.6 2.2-3.7 3.9-6.2 5.7-.7-1.5-.2-2.6.1-3.8 7.3-32.3 17.7-63.6 29.8-94.4 1.5-3.8 3.5-7.4 6.1-10.6.8-.9 1.7-2.5 3.3-1.9 1.3.5 1.3 2 1.6 3.2 1.3 6.3 1 12.6.9 19-.1 12-1.3 24-2.7 35.9-1.1.2-1.1 1.2-1.3 2-7.4 26.7-13.5 53.8-21.6 80.3-2.5 8.1-5.3 16-8.9 23.7-.6 1.4-1.1 2.7-3.2 2.3-17-2.7-34.1-4.6-50.5-10-3.2-1-6.4-2.8-10-1.9zM390.4 236.3c2-.2 3.2 1.8 5 2.1 1.9.4 2.9 0 2.5-2.2-2.1-11.1-5.3-21.8-14-29.8-1.1-1.1-2.5-2-2.5-4 .3-12.7.6-25.4 7.4-36.8 4.2-7 9.3-12.7 18.6-11.9 5.6.5 10.6 2.6 15.1 5.9 13.1 9.6 21.5 22.9 28.4 37.3 3 6.4 3 6.5-3.1 9.7-7.3 3.8-8.8 11-10.3 18-.7 3.1-.7 6.4-1.2 9.6-.5 3 .8 3.5 3.4 2.8 5.3-1.4 10.5-3.1 15.4-5.6.9-.4 1.6-1.2 3.1-.9-1.8 12.6-2.3 25.4-10.3 36.3-.4.6-1 1.1-1.5 1.6-.6.1-1.2.1-1.3.9-3.1.9-6.3 1.7-9.4 2.6-2.9-1-5.8-.1-8.7-.5h.1c-1.2-1.2-2.8-.5-4.2-.7-.5 0-1 .2-1.4 0-13.6-8.6-24.6-19.5-31.1-34.4zm15.7-53c.5-5.7-.4-11.2-1.3-16.7-.2-1.3-.5-2.7-2-2.7-1.4 0-2 1.2-2.4 2.5-4.7 13.2-5.6 27-5 40.8.9 21.5 11.2 39.4 23.2 56.4 1.1 1.5 2.4 2.9 3.8 4 1 .8 2.1 2.2 3.6 1.3 1.5-1 .4-2.6.1-3.8-3.2-10.1-6.7-20-9.8-30.1-5.3-16.9-10-33.9-10.2-51.7z"/><path fill="#914221" d="M643.8 723.4c2 .8.9 3.3 2.6 4.6 6.4-14.9 16.4-27.5 26.1-40.3 7.1-9.3 14.1-18.6 20.4-28.4.4-.6.8-1 1.4-1-1.3 6.6-3.8 12.8-6 19.1-9.5 26.4-17.9 53.2-22.5 80.9-3.4 20.6-5.1 41.3.3 62 4.7 17.6 14.4 32.3 25.2 46.5l3.3 4.5c-.4 0-.8.1-1.1 0-12.2-4.5-23.4-11-32.4-20.5-9.3-9.9-15.9-21.8-21.4-34.2-1.8-4.1-2.5-8.8-5.3-12.5-.9-7.4-.6-14.9-.2-22.3.9-16.2 3-32.3 6.6-48.2.8-3.5 1.1-7.1 3-10.2zM540.1 783.1c1.3 2.6 2.8 5.2 4 7.9 3.6 8.3 8.1 16.2 13.2 23.6 1.5 2.1 2.5 1.9 4 .4.9-.8 1.6-1.9 3-2.1 2.2 10.8 3.2 21.8 4.7 32.8 2.2 16.5 3.7 33.1 5 49.6 1 13 1.8 26 1.8 39.1 0 3.1.3 6.2.7 9.3.2 1.5.5 3.6 2.5 3.7 1.6.1 2.4-1.6 3-3 1.6-3.9 2.5-8.1 3.3-12.2 3-15.6 4.8-31.4 6.3-47.2 2.1-22.3 3.4-44.6 5-66.9.7-10.2 1.1-20.3 1.6-30.5.3-5.2.6-10.4.8-15.6.1-3.3 3-4.2 4.6-6.3 1.2.5.7 1.3.8 2 .3 17.4-.1 34.8-1.1 52.2-2 37.5-5.7 74.7-13.2 111.6-2.2 10.9-5.1 21.5-9.7 31.6-.5 1-.8 2.1-1.4 3-1.4 2.1-3.1 4.4-5.7 4.4-2.4 0-2.8-2.9-3.6-4.8-4.4-10.8-6.5-22.1-8.7-33.5-3.5-17.4-6.3-34.9-8.7-52.5-2-14.5-3.7-29.1-5.5-43.6-1.9-15-3.8-30-5.6-45.1-.6-2.5-.8-5.2-1.1-7.9z"/><path fill="#357172" d="M269.4 712.1c3.6-.9 6.8.9 9.9 1.9 16.4 5.4 33.5 7.4 50.5 10 2.1.3 2.6-1 3.2-2.3 3.6-7.7 6.4-15.6 8.9-23.7 8.1-26.5 14.2-53.6 21.6-80.3.2-.8.2-1.8 1.3-2-1.6 13.4-2.9 26.9-6.1 40-5.1 21-8.7 42.3-10.7 63.8-1.5 16.1 3.7 30.5 9.9 44.9 10.2 23.5 21.7 46.4 32.8 69.4 6.8 14.1 14 28 19.9 42.5.6 1.4 1.6 2.8 1.3 4.5-1.6 0-2.1-1.3-2.8-2.2-18.8-23.1-35.2-47.8-51.4-72.8-12.3-18.9-24.6-37.7-35.3-57.5-.9-1.7-1.6-3.6-2.4-5.5.2-.2.4-.3.6-.5 2 .9 2.7 2.7 3.7 4.5.4.8.5 2.3 1.9 1.7 1.5-.7.6-1.9.1-2.9-1.9-4.2-5.4-6.7-9.3-8.7-7.3-3.7-14.6-7.4-21.9-11-8.1-4-16.1-8.2-23.9-12.7-.8-.1-1.6-.3-1.8-1.1z"/><path fill="#56AFA3" d="M693.3 748.5c4.6 8 9 16 14.2 23.6 25.5 37.3 60.6 59.2 105.1 66.1 9.5 1.5 19 2.5 28.5 3.8 1.4.2 2.7.4 4.1 1.3-1.9 1.7-4.2 2.6-6.5 3.1-11.3 2.8-22.9 3.7-34.4 3-25.7-1.5-49.9-8.3-72.8-20-19.2-9.8-35.1-23.5-47.9-40.8-.7-1-1.3-2.1-1.9-3.2-.1-7.7-2.7-15.2-1.6-23.1 1.1-8 5.2-12.9 13.2-13.8z"/><path fill="#DE5841" d="M397.4 569.5c-4.7-.6-8.4-3.4-12.5-5.5-2.7-1.4-3.8-.8-5 1.8-4 8.8-6.8 18-9.6 27.3-.3 1-.4 1.9-1.4 2.5v-1.3c.1-.3.2-.7.3-1 .2-9.2 1.4-18.4.3-27.6-.1-1.2-.2-2.5-.5-3.7-.7-2.6-1.1-6.2-4.1-6.5-2.7-.2-5.1 2.4-6.5 4.9-4.5 7.5-7.8 15.5-10.8 23.7-9.8 26.8-18 54-24.1 81.8-1.1 5-4 6.2-7.9 7.2-.7-20.7 33.3-141.9 44.9-160-.5 4.9-.5 9.3.3 13.9 1.9-.8 1.5-1.9 1.5-3-.4-25.9 4.9-50.6 16.7-73.7 2.7-5.3 6.3-10.1 11.2-13.8 5.4-4.1 6.3-4 10.6 1-2.5 1.4-4.8 3.1-7.6 3.9-3.2.7-3.8 3.7-4.9 5.9-12.9 24-16.1 49.8-13.1 76.5 2.1 17.5 10.6 32.4 22.2 45.7z"/><path fill="#3E4141" d="M516.9 378.2c7.7 7.3 16.1 13.6 26.8 17.5-8.8 4-17.1 7.4-25.7 10.1-10.4 3.2-17.9 12.3-18.5 23.2-.3 5.8-.9 11.6-1.4 17.4-.5 5.5.1 11 1.1 16.3.8 4.5 4.9 7.6 7.6 11.3.4.5.8.9 1.5 1.7-7 2.9-13.3 6.8-18.8 11.7-1.5 1.4-2.5.7-3.1-.9-3.8-12.1-9.6-23.6-9.6-36.9-.1-10.9-.3-21.8-1.8-32.7-.4-3.2-2.3-5.1-4.2-7.2-4.5-4.9-9.3-9.7-10.9-16.6 19.7-2.3 38.8-7.1 57-14.9z"/><path fill="#914221" d="M487.7 537.5c-2.8 9.3-5.8 18.4-7.1 28.1-.7 5-1.9 10-.6 15.1.4 1.6-.3 2.1-1.9 2.3-26.8 2.7-50.4-4.2-69.1-24-11.2-11.9-16.8-26.8-16.8-43.4 5.9 12 15.2 18.1 28.8 17.2 1.5 3.5 4.3 6 7 8.6 2.9 2.7 6.8 2.1 10.2 2.6 5.2.8 10.4-.1 15.5-.8 3.6-.5 6.4-2.5 8.2-5.8 2.3.6 4.6.7 7 .8 6.3.2 12.5-.4 18.8-.7z"/><path fill="#357172" d="M566.7 810.4c4.9-6.7 10-13.2 14.1-20.5 1.3-2.4 2.1-5 3.5-7.4 1.1-1.8-.2-2.7-1.2-3.8-5.2-5.6-5.2-5.7 1.1-9.6 12.2-7.5 22.2-17.4 32.1-27.5 1-1 1.7-2.5 3.5-2.6-.1 2.2-.9 4.2-2.1 5.9-7.7 10-15 20.5-25.6 27.9-1.4 1-2.3 2.2-2.7 3.9-1.7 7.2-3.5 14.5-5.2 21.7-.2 1-.9 2.6.4 2.9 1.4.4 1.4-1.3 1.6-2.3 1.5-6.2 3.1-12.3 4.4-18.5.7-3.5 2-6.3 6.2-8.3-3.6 57.7-4 115.3-17.1 171.8-1.7-1.9-1.7-4-1.7-6.1 0-22.4-1.7-44.7-4-66.9-1.9-18.6-4.3-37.2-7.1-55.7-.2-1.6-.2-3.2-.2-4.9z"/><path fill="#914221" d="M309 736.1c3.8.9 6.7 2.7 8.3 6.5 4 9.1 9.1 17.7 14.5 26 4.9 7.6 8.5 15.5 9.2 24.8.8 9.7 2.2 19.3 2.1 29-.2 15.8-2.6 31.4-7.4 46.5-6.3 20-15.6 38.4-28.9 54.7-1.2 1.5-2.8 4.2-4.3 3.4-2-1-.2-3.6.4-5.3 6-16.8 10.4-33.9 13.3-51.5.7-4 1.2-8.1 1.7-12.1 3.6-9.3 5.4-19 6.1-29 1.1-3.1.4-6.3.7-9.4l.1-.2c1.3-10.9.1-21.6-2.2-32.3 0-.6 0-1.3-.1-1.9-2.6-14.9-6.8-29.5-12-43.7-.8-1.6-1.7-3.4-1.5-5.5z"/><path fill="#3E4141" d="M438.9 486.3c.2-5.8 2.3-11.2 4.5-16.5 5.4-13.3 6.6-27.1 5.2-41.2-.4-4.2-3-7.6-4.3-11.5-1.2-3.6-2.4-7.3-3.5-11-.4-1.1-.4-2.3 1.1-2.6 6.4-1.3 11-5.3 15.4-10.4 1.7 7.2 5.8 12.5 10.6 16.9 4.4 4 5.1 8.7 5.5 13.9.7 9.2.8 18.4.9 27.6.2 10.8 4.5 20.8 7.9 30.9.7 2 1.3 4 2.3 5.9 1.7 3.4.8 5.7-2.4 7.3-15.3.6-29.5-3.4-43.2-9.3z"/><path fill="#914221" d="M453.8 263.1c2.8-.7 4.6-2.8 6.6-4.6 8.2-7.4 15.8-15.4 22.7-24 2.7-3.4 6.9-4.9 10.5-7 16.4-10 32.6-20.5 48.1-31.8 11.8-8.6 23.1-18 34.7-26.9 10.7-8.2 20.3-17.9 32.1-24.7 3.7-2.2 7.5-4.4 11.9-4.9-4.4 5.7-9.9 10.5-14.9 15.6-33.9 35-71 66.4-111.3 93.9-6 4.1-10.6 10.1-16.5 14.5-11.2 8.1-23.6 12.4-37.5 13.4 5.4-3.5 9.9-7.7 12.8-13.4.4.3.6.7.8-.1z"/><path fill="#357172" d="M642.9 412.7c-3.2-.6-5.6-3.1-8.7-4.1-1.3-.4-2.7-1.8-4.1-.5-1.3 1.2 0 2.6.4 3.8 6.1 17.9 10.3 36.2 12.6 54.9 1.1 8.6 1.5 17.3 1.4 26 0 1.2.5 2.5-.7 3.5-2-8-4-16.1-6.1-24.1-5.5-21.2-15.4-40-29.6-56.7-12.6-14.8-27.5-27-44.8-35.9-3.5-1.8-4.9-8.3-3.7-10.8 1-2.1 3.5-2.8 5.8-2.4 21.9 3.4 42.5 10.2 60.6 23.2 2.9 2.1 4.7 5.1 6.8 7.8 3.6 5 7.4 9.7 10.1 15.3z"/><path fill="#E05841" d="M634.4 804.1c2.9 3.7 3.5 8.3 5.3 12.5 5.5 12.4 12.1 24.3 21.4 34.2 8.9 9.6 20.1 16 32.4 20.5.3.1.7 0 1.1 0 4.6 5 9 10.3 13.9 15 12.2 11.9 24.7 23.5 37 35.3 4.1 3.9 8.4 7.6 11.3 12.9-3.3.9-5.8-.2-8.4-1-25.4-7.9-47.1-22.2-66.6-40-13.8-12.6-26.5-25.9-34.7-43-7.1-14.7-11.2-30.2-12.7-46.4z"/><path fill="#357172" d="M282.7 789.7c4.5-10.1 8.8-20.3 10.9-31.2.8-4 1.2-8 1.5-13.2 3.3 5.8 5 11 6.8 16.2 3.5 10.1 6.4 20.4 8.8 30.8.4 1.7.3 3.1-.6 4.6-21.8 40.4-53.4 69.8-96.8 85.8-1.9.7-3.7 2-6 1.9.3-1.5 1.6-1.9 2.6-2.4 8.6-4.7 16.7-10.3 24.7-16 8-5.6 15.5-11.6 21.8-19.1 10.7-12.6 18.7-26.9 24.9-42.1 2.2-5.5 4.5-10.9 6-16.7-2-.4-2.8 1.9-4.6 1.4z"/><path fill="#3E4141" d="M446.5 310.3c2.2-3.9 5.1-7.3 8-10.7 5.4-6.2 7-13.3 5.7-21.1-.3-2-.3-3.3 1.8-4.1 11.3-4.2 20.6-11.3 29-19.7.3-.3.7-.5 1.6-1.1.1 7 0 13.5 1.4 19.9 1.5 7 3.7 13.4 9.8 17.7 1.9 1.3 1.8 3.1 1.1 5-1.2 3-3.3 5.1-6 6.9-6.4 4.3-13.8 6.1-20.6 9.4-2 1-4 1.9-6 2.9-8.5-1.8-17.1-3.5-25.8-5.1z"/><path fill="#357172" d="M289.5 485.1c-1.9-3.1-.1-6.3.3-9.3 2.1-16.9 7.2-32.9 14.9-48 2.5-4.8 4.4-10 6.5-15 .5-1.1 1.2-2.4-.1-3.4-1.2-1-2.4-.4-3.5.2-5.9 3.4-10.9 7.7-15.3 12.9-1.2 1.5-2.1 3.4-4.4 3.7 3-6.2 8-11 12.1-16.4 11.4-15 27.7-22.7 44.6-29.3 3.2-1.3 6.8-3.7 9.7-3.1 2.8.6 2.6 5.6 4.5 8.3.1.1.1.2.2.3.8 2.3 4.4 3.9 3.3 6.1-.9 1.9-4 2.7-6.1 4-33.2 19.7-53.8 49-65.2 85.4-.3 1.2-.3 2.6-1.5 3.6z"/><path fill="#3E4141" d="M415.8 473.5c1.2-5.7 4.5-10.8 4.6-16.8.3-10.8.7-21.5-2.3-32-.7-2.4-.9-4.5-.1-6.9 1.7-5.6 2.4-11.4 5.2-16.6 1-1.9 1.9-2.4 3.6-1.1 1.6 1.3 3.5 2.4 5.4 2.4 5.1.1 6.6 3.3 7.4 7.5.9 4.5 2.7 8.7 4.6 13 3.5 8 2.6 16.6 2.1 25-.8 12.8-7.1 24.2-10.3 36.3-7.6-1.9-14.2-5.8-20.2-10.8z"/><path fill="#605C5F" d="M521.9 299.7c6.4 2.2 12.8 4.4 19.7 6.9-4.6 3.2-9 5.7-12.6 9.4-4.2 4.2-7.9 8.6-9.5 14.5-.5 2-2 2.6-3.7 3.3-8.8 3.7-18.2 5-27.4 7-7 1.5-14.2 2.5-21.2 3.7-1.7.3-2.9.1-3.8-1.9-2-4.3-3.3-8.9-6.5-12.5-.6-.7-.5-1.4.2-1.9 7-5.3 13.7-11.2 22.7-13 3.8.1 7.7.5 11.5.2 8.4-.7 16.7-2.1 23.7-7.4 2.9-2.2 6.4-4.1 6.9-8.3z"/><path fill="#914221" d="M258.7 594.9c-3.2-4.1-3.9-9.2-5.4-14-4.6-14.5-8-29.4-9.8-44.5-1.7-14.8-1.9-29.5.2-44.4 4-28.5 16.8-52.7 34.7-74.6 18.5-22.5 41.6-38.6 68.8-48.7 6.5-2.4 4.7-2.7 7.9 3.1.4.8.8 1.6 1.1 2.3-14.2 4.6-28.1 10.1-40.7 18.3-22.6 14.8-40.2 34.3-52 58.7-9.9 20.5-13.9 42.2-13.8 65 .1 26.1 2.5 51.8 9 77.1.2.4 0 1.1 0 1.7z"/><path fill="#56AFA3" d="M282.7 789.7c1.8.5 2.6-1.9 4.7-1.5-1.5 5.8-3.7 11.3-6 16.7-6.2 15.3-14.3 29.5-24.9 42.1-6.3 7.5-13.9 13.5-21.8 19.1-8 5.6-16.1 11.2-24.7 16-1 .6-2.4 1-2.6 2.4-12.7 5.5-26.1 7.3-40.3 8.5 2.2-3.6 5.2-4.8 8.1-6.1 19.1-8.8 37-19.8 53.9-32.4 21.9-16.5 39.1-37 51.7-61.3.4-1.2 1.2-2.3 1.9-3.5z"/><path fill="#605C5F" d="M438.9 486.3c13.8 5.9 28 10 43.1 9.3-.4 2.5-2.3 4-3.6 5.9-7.5 10.8-14.8 21.7-18.4 34.5-.3 1.2-.9 2-2.2 2-1.1-1.1-2.6-.4-3.9-.8 0-.7-.3-1.3-1-1.3-4.4.2-8.7-1.7-13.2-.7-5-13.9-5.3-28-2.5-42.3.4-2.2.2-4.6 1.7-6.6z"/><path fill="#914221" d="M589.3 665.8c1.2-1.4 1.4-3.2 1.3-4.9-.2-7.2.4-14.4.9-21.5 1.1-15.7.6-31.5.9-47.3.1-4.4.3-8.9-.7-13.4 2.6.2 2.8 2.9 4.6 3.6 3.4 23.4 6.6 46.9 8 70.5.6 10.2 1 20.3 1.5 30.5.6 9.8-.5 19.6-.2 29.4.1 3.3-1 3-3.4 2-2.8-1.2-4.2-2.8-4.6-5.9-2.1-14.4-4.9-28.8-8.3-43zM519.6 376.9c2.7-1.5 5.4-3 8.1-4.6 4.2-2.4 8.3-4.9 11.5-8.7 5.6-6.7 12.6-8.5 21.3-7.3 16.8 2.2 31.8 8.6 45.9 17.5 1.2.7 2.9 1.1 3 3-1.1.2-1.9-.3-2.8-.7-12.9-6-26.5-9.8-40.7-11.4-5.2-.6-8.3 2-8.8 6.6-.4 4.4 1.6 8.4 5.5 10.5 1.6.9 3.2 1.8 5 2.9-1.3 1.8-3.2 2.1-4.8 3-1 .5-2.2.7-3.1 1.3-10 7.2-19.3 4.6-28.3-1.9-4.2-3.1-8.4-6.2-11.8-10.2z"/><path fill="#E05841" d="M487.7 537.5c-6.3.3-12.5.9-18.9.6-2.4-.1-4.7-.2-7-.8 2.4-9.7 7.3-18.2 12.7-26.4 3.5-5.4 6.8-10.9 11.5-15.4 3.2.6 6-.7 8.7-1.9 6.8-3 13.4-6.3 15.9-14.2 2.2 1.5 3.2 4.1 4.8 6.1 1.4 1.7-.2 2.8-1 3.9-9.4 12.8-17.5 26.3-23.7 40.9-.9 2.4-2 4.8-3 7.2z"/><path fill="#DE5841" d="M309 736.1c-.2 2.1.7 3.9 1.4 5.7 5.2 14.2 9.4 28.8 12 43.7.1.6.1 1.2.1 1.9.1 1.5 0 3 .2 4.4 1.2 9.3 2.5 18.5 2 27.9l-.1.2c-1.4 3 0 6.3-.7 9.4-.7 9.9-2.5 19.6-6.1 29l-.1-.2v-.9c2.9-40.2-5-78.4-21.6-114.9-2.6-5.6-6-10.8-9.1-16.2.2-.2.4-.4.5-.6 7.3 3.2 14.8 6.2 21.5 10.6z"/><path fill="#605C5F" d="M381.4 329.6c-.1-4.3.7-8.9 2.3-13.4.6-1.8 1.7-2.8 3.6-3.3 9-2.8 17.9-5.8 26.9-8.7.9-.3 1.9-1.2 2.8-.4 1 .9-.1 1.9-.4 2.7-.8 2.2-1.3 4.5-1.7 6.8-.9 5.1-.1 9.7 4.2 13.1 1.3 1.1 2 2 .6 3.6-3.4 4-5.6 8.8-7.3 13.7-.4 1.2-.6 2.4-2.4 2.1-6.5-1.1-13-1.8-19.4-3.2-8.2-1.6-9.2-3.4-9.2-13zM415.8 473.5c6 5 12.6 8.8 20.1 10.8-.7 5.7-1.3 11.3-2.2 17-1.8 11.6.2 22.8 3.3 33.8-3.9.3-7.7-1.4-11.7-.6-.9-.8-2-1.3-2.6-2.4-8.6-14.6-12.8-30.4-13.1-47.4 0-4.9 2.7-8.2 6.2-11.2zM436.7 341.6c-3.6 6.5-6.6 13.3-7.6 20.8-2.3 17.8 5.3 28.9 23.3 32.6-3.1 3.2-6.6 5.1-10.7 5.7-8.9 1.3-15.9-2.2-21-9.3-7.5-10.4-9.8-22.2-8.4-34.7.6-5.4.7-10.9 3.5-15.9 3.9 0 7.8-1.3 11.8-.8 3.1.6 6 1.7 9.1 1.6zM516.9 378.2c-18.2 7.9-37.3 12.6-57 15-.5-1.3-.9-2.5 0-3.9 3.8-6.1 5.6-12.9 6.6-19.9.3-1.9.9-2.5 2.8-2.5 10.4.3 20.8.7 31.1 1.8 6.9.7 12.4 3.9 16.5 9.5z"/><path fill="#605C5F" d="M389 396.1c-4-5.9-7.4-12-7.1-19.6.1-2.6 1.3-4.2 3.6-5 7.2-2.5 14.7-3.5 22.2-3.8 2.8-.1 2.5 2.1 2.7 3.5 1 5.8 2.5 11.3 5.3 16.5 1.5 2.8 3.3 5.2 5.3 7.6.6.8 1.5 1.5.3 2.4-10.8.2-21.5-1-32.3-1.6z"/><path fill="#DE5841" d="M345.1 149.3c3.3.4 6 2.3 8.8 3.9 9.2 5 18 10.6 26.5 16.8 2.2 1.6 3 3.3 2.5 6-1.1 5.3-1.9 10.7-3 16.8-5.2-5.6-9.8-10.7-14.5-15.8-1.2-1.3-2.5-2.4-3.8-3.6-.7-.6-1.3-2-2.4-1-.9.8 0 1.8.4 2.7 4.2 9.8 11.5 17.7 17.5 26.3 2.9 4.2 3.3 8.6 3.6 14.5-2.4-2.9-4.4-5-5.9-7.3-12-18.1-21.6-37.4-29.8-57.5-.2-.4-.1-1-.2-1.5l.3-.3z"/><path fill="#357172" d="M693.3 748.5c-8 .9-12.1 5.8-13.1 13.8-1.1 7.9 1.5 15.4 1.6 23.1-5.9-7-10-15-13.8-23.3-1.2-2.7.6-5.8 1.1-8.7 2.6-15.1 6.4-29.8 10.9-44.4.2-.6.5-1.1 1-1.7 1.9 14.5 6.6 28 12.3 41.2z"/><path fill="#DE5841" d="M421 532.8c-13.6 1-22.9-5.2-28.8-17.2-.6-11.4 4.4-22.2 14.7-31.3.4 4 .7 7.7 1.1 11.5 1.5 13.3 6.3 25.5 13 37z"/><path fill="#BDB6D9" d="M458.5 337.1c1.4 3 3 5.9 4.3 8.9.5 1.2 1.2 2.5.2 3.8-5.9 2.9-7.8 8.8-10.5 14.2-3.1-3.2-3.3-7.3-4.5-11.3-2.5 3.3-3 6.8-4.1 10.4-1.3-.4-3.2-2.8-3.4.8-.4 1.4-1 2.8-1.3 4.2-1.4 8.6 2.1 12 10.6 10.3.2 0 .5.1.7.2 0 .2.1.5 0 .7-1.2 3.2-1.8 7.7-5.4 8.3-3.7.7-5.9-3.2-7.7-6.1-7.1-11.6-3.6-22.7 2.4-33.4 3.9-7.3 10.1-11.4 18.7-11z"/><path fill="#7660A6" d="M458.5 337.1c-8.7-.4-14.8 3.7-18.8 11-6 10.7-9.5 21.8-2.4 33.4 1.8 2.9 4 6.8 7.7 6.1 3.6-.6 4.2-5.1 5.4-8.3.1-.2 0-.5 0-.7-.2-.1-.5-.3-.7-.2-8.5 1.7-12-1.7-10.6-10.3.2-1.4.8-2.8 1.3-4.2.3 2.4-.8 5.6 1.6 6.9 1.7.9 2.6-2.1 4.1-3 .2-.1.5-.1.9-.3-.3 4.5 1.7 2.9 3.8 1.6 1.3-.8 2.4-2.7 4.2-1.7 2.5 1.4 3.4 4.2 4.5 6.7.8 1.8-.7 2.3-2 2.9-.6.2-.5.8-.2 1.3 2.1 2.7-.5 2.7-1.9 3.3-1.5.7-3.4.5-5 1.7 1.3 1.4 3.7 3.8 3.6 4-3.1 3.5 1.4 2.5 2.1 3.6-.6 1.8-2 1.8-3.6 1.7-12.1-.7-20.9-9.5-21.6-22.5-.6-10.7 2.4-20.5 9.2-28.8 3.7-4.6 8.6-7.5 14.9-7.2 2.1.1 3.3.9 3.5 3z"/><path fill="#3E4141" d="M436.7 341.6c-3.1.1-6-1-9.1-1.5-4-.6-7.8.7-11.8.8 2.9-6.8 6.7-12.7 13.5-16.2 9.2-4.8 20-1.6 25.6 7.1-7.8 0-13.6 3.9-18.2 9.8z"/><path fill="#605C5F" d="M443.9 308.8c-1.2 3.2-2.4 6.5-3.7 9.7-.4 1-1.1 1.5-2.3 1.6-5 .2-9.5 1.7-13.4 4.9-1.6 1.3-2.9.9-4.3-.2-2.8-2.3-4-5.4-3.6-8.9.4-3.3 1.2-6.6 2.4-9.7 1.2-3.5 3.4-5.7 7.2-6.1 5 4.7 11.2 7 17.7 8.7z"/><path fill="#3E4141" d="M443.9 308.8c-6.5-1.7-12.7-4-17.6-8.8 6.3-3 12.8-5.3 19-9.3.6 2.9-.9 4.7-2 6.7-.3.5-.6 1.2-.1 1.7.8.7 1.4 0 1.9-.5 2.4-2.1 2.6-5 2.9-7.8.3-2.3 0-4.7.1-7.1.1-1.8-1-4.3.7-5.2 2.3-1.3 5.1-1.7 7.8-2.3 1.3-.3 1.1.9 1.2 1.8.9 8.5-.6 16.3-7.1 22.6-2.6 2.4-3.9 6-6.8 8.2z"/><path fill="#605C5F" d="M456.2 390.8c-.7-1.1-5.2-.1-2.1-3.6.1-.2-2.3-2.6-3.6-4 1.6-1.2 3.4-1 5-1.7 1.4-.6 4-.6 1.9-3.3-.3-.4-.4-1 .2-1.3 1.3-.6 2.8-1 2-2.9-1.1-2.5-1.9-5.3-4.5-6.7-1.8-1-2.9.9-4.2 1.7-2.2 1.3-4.1 2.9-3.8-1.6-.5.1-.7.2-.9.3-1.5.9-2.5 3.9-4.1 3-2.4-1.3-1.3-4.5-1.6-6.9.2-3.6 2.1-1.2 3.4-.8 1.1-3.5 1.6-7.1 4.1-10.4 1.2 4 1.5 8.1 4.5 11.3 2.8-5.4 4.7-11.3 10.5-14.2 2.2 3.7 1.9 7.9 1.9 11.8 0 10.6-2.3 20.7-8.7 29.3z"/><path fill="#3E4141" d="M521.9 299.7c-.6 4.2-4 6.1-6.9 8.2-7 5.3-15.3 6.7-23.7 7.4-3.8.3-7.7-.1-11.5-.2 3-3.4 7.6-3.7 11.5-5.6 3.1-1.5 6.3-2.9 9.3-4.6 3.6-2.1 6.1-5 7-9.1.3-1.3.5-2.6 2.3-1.7 3.9 2.1 8.3 3.1 12 5.6zM389 396.1c10.8.6 21.5 1.8 32.3 1.7-2.5 6.3-4.4 12.9-5.7 19.8-1.5-1.4-2.8-2.6-4.1-3.9-2.4-2.4-5-5-8.2-5.6-7.2-1.4-10.7-6.6-14.3-12z"/><path fill="#914221" d="M481.7 574c.7 1 1.5 1.9 2.1 3 3.3 5.9 7.9 9 14.9 6.7.1 7.7 1.2 15.3 2.2 23-12.3-4.9-19.5-16.1-19.2-32.7z"/><path fill="#F9F9F9" d="M465.2 215.9c-.1 5.4-4.1 9.7-9.2 9.8-5.1.1-9.5-4.6-9.5-10 .1-4.8 4.6-9.2 9.5-9.2 5.1.1 9.3 4.3 9.2 9.4z"/><path fill="#605C5F" d="M446.5 310.3c8.7 1.7 17.3 3.4 26 5.1-5.6 3-11 6.3-15.7 10.5-1.2 1.1-2.2 1.2-3.5.1-2.9-2.4-6.1-4.2-9.8-5.1-1.5-.4-1.3-1.1-.9-2.2.9-3.1 2.3-5.8 3.9-8.4z"/><path fill="#914221" d="M510.8 479.5c-2.5 7.9-9.1 11.2-15.9 14.2-2.7 1.2-5.6 2.5-8.7 1.9.6-2.7 3-4.2 4.8-6 4.6-4.6 10-8.1 16-10.7 1.1-.6 2.8-2 3.8.6z"/><path fill="#357172" d="M586.2 707.7c1.3-9 1.7-18 3.7-26.9 2.6 7 3 14.4 4.4 21.6.6 2.9.8 5.8 1.3 9-3.5-.9-6.5-2.2-9.4-3.7z"/><path fill="#914221" d="M371 393.9c3.8-.2 7.5.8 11.3 1.2 1.1.1 2.2.7 3-.5l6.9 10.2c-.1.2-.2.3-.4.4-7.8-2.1-14.6-6.2-20.8-11.3z"/><path fill="#F9F9F9" d="M382.1 207.7c4.6 4.8 8.2 9.3 10.2 14.9.3.9.9 1.8-.1 2.7-1.1.9-1.8-.1-2.6-.5-3.7-1.7-6.1-4.4-6.3-8.7-.2-2.5-.7-4.9-1.2-8.4z"/><path fill="#3E4141" d="M453.8 537.3c1.3.3 2.8-.4 3.9.8-4.2 4.1-9.7 3.3-14.7 3.6-3 .2-2.3-3.8-3.2-5.9 4.7.5 9.3 1 14 1.5z"/><path fill="#56AFA3" d="m365.9 180.9 12.6 13.2c1.9 2 1 4.3 1.1 7.7-5.3-7.3-10.3-13.5-14.1-20.5l.4-.4z"/><path fill="#3E4141" d="M425.4 534.5c3.9-.7 7.7.9 11.7.6.6 2 1.2 4 1.8 6.2-5.9.3-11.1-.5-13.5-6.8z"/><path fill="#357172" d="M435.7 271.9c3.1-.9 6.3-1.7 9.4-2.6-8.7 8.5-13.8 8.2-21.9 2.1 1.3 0 2.6 0 3.9.1h-.1c2.8 1.3 5.8.4 8.7.4z"/><path fill="#7660A6" d="M453.8 537.3c-4.7-.5-9.3-1-14-1.5-.1-.1-.1-.3-.2-.4 4.5-1 8.8.8 13.2.7.7-.2 1 .5 1 1.2z"/><path fill="#BDB6D9" d="M427.1 271.4c-1.3 0-2.6 0-3.9-.1-.1-.2-.2-.5-.4-.7 1.5.3 3-.4 4.3.8z"/><path fill="#914221" d="M609.3 376.7c1.1-.2 2.1-.1 2.4 1.3-1.1.3-1.9-.2-2.4-1.3z"/><path fill="#E05841" d="M391.6 158.1c-.3.3-.4 1-.9.7-.4-.3-.1-.9.3-1.1.2.1.4.3.6.4z"/><path fill="#914221" d="M392.2 404.8c.3.2.6.4.8.6-.5.5-.8.2-1.2-.2.1-.1.3-.2.4-.4z"/><path fill="#357172" d="M320 743c-.3-.3-.7-.8-.3-1.1.5-.4.6.3.9.6-.2.2-.4.3-.6.5zM445.1 269.3c.1-.8.8-.8 1.3-.9-.4.3-.8.6-1.3.9zM285.9 429.1c0 .7-.3 1.2-.9 1.4 0-.7.2-1.2.9-1.4z"/><path fill="#F9F9F9" d="M639.5 402.6c-.2-.3-.5-.7-.7-1 .6-.4 1.1-.3 1.4.4-.3.2-.5.4-.7.6z"/><path fill="#914221" d="M369.7 393.2c.4.2.8.5 1.3.7-.5 0-1.1.1-1.3-.7z"/><path fill="#56AFA3" d="M365 180.2c.5-.1.7.2.9.6l-.4.4c-.2-.3-.3-.6-.5-1 .1 0 0 0 0 0z"/><path fill="#56AFA3" d="M365.1 180.2c-.2-.1-.3-.1-.5-.2l.3-.3c0 .2.1.3.2.5-.1 0 0 0 0 0z"/><path fill="#DE5841" d="M344.8 149.6c-.1-.2-.2-.3-.2-.5.2.1.4.1.6.2-.2.1-.3.2-.4.3z"/><path fill="#F9F9F9" d="M290.9 416.2c.1-.3.3-.7.7-.4.1.1-.1.5-.2.8-.2-.1-.3-.3-.5-.4z"/><path fill="#DE5841" d="M287.1 725.8c-.1-.2-.2-.5-.3-.7.3 0 .5.1.8.1-.1.2-.3.4-.5.6z"/><path fill="#914221" d="M369.2 593.2c-.1.3-.2.7-.3 1 .1-.3.2-.7.3-1z"/><path fill="#F9F9F9" d="M290.2 416.9c.3-.2.5-.5.8-.7l.5.5c-.2.3-.5.6-.7 1-.3-.3-.5-.6-.6-.8z"/><path fill="#F9F9F9" d="M290.7 417.6c-.3.3-.6.8-1 .3-.4-.6.2-.7.5-1 .1.2.3.5.5.7z"/><path fill="#E05841" d="M453.9 263.1c-.3.8-.6.4-.8 0h.8z"/><path fill="#357172" d="m286.5 428.2-.6.9.6-.9z"/><path fill="#56AFA3" d="M390.4 236.3c-.2-.1-.3-.3-.5-.4.1 0 .2-.1.3-.1.2.1.2.3.2.5z"/><path fill="#914221" d="M317.8 857v.9c-.5-.3-.4-.6 0-.9z"/><path fill="#357172" d="m412.7 882.1-.2.2-.2-.2c0-.1.1-.1.2-.2 0 .1.1.2.2.2z"/><path fill="#100D0C" d="M397.4 569.5c-11.6-13.3-20.1-28.2-22.1-45.9-3.1-26.7.2-52.5 13.1-76.5 1.2-2.2 1.8-5.2 4.9-5.9.5 1.4-.6 2.3-1.2 3.3-8.5 13.4-12.3 28.4-14.3 43.9-.9 6.8-1.5 13.6-1.5 20.4-.2 22.8 7.8 42.5 23 59.3.3.4.7.7 1 1.1.6.8 2.2 1.6.9 2.7-.9.8-1.7-.4-2.4-1.1-.5-.5-1-.9-1.4-1.3zM503 206c-2.2-.2-1.9-1.4-1-2.7 2.4-3.6 5.4-6.6 8.9-9 16.9-11.5 34.2-22.2 53.2-29.9l2.4-.9c.9-.4 2-1 2.8-.1.9 1.2-.3 2-1 2.9-5.9 7.5-13.6 13.1-21.5 18.2-12.8 8.2-25.8 15.9-40.4 20.5-1.1.4-2.2.7-3.4 1zm3.4-3.2c.9-.2 1.9-.4 2.8-.7 14.2-5.1 26.9-13.1 39.4-21.3 5.8-3.8 11.5-7.8 15.9-13.3.2-.1.3-.2.5-.4-.1 0-.3-.1-.4-.1v.5c-.6-.4-1.2-.1-1.7.1-15 7-30 13.9-43.8 23.1-4.9 3.3-9.2 7.2-12.8 11.8-.2.1-.4.2-.5.4l.2.2c.1 0 .2-.2.4-.3z"/><path fill="#F7A58B" d="M415.4 129c1-5.6 1.6-11.2 4.6-16.2 9.6-16.1 18.4-32.7 29.3-48 3.1-4.4 6.1-9 10.2-12.7-14.9 25.5-29.1 51.4-44.1 76.9zM414.9 131c-.1 0-.2.1-.2.1 0-.1-.1-.2-.1-.3l.2-.1c0 .1.1.2.1.3zM460.2 50.6l.2-.1-.1.2z"/><path fill="#100D0C" d="M406.1 183.3c.3 17.8 4.9 34.8 10.2 51.7 3.1 10.1 6.6 20.1 9.8 30.1.4 1.2 1.4 2.8-.1 3.8-1.4 1-2.6-.5-3.6-1.3-1.4-1.2-2.8-2.5-3.8-4-12-17-22.3-34.9-23.2-56.4-.6-13.8.2-27.6 5-40.8.4-1.2 1-2.5 2.4-2.5 1.5 0 1.8 1.5 2 2.7.9 5.5 1.8 11 1.3 16.7zm17.7 82.5c-10.4-31.9-22.1-63.4-20.2-97.8-.6 0-1.2.1-1.9.1-3 16.3-6.4 32.6-3.1 49.4 3.7 18.6 13.1 34.1 25.2 48.3z"/><path fill="#BDB6D9" d="M435.7 271.9c-2.9 0-5.9.9-8.7-.5 2.9.3 5.9-.5 8.7.5z"/><path fill="#F7A58B" d="M324.7 819.7c.5-9.4-.8-18.6-2-27.9-.2-1.5-.2-2.9-.2-4.4 2.3 10.6 3.5 21.4 2.2 32.3zM324 829.2c.6-3.1-.8-6.3.7-9.4-.3 3.1.3 6.3-.7 9.4z"/><path fill="#56AFA3" d="M564.5 167.5c-4.4 5.5-10.1 9.5-15.9 13.3-12.5 8.2-25.2 16.2-39.4 21.3-.9.3-1.9.5-2.8.7l-.2-.2c3.7-4.6 7.9-8.5 12.8-11.8 13.8-9.3 28.8-16.1 43.8-23.1.6-.3 1.1-.6 1.7-.2zM506.4 202.8c-.2.1-.3.3-.5.4 0 0-.2-.1-.2-.2.2-.1.4-.2.5-.4l.2.2zM564.6 167.5v-.5c.1 0 .3.1.4.1l-.4.4c-.1 0 0 0 0 0z"/><path fill="#7660A6" d="M423.8 265.8c-12.1-14.2-21.5-29.7-25.2-48.2-3.3-16.8.1-33.1 3.1-49.4.6 0 1.2-.1 1.9-.1-1.9 34.3 9.8 65.8 20.2 97.7z"/></g></switch></svg>