<svg xmlns="http://www.w3.org/2000/svg" viewBox="0 0 1000 1000" xml:space="preserve"><switch><g><path fill="#BF9BAD" d="M399.4 506.9c3.3.3 3.1 3.7 4.9 5.4 1.6 5.2 8.7 5.5 9.9 11.1 6.1-.7 10.2 4 15.3 5.9 9.8 3.5 19.9 5.7 30.8 6-3.9 7.8-7.4 15.1-9.9 22.8-3.6 11.2-5.6 22.8-8.2 34.2-1.4-.6-2.7-1.3-4.1-1.6-13-3.5-25.5-8.2-37.5-14.5-20.5-10.9-37.2-25.9-48.7-45.8-17.4-30.4-33.9-61.3-50.2-92.2-11-20.8-27.2-35.4-49.3-43.1-13.9-4.8-27.2-2.7-37.8 8.1-12.9 13.2-14.1 30.1-12.2 47.1 2 18.3 9.1 35.2 17.2 51.6.8 1.7 1.4 4.4 4.4 4.2.1.3.1.6.1.9-.2 1 .1 1.8 1.1 2.2 0 2.3 1.8 3.9 2.8 5.7 6.8 12.4 12.1 25.9 22.9 35.8 4.5 4.1 7.9 9.6 14.2 11.5l-.1-.1c-.1 1.4 1 2.1 1.9 2.8 9.2 7.1 18.4 14.2 27.7 21.2 9.5 7.2 20.1 12.8 28.8 21.2 5.5 5.3 10.9 10.6 16.1 16.2 13.5 14.2 22.4 30.3 23.5 50.2.5 8.4-1.9 15.4-8.9 20.4-.1-4.6-2.3-8.2-5.3-11.5-7.4-7.9-16.1-14.2-25-20.3-8.3-5.6-17.3-10.3-25.1-16.8-9.2-7.6-18.6-14.9-27.5-22.9-10.8-9.8-21.2-20.1-30.7-31.1-5.3-6.2-9.5-13.3-15.8-18.7l-.3-.1c-.7-5.2-3.9-8.8-7.6-12.1-.9-1.7-1.9-3.4-2.8-5.2-9.4-18.8-15.9-38.6-20.8-58.9-.7-3-.3-6.4-2.7-8.8-.1-.9-.1-1.7-.2-2.6 1-1.5-.4-1.3-1.1-1.6 0-.3-.1-.7-.1-1 .5-1.2 1.1-2.3.8-3.7-.9-6.2-1.9-12.5-2.4-18.8-1.5-17.3-1.4-34.6 3.7-51.4 11.5-38.6 44.3-53.6 79.3-42.9 15.6 4.8 27.7 15.4 39.7 26.1 1.4 1.3 2.4 3.6 5 2.6-1.3 1.8.5 2.5 1.3 3.4 8.3 8.9 16.4 18 23.2 28.1 6 8.9 11.3 18.3 17.1 27.4 4.4 6.8 8.8 13.7 13.9 20 4.7 5.7 7.8 12.5 12.9 18 4.8 5.2 9.8 10.5 14.1 16.2.5.3 1.2-.2 1.7-.6zm5.2 9.8v.4h-.2l.2-.4z"/><path fill="#E1DEEE" d="M629 182.2c-.1.8-.2 1.5-.3 2.3-2.8 2.9-.8 6.8-2.4 10.5-3.4-6-5.7-12.2-10.1-17.1-1.1-2.8-3.2-4.9-5.6-6.6-.6-.3-1-1.6-1.7-.7-.6.7.4 1.2 1 1.6 1.3 2.5 3.4 4.4 5.3 6.4 10.5 18.4 18.9 38 30 56.1 3 4.8 1.8 9.4-1.7 13.8-1.3 1.7-4.2 2.6-3.5 5.6-1.5-1.2-1.9.9-3 1-1.9.4-3.9.7-5.8 1.4-2.3.9-5.5.2-6.5 3.7-.7 2.3-1.9 4.5-2.9 6.8-2.9 6-2.2 12.2-.7 18.4 1.8 7.4-.4 13.1-6.9 16.8-3.8 2.2-7.9 3.4-12.2 4-1.7-1-3.2-2.3-4.7-3.6-2.6-2.2-4.4-6.1-8.8-5.5.4-2.5-1.6-2.9-3.1-3.9-4.5-3.2-10.1-3.9-14.9-6.5-5.1-2.8-9.1-7.1-13.3-11.1-12-11.2-23.5-23-33.2-36.3-4.3-5.9-6.3-12-3.8-19.8 3.9-12.2 9.3-23.7 13.6-35.6 7.2-19.7 5.2-36.5-10.1-52.7-4.2-4.5-8.6-9.2-10.1-15.6 7.3-.6 14.4 1 21.4 2.9 4.7 1.3 7.9 4 9.5 9.1 3.5 10.7 7.7 21.2 11.7 31.8 1.4 3.7 3.1 7.3 4.6 10.9 0-6.2-3-11.4-4.6-17.2 16.5 1.1 32.1 4.9 47 12.7-5.1-3.4-2.9-6.2-.2-9.2.6-.6 2.3-1.3.8-2.7.6.8 1.1.3 1.5-.3 3.7-5.9 9.1-11.2 6.8-19.2-.4-1.3-.8-3.2.7-4.2 1.8-1.2 3 .8 4.3 1.5 2.9 1.7 4.1 5.5 7.9 6.1 0 3.5 3.3 4.2 5.1 6.1 1.3 2.7 2.1 5.4 1.1 8.5-.3 1-1.2 2.6.8 3.3-.1.5-.2 1.1-.3 1.6-2.8 4.5-2 9.8-2.6 14.7-.4 3.5-2.5 6.9-.1 10.2zm-40.1 87.9c-.9 1.3 0 1.6 1 1.9 4.4 1.4 8.3.6 12.1-2 5.1-3 8.9-11.2 7.6-16.9-2.5-11.2-7.5-21.5-12.6-31.8-.3-.7-.7-1.5-2.1-1 4.6 10.7 10.7 20.9 12.8 32.5-5.1 1.6-10.1 1.9-14.1-2.6-8.5-9.7-16.7-19.6-25.3-29.2-3.4-3.8-6.9-7.6-12.1-9.2-3.6-1.1-5 .4-5.1 3.5-.2 6.2 1.6 11.6 6.7 15.5v18.4c-1.3.3-2.4-1.6-4.4-.2 9.8 7 19.8 12.9 29.9 18.6 1.9 1.1 3.1 3.5 5.6 2.5zM435.1 722c-.7-4.7 3-8.3 3.3-12.7 3-3 .9-7 2.1-10.4 2.5-1.2 5-2.5 7.6-3.6 9.6-4.1 14.4-2 17.9 7.6.8 2.3 1.6 4.7 2.1 7.1 3.4 14.8 5.3 29.9 5.2 45.1-12.6 4.9-21.2 33.8-10.2 45.3-1.2.2-2.2.9-2.6 2-1.8 5.1-3.7 10.2-5.3 15.4-3.7 11.8-4 24.4-7.1 36.3-3.1 12-8.7 16-19.4 15.7-9.1-.3-18.2-.7-27.3-1.2-2.5-8-5-15.9 3.1-22.5 0 0-.2-.3-.3-.4h-.1c1.3.9 1.6-.3 2-1 .9-.8 2.7-1.1 2-3 1.3.8 1.9-.3 2.2-1.1 2.4-5.4 4.6-10.9 6.9-16.4 0-.1-.4-.4-1.1-1-2.2 4.3-4.4 8.5-6.6 12.6-1 0-2.2-.4-2.9.1-6.3 4.3-11.4 9.6-13.4 17.2-1.4 5.4-4.1 7.7-9.9 8.5-7.9 1-15.9.7-23.8 1-5.2.2-9.4-1.5-13-5-1-.9-1.8-2-3.3-2.1-2.9-7.6-.3-13.1 6.3-17.4 4.6-3 8.9-6.5 13.7-9 9-4.7 16.3-11.4 22.8-19 21.9-25 37.4-53.8 49.6-84.6.5-.7 2.1-2.5-.5-3.5zM742.2 859.5c-.9 1.8-1.4 4.1-4.3 2.5 0-.3.1-.6 0-.9 0-.1-.3-.2-.4-.2-.9 1.1-2.2 2-3.4 1.3-4-2.3-8.1-1.1-12.2-1.2-8.5-3.8-17.7-5.6-26.1-10-8.8-4.6-16.4-10.3-22.8-17.8-3.7-4.4-5.3-9.9-8.1-14.7-6.6-11.6-15.3-21.6-24.5-31.1-6.8-7-14-14-23.6-17.6 3.2-9.2 1.3-17.4-5.2-24.6 1.8-.3 2.3-1.8 2.6-3.2 2.2-9.3 8.1-16.2 14.4-23 1.3-1.4 2.2-3.4 4.6-3-.3 4.4-.7 8.8.1 13.3 2.6 15.9 11.1 28.5 21.7 40 .4.5 1 1.5 1.9.5-.2.2-.5.7-.4.7 6.6 7.3 13.7 14.2 21.8 19.9l.6-.6c-.8.5-.5 1.1 0 1.5 13.3 11.1 28.3 16.8 45.8 14.2 18.2-2.6 23 .3 29.1 17.7.7 2 1.4 4.1 2.1 6.1 1.8 5.5.4 9.3-4.3 12.3-2.2 1.4-3.1 1.1-3.6-1.4-.9-4.4-2.5-8.6-5.5-12.1-1.3-3.1-4-2.2-6.4-2.5-8.7-1.1-17.3-.2-25.9.8 6.2.4 12.4.2 18.6.5 4.3.2 8.9-.6 12.9 2.1.8 1.6 1.5 3.3 2.3 4.9 3.5 7.1 4.2 14.2.5 21.4-.6 1.1-1.9 1.9-1.5 3.4l-.1.1c-.3.4-.5.6-.7.7z"/><path fill="#BEADC2" d="M633.4 716.1c-2.4-.3-3.3 1.6-4.6 3-6.3 6.8-12.2 13.7-14.4 23-.3 1.4-.8 2.9-2.6 3.2-1.2-.9-2.4-1.7-3.6-2.6-9.6-7-23.6-5.3-30.9 3.8-2.3 2.8-2.7 6.4-4.1 9.7-1.9-1.4-2-3.1-2.2-4.7-.9-6.6 2.1-11.5 6.5-15.9 1.9-1.9 5.2-2.5 5.5-5.9v.1c1.5.2 1.9-1 2.6-1.9 6.9-8.5 10.3-18.4 10.3-29.3 0-5.5 1.3-11.1-1.4-16.4-.2-.8-.3-1.5-.5-2.3 2.4-4.4 0-8.6-.7-12.7-.6-3.6-.2-5.8 3.4-7.4 2.3-1 5.5-1.6 6-5 1.1.3 2.4 1.3 2.4-1 3.4-.5 6.1-2.2 8-5 9.9-5.4 17.6-13.3 25.1-21.5 2-2.2 5-3.8 4.9-7.5 3.5-1 4.6-3.8 5-7l.1.1c3.3-1.7 4.2-5.2 5.8-8.1 4.7-8.5 7.4-17.8 10.2-27.1 2.6.7 1.7 2.9 1.8 4.6.7 16.2-2.3 31.9-5.5 47.7-.9 4.4-2.4 8.6-3.2 13-1 4.8.9 6.9 5.6 6.8 3.2 0 5.7-1.6 8.1-3.4 1.7-1.4 3.3-2.3 5.2-.4.8 3.3-3.4 4.7-3 7.8-5.8 4-10.4 9.2-14.8 14.6-11.4 13.8-19.1 29.3-24.2 46.3-.3.4-.6.7-1 1.1l.2.3z"/><path fill="#E1DEEE" d="M722.4 456.3c.2.7.4 1.3.6 2 .8 1.4.8 3.4 3 3.7l-.1-.1c1.4 2.9 2.3 6.2 6 7-.4.3-.9.5-.5 1.1 5.8 8.5 12.6 16.2 20.5 23l-.1-.1c-.1.8.2 1.2 1.1 1.1l-.1-.1c5.7 8.2 12.7 15.3 20.1 22.1l-.1-.1c-.1.8.2 1.2 1.1 1.1l-.1-.1c.1 2.1 2 2.9 3 4.4 1.3 2 1.7 4.2.1 5.9-1.2 1.3-1.6 4-4.6 3.5-2.9-.6-.9-3.5-2.6-4.6-.2-.3-.5-.7-.7-1 .3.3.5.6.8 1-1.6 5.2.4 10.3.5 15.5-4.6 5.8-4.6 5.7-11 2.6-1.4-.7-2.4-1.8-3.6-2.6-3.9-2.7-7-6.6-12-7.6-1.5-.3-3-1.2-3 1.5-1.8-.7-3.6-1.8-5.6-1.6-1.5.1-3.7-.5-3.4 2.3l.1-.1c-1.7-1.1-1.9 1.2-3 1.3-5.7-2.1-11.6-3.4-16-8.1-1.7-1.9-2.8-4.6-5.8-5.1-.5-6.7 3.6-11.7 6.9-16.6 4.1-6 5.9-11.5 1.3-17.8.7-1.7 0-3.2-.5-4.8-3.6-11.6-9.2-22.2-15.4-32.6-3.4-5.7-5.6-12.4-10.9-16.5-7.7-6-16.1-11.1-24.1-16.7-15.4-10.8-33.5-17.8-44.9-33.9 3.4-6.1 3.1-11.9-1.5-17.4-.8-1-1.1-2.4-1.9-3.5-5.1-7.3-3.1-13.9 2.2-20.3 4.2 6.7 6.9 14 9.2 21.5 1.4 4.7 7.9 12.5 11.3 13.7-1.2 1.2.2 1.6.7 2.2 3 3.6 6.5 6.7 10.3 9.4 12.2 8.9 23.8 19 38.8 22.8 3.4.9 5.4 2.6 7.1 5.4 7.2 11.8 14.7 23.4 23 34.4 1.3 1 1.6 3 3.8 2.8z"/><path fill="#BEADC2" d="M513.8 115.8c1.5 6.4 5.9 11.1 10.1 15.6 15.3 16.2 17.3 32.9 10.1 52.7-4.4 12-9.8 23.5-13.6 35.6-2.5 7.8-.5 13.8 3.8 19.8 9.7 13.3 21.2 25.1 33.2 36.3 4.2 3.9 8.2 8.2 13.3 11.1 4.7 2.6 10.3 3.3 14.9 6.5 1.5 1 3.5 1.5 3.1 3.9-3 .7-5.9-2-10.2-.3 6.6 2.1 12.4 3.7 16 10.5-16.1-3.2-28.1-13.2-42.5-19.3.7 2.3 1.9 2.8 2.8 3.1 7.9 2.2 9.2 7.8 7.9 14.9-4.2 3.7-7 8.2-7.7 13.8-4-2.3-8.1-4.6-12.1-6.9l.1.1c-.4-1.6-.8-3.2-3-3 .8-1.2.2-1.8-1-2v.1c1.3-7.5 1.2-14.9-2.5-21.9.2 4.6.9 9.2 1.4 13.8.1 1.2.6 3.1-1.1 3.3-1.9.3-3.1-1.3-3.5-2.9-.4-1.7-.1-3.6-.1-5.5 0-8.3-2.6-15.6-8.6-21.6-.3-.3-.6-.6-.8-1-3.1-3.8-6.1-7.5-9.2-11.3l-.8-.8c-3.7-5.3-7.6-10.4-12.8-14.4l.1.1c-.7-2.9-3-4.7-4.6-6.9-6-8.3-8.2-17.1-5.2-27.3 2.7-9.3 6.1-18.3 11.1-26.5 4.6-7.6 9.2-15.3 16.1-21.1 1.3 1.1.1 2.9 2.7 3.7-.6-9-.5-17.6-2-26.2 0-.2-.5-.4-.8-.5-.1-1-.2-2.1-.3-3.1 1.7-4.4 1.4-8.4-2.5-11.8-3.3-2.9-6.2-6.3-7.2-11.1.9-.1 1.5-.2 2.1-.2 1 .2 2.2.5 3.3.7zm30.9 192c1.9-5.7.2-11.8 2.3-17.4-3.8 5.4-3 11.4-2.3 17.4z"/><path fill="#E1DEEE" d="M555 319.9c.7-5.7 3.5-10.1 7.7-13.8.2 2.8.2 5.6.5 8.4.3 2 1.1 3.8 3.6 1.8.5-.4.9-.9 1.4-1.3 1.9 1.9 4 .6 6.1.6 5.7 0 11.4-3.1 17.1-.1 9.4 5.1 17.3 12.2 25.8 18.6 1.2.9 1.8 2.1 1.4 3.5-1.6 4.5-3.4 9-6.6 13.1-2-2.9-1.4-6.3-3.7-8.4.6 7.2 2.5 14.1 5.7 20.6 2.1 4.5 4.3 8.9 6.4 13.3-3.8-.1-7.7-.5-11.5-.1-5.5.6-9.6-1.7-13.4-5.2-1.6-1.5-2.7-3.9-5.5-3.9-2.9-4.8-2.8-10.7-5.7-15.4.4 7.5 3.3 14.3 5.3 21.4-12.1-.7-24.1-1.6-36.2-1.9-5.1-.1-8-2.2-9.6-6.8-2.7-8.2-5.9-16.2-8.1-24.5-2.1-7.8-5.4-14.5-11.9-19.3-4.5-3.2-8.4-8.2-15-6.8-7.8-4.8-14.8 1.3-22.1 2.2-.4-8.5 10.1-21.2 18.6-21.5 11.2-.5 21.7 1.7 29.7 10.6 1.1 1.3 1.9 3.4 4.3 3.1v-.1c-.9 1.3.1 1.7 1 2 .5 1.5.8 3.3 3 3l-.1-.1c-.4 2.6 1.8 3.1 3.3 4 6 3.6 12 7 18 10.5 3.1 1.8 6.2 3.7 9.3 5.5-3.4-2.7-4.3-5.3-.7-8.8-5.4 3.1-5.4 3.1-11-.2-2.6-1.2-4.8-2.6-7.1-4zM676 646.2c-1.9-1.8-3.5-1-5.2.4-2.4 1.8-4.9 3.4-8.1 3.4-4.7 0-6.6-2-5.6-6.8.9-4.4 2.3-8.6 3.2-13 3.3-15.7 6.2-31.5 5.5-47.7-.1-1.6.9-3.8-1.8-4.6.2-2.1.4-4.3.7-6.4 2.8-18.4.8-36.2-6.1-53.4-4.5-11.1-10.2-21.6-16.3-31.8-2.5-4.3-5.5-8.4-7.1-14.5 10.3 7.2 18.8 14.8 26.8 23 17.4 18 29.2 38.8 34.1 63.6 1.1 5.4.5 11.1 2.8 16.2 2.3 3.6.7 7.6 1 11.4-1.9.3-1.9.3-2.1 2.4-1.9 18.5-6.8 35.9-16.8 51.7-1.9-.2-3.3.1-2.7 2.6l.3.1.1.3c-2.1-.1-3.3.5-2.2 2.9-.1 0-.3.1-.5.2z"/><path fill="#423B45" d="M539 308.1c-2.4.3-3.2-1.8-4.3-3.1-8-9-18.5-11.1-29.7-10.6-8.4.3-19 13-18.6 21.5 7.4-.8 14.3-7 22.1-2.2 1.5 1 3.1 1.9 4.5 3 2.6 2.2 6.2 3.5 7 7.4-3.1-2.2-6.2-4.4-9.2-6.7-6.4-5-12.8-4.3-19.7-.2 3.5 2.1 7.7 1.3 11.4 4.7-12.2-2-22.8-4.8-31.7-12-2.3-1.8-4.5-3.3-7.3-3.9-9.1-2.1-18.4-2.5-27.6-3.7-.9-.1-2.1-.4-2.6.8-.5 1.2.6 1.8 1.1 2.5 3 3.9 7 6.6 10.7 9.7 3.3 2.8 6.9 3.7 11.4 3.3 9.3-.9 17.7 2.1 24.5 8.7.6.6 2.4 1.2 1 2.6-.5-.3-1.2-.5-1.6-.9-12.2-11.2-28.3-12-41.4-2.1-.4 0-.8 0-1.2-.1 1.4-4.6 6.7-4.3 9.5-7.5-8.8-6.1-16.7-13-21-23-.5-1.1-1-3.1-2.5-.6-8.2 11.5-19.1 17.6-33.6 16-2.4-.3-3.1 1.2-3.6 3.1-1.2 4.8-3.6 8.9-8 11.5-2.3 1.3-2.2 2.7-1.1 4.9 6 12.2 4.5 23.8-3.3 34.7-2 2.8-1.4 3.7 1.8 3.8 8.8.3 16.1-4.7 24.7-6.3-1.7-2.4-4.5-1.4-5.2-3.7 1.5-1.1 2.7-.1 3.9.2 9.9 2.2 18.2 7.7 26.7 12.9 1.8 1.1 3.4 2 5.5 1.8 1.2-.1 2.9.7 3.6-.7.7-1.5-.8-2.4-1.6-3.3-8.2-9.4-8.7-20.1-5.3-31.5 1.1-3.6 3.8-6.2 4.7-9.8 1.4-.3 1.9-2.7 3.9-1.7-.3 2.1-2.2 3.2-3.3 4.8-7 11.1-7.8 22.7-1 33.9 6.7 10.9 17.5 15.2 29.9 13.7 12.5-1.5 20.6-9.1 24.4-21.2 2-4.6 2.4-9.3 1.4-14.3-1.1-5.4-3.8-10-6.4-14.7 1.5-1.2 1.8.4 2.4 1.2 2.9 3.4 3.9 7.8 5.6 11.9-.1 3.1 1.8 6.2.7 9.4-1.7 4.8.4 4.7 4.2 4 7.6-1.5 14.5.1 19.8 6.3-5.6-2.9-10.9-6.4-18-4.8-6.5 1.5-6.4 1-3.5 6.8 2.2 4.5 6.3 8.1 6.8 13.4-4.9-4.8-7-11.6-11.1-16.9-3 3.1-2.5 6.2-1 9.4 2.1 4.3 4.3 8.6 7.2 12.4 2.1 2.8 4.6 5.2 8 6.3 1.6.5 3.2 1.4 3.8-1.2 2.2-.3 2.6 1.6 3.5 2.9 7.1 10 14.1 20.1 21.3 30 12.7 17.3 13.4 31.8 2 50-.1.2-.1.6-.1.8 2.7 1 5.5-2.1 8 .4-.7 1.4-2 .8-3.1.9-13.6 1.3-25.7 6.4-36.4 14.9-16.8 13.3-29.7 30-40.1 48.5-14.8 26.2-18.3 55.4-21.1 84.6-1.8-1.2-1.1-3-1-4.5.7-8.1 1.5-16.1 2.2-24.2 2.6-11.4 4.6-23 8.2-34.2 2.5-7.7 6-15 9.9-22.8-11-.2-21-2.4-30.8-6-5.2-1.9-9.2-6.7-15.3-5.9-1.2-5.6-8.3-6-9.9-11.1 3 .4 4.7 2.9 7 4.6 13.6 10.1 28.7 15.7 45.7 16.5 3.2.2 5-.9 6.8-3.6 11.9-18.4 25.1-35.6 43.7-47.8 4.7-3.1 9.6-6.2 15.2-7.2 10.5-1.9 14.1-9.8 16.1-18.5 2.5-11.3.9-22-6.3-31.7-7.4-9.8-14.4-20-21.6-30-1-1.4-1.8-3.2-4.1-3-6.2.6-9.8-3.3-13-7.7-3.3-4.5-5.9-9.5-8.5-15.3-5.3 6.5-11.1 11.2-18.9 12.9-8.2 1.8-16.2 1.3-23.6-3-.8-.5-1.8-1.2-2.6-1.1-11.1 1.6-19-5.5-27.8-10.2-4-2.1-7.5-3.1-12.1-1.4-5.6 2-11.4 3.4-17 5.6-.9.3-2 .9-2.8.7-7.6-1.9-13.8 1.8-20.6 4.5-21 8.4-45-10.1-42.7-32.6 1.4-12.9 7.5-22.6 20.3-27.2 13.3-4.8 25.2-2.7 35.2 7.6 2.1 2.1 3.4 2.2 5.8.5 4.1-3 5.7-7.2 7-11.7.7-2.6-1.6-2.4-2.9-2.9-20.6-9.4-27.2-34.1-13.6-52.3 6-8 13.9-12.1 24.6-11.7 4.4.1 8.7-.1 12.9 1.3 14.8 4.9 23.9 20.5 20.9 35.9-.6 2.9-1.5 6-1.1 8.8.7 5.4 4.6 8.3 10.2 8.9 6.8.7 13.6 1.2 20.3 2.2 5.8.9 11.7 1.1 16.2 6.3 2.5 2.9 6.6 4.3 10.4 5.7 2.5-5.8 2.3-11.6 2-17.8-.7-16 5-29.1 20.1-36.6 4.1-2 4.2-3.6 1.2-6.7-2.2-2.3-5.1-4.4-5.7-8 5.2 4 9.1 9.1 12.8 14.4-.3.2-.5.4-.8.6-.2-.1-.5-.2-.8-.3-.6-.9-1.4-.8-2.2-.5-16.4 5.3-27.2 26.8-21.6 43.4 5.6-2.8 7.6-10.2 14.6-11 3.3.3 5.5-.8 6.7-4.3 1.9-5.6 5.8-9.5 11.3-11.8 1.2-.5 2.5-1 2.8-2.5l.8-.8c6 5.9 8.6 13.2 8.6 21.6 0 1.8-.3 3.7.1 5.5.4 1.6 1.7 3.2 3.5 2.9 1.8-.3 1.3-2.2 1.1-3.3-.5-4.6-1.2-9.2-1.4-13.8 3.9 6.8 3.9 14.2 2.7 21.7zM378.5 340c-2.4-12.5-9.7-20.7-22.2-23.3-11.5-2.5-22.1.3-29.9 9.3-7.8 8.9-10.1 19.5-5.2 31 4.4 15.7 23 22.3 36 18.6 15.8-4.4 24.5-19.1 21.3-35.6zm47.2-61c1-11.2-5.3-22.8-15.3-28.1-12-6.4-25.8-5-35.9 3.1-8 6.4-13.8 22.2-9.6 32.5 3.3 15.6 17 25.4 33.6 23.7 14.2-1.4 27.4-13.2 27.2-31.2zM531 299c1.1-7.4-.2-13.9-4-19.8-.8-1.2-1.3-2.7-3.4-1.9-6.2 2.6-10.8 6.9-13.1 13.3-.6 1.5-.3 2.1 1.3 2.2 6.9.3 13 3.1 19.2 6.2zm-98.1 3.6c-.1-.1-.2-.3-.3-.3-.1 0-.2.2-.3.3.1.1.3.2.4.4.1-.2.1-.3.2-.4z"/><path fill="#BEADC2" d="M401.3 868.9c9.1.5 18.2 1 27.3 1.2 10.7.3 16.3-3.7 19.4-15.7 3.1-12 3.4-24.5 7.1-36.3 1.6-5.2 3.5-10.3 5.3-15.4.4-1.1 1.4-1.8 2.6-2 3.1.6 2.6 2.6 2.1 4.9-2.4 10.6-2.5 21.3 2 31.3 6.2 13.8 2.7 26.1-4.7 37.7-4.2 6.7-10.9 10.7-19.2 10.8-6.7.1-13.3-.2-20-.2-1.5 0-3.3-1.1-4.5.9-.3-.1-.7-.2-1-.3-.2-.8-.5-1.5-1.5-1.7-8.6-1.5-12.6-7.6-14.9-15.2z"/><path fill="#423B45" d="M699 574.5c-2.4-5.1-1.8-10.8-2.8-16.2-4.8-24.7-16.7-45.6-34.1-63.6-8-8.2-16.5-15.8-26.8-23 1.5 6.1 4.5 10.2 7.1 14.5 6.1 10.3 11.8 20.7 16.3 31.8 7 17.3 8.9 35.1 6.1 53.4-.3 2.1-.5 4.3-.7 6.4-2.9 9.2-5.5 18.6-10.2 27.1-1.6 2.9-2.5 6.4-5.8 8.1.1-2.8 1.5-5.1 2.9-7.2 7-11.5 10.4-24.2 12.1-37.4 2-13.5 1.7-26.8-2.8-39.8-3.6-10.5-8.2-20.4-13.5-30.1-4.6-8.4-8.6-16.4-18.8-19.9-10.4-3.6-17.5-2.2-22.8 7.3-11.3 20-16.9 41.4-16.3 64.4.2 8.5.3 16.9-.8 25.4-.5 4.2-2.1 8.4-1.3 12.8-1.5 1.3-1.5 3.3-1.8 5-1.3 6.3-3.3 12.3-6.9 17.7-1.5 2.2-3.4 4.3-4 6.7-.9 3.6-3.2 5.1-6.3 6 .8-1.3 1.4-2.6 2.3-3.8 9.9-13.1 14.9-27.9 15.7-44.2 4-29.8 0-58.4-14-85.1-5.8-11.1-13.6-20.8-28.5-19.1 4.1-3.6 8.3-1.6 12.4-.2 4.2 1.4 6.8 5.2 10.5 7.3 4.2 6.9 8.9 13.4 12 21 4.3 10.6 6.8 21.5 9.1 33.5.4-1.4.5-1.8.6-2.3 3-16 6.7-31.8 15.4-46 6.6-10.8 16-13.4 27.2-7.7 1.3.7 2.6 1.4 4 2.1.4.2.8.5 1.3.7.2.4.4.9.8.4.2-.2-.1-.7-.2-1.1-.3-.3-.5-.6-.8-.8-4.5-8.9-8.6-17.8-12.3-27-6-15.1-10.9-30.4-13.7-46.4.1-1.8 0-3.6.3-5.4.6-4.1-.9-6.1-5-7.2-4-1.1-7.8-3.3-11.6-5 3.6-1.3 6.4 1 9.2 2.4 5.7 2.7 10.5 2.8 14.1-3.1l.7.7c-1.2 1.6-2.1 3.4-3.5 4.7-2.9 2.7-2.5 4.5.9 6.4 8.8 5 17.4 10.2 26.1 15.4 10.9 6.6 21.9 13 31.4 21.7-.3.3-.6.7-.9 1-18.6-14-38.9-25.2-59.4-37.4-.3 9.7 2 18.2 4.4 26.6 3.6 12.5 8.6 24.4 13.4 36.4 2.2 5.5 6.8 7.9 10.9 11.1 17.1 13 32.2 27.8 43.2 46.4 9.6 16.3 14.5 34.1 15.8 52.9.2.7.1 1.3-.6 1.7zM440.5 699c-1.2 3.4.9 7.4-2.1 10.4-1.4-8.3 1.4-16.4 1.2-24.6 0-.7.1-1.3.2-2 1.5-11.5-1.3-19-12.8-25.7-36.8-21.3-63.1-52.9-81.2-91.4-13.8-29.3-27.1-58.7-36.7-89.8-7.1-23.1-19.2-43.8-37.4-60.3-3.8-3.5-8-6.5-12.5-9-13.8-7.7-27.5-3.4-34.8 10.6-3.9 7.4-5.5 15.4-5.9 23.5-1.6 36.6 6.4 70.7 27.8 100.9 4.4 6.3 10 11.6 15.9 16.5 1.2 1 3.3 1.5 3.2 3.7-6.3-1.9-9.7-7.3-14.2-11.5-10.7-9.9-16.1-23.4-22.9-35.8-1-1.8-2.8-3.3-2.8-5.7 1-1.5.5-2.1-1.1-2.2 0-.3-.1-.6-.1-.9.4-2.2 0-4.3-.6-6.4-5.9-19.4-8.3-39.3-7.3-59.6.6-11.8 5.5-22.3 10.3-32.8.2-.4.8-.9 1.1-.8 3.6.6 5.8-2.2 8.3-3.7 6.5-3.8 13.5-1.2 20.2-2.1 2.3-.3 1.8 3.2 3.4 4.3.4.3.9.8 1.2.8 3.9-.3 5.3 3.2 8 4.8 6.8 4.2 12 9.9 16.1 16.4 2.2 3.5 6.1 5.1 7.9 9.2 4.6 10.2 11.4 19.3 15.3 29.9 4.4 10.1 4.6 21.8 12 30.7.5.6.7 1.5.8 2.3.1 10.2 5.3 18.8 9.2 27.6 5.5 12.5 11.2 24.9 17.2 37.2 3.8 7.7 8.4 15 11.9 22.9 1.9 4.4 6.1 6.8 8.1 11.5 3.8 8.7 11.1 15.5 17.5 22.5 8 8.7 17.1 16.5 26.4 23.9 1.6 1.3 3.2 2.7 4.4-.1 1.9 2.8 2.4 7.8 8.2 6.2 1.7 5 6.4 5.1 10.3 6.7 3.9 1.5 5 1.1 5-3.2.1-8.5.1-17 .2-25.5 0-1.7-.8-3.8 1.8-4.6l.3 28.9c-.1 2.8-.3 5.6-.2 8.4.2 12.8.4 25.4-.8 37.9zm-2.7-39.1c.2-.1.5-.3.7-.4-.1-.1-.2-.4-.2-.4-.3 0-.5.1-.8.1.1.3.2.5.3.7z"/><path fill="#423B45" d="M190.4 487.3c2.4 2.5 2 5.9 2.7 8.8 4.9 20.4 11.4 40.2 20.8 58.9.9 1.7 1.9 3.4 2.8 5.1.3 4.3 3.3 7.3 4.9 11 .7 1.6 1.6 1.2 2.7 1.1l.3.1c.6 3.5.3 7.9 3.3 10.1 3.5 2.6 4.4 5.9 5.7 9.6 2.7 7.6 8.7 13.7 11.7 21.1 3 7.2 12.5 9.4 13.1 18.2 0 .3 1.9.3 2.6.9 1.9 1.5 5 2.3 4 5.8-.4 1.4.3 2.9 1.3 2.7 6.4-1.4 4.1 3 4.1 5.8 0 1.2.7 2.1 1.5 3 10.4 12.1 19.8 25.1 33.2 34.7 7.1 5.1 13.8 10.5 22.3 12.9 9.2 2.7 18.3 2.3 26.4-3.6 7.1-5 9.4-11.9 8.9-20.4-1.1-19.9-10-36-23.5-50.2-5.3-5.5-10.6-10.8-16.1-16.2-8.7-8.4-19.3-14.1-28.8-21.2-9.3-7-18.5-14.1-27.7-21.2-.9-.7-2-1.4-1.9-2.8 5.1 1.7 8.5 5.8 12.5 9 14.4 11.7 30.9 20.7 45 32.9 12.5 10.8 24.1 22.5 32.5 36.8 5.9 10 9.4 20.9 10 32.6 1 22-15.1 29.9-32.9 27.3-14.5-2-25.7-10.7-35.7-20.5-29.7-29.2-52.8-63.2-72.5-99.6-15-27.7-27.1-56.5-33.4-87.5 0-1.6-.1-3.3.2-5.2zm69.2 146.4.2-.3h-.3l.1.3zm4.2 4.8-.3-.2v.3l.3-.1z"/><path fill="#BEADC2" d="M343.2 855.9c1.5.1 2.3 1.1 3.3 2.1 3.6 3.5 7.9 5.2 13 5 7.9-.2 15.9.1 23.8-1 5.7-.7 8.4-3.1 9.9-8.5 2-7.6 7.2-12.9 13.4-17.2.7-.5 1.9-.1 2.9-.1-.5 1.9-1 3.8-1.4 5.7-1.7.3-2.9 1-2 3-1.4-1-1.8-.1-2 1h.1c-4.9 2.3-7.7 5.8-7 11.6.6 5.5 1.9 10.7 4 15.8 2.9 6.9 2.2 8.2-5.2 9.4-1.1.2-2.3.1-3.5.2-1.9 2-3.9 1.8-5.9.1-2.4-.5-4.7 0-7 .5-5.2-2.8-11.2-2.1-16.7-3.4-12.5-2.9-19.5-11.2-19.7-24.2z"/><path fill="#423B45" d="M418.8 886c1.1-2 3-.9 4.5-.9 6.7 0 13.3.3 20 .2 8.3-.1 14.9-4.1 19.2-10.8 7.4-11.6 10.9-24 4.7-37.7-4.5-10-4.4-20.7-2-31.3.5-2.3 1-4.3-2.1-4.9-11-11.5-2.3-40.5 10.2-45.3 4.2-.1 5.8-2.1 5.8-6.3 0-4.8 1.6-9.4 3.1-14 3.7-11.1 10.1-20.8 16.4-30.5 7.2-10.9 14.6-21.7 24.3-30.6 2 4.7 7.1 4.2 10 3.6 7.7-1.5 15.6-2 23.3-4.3 3.9-1.2 7.5-3.7 11.8-3.9 5.2-.3 9.9-2.3 14.5-4.5 6.7-3.2 13.4-6.5 20.1-9.8-.5 3.4-3.7 4-6 5-3.6 1.6-4 3.8-3.4 7.4.7 4.2 3.1 8.3.7 12.7-1.9-4.5-1.4-9.4-2.7-14-.6-2.2-1.1-2.6-3.2-1.6-15 7.4-31.1 11.4-47.4 14.2-6.2 1.1-12.5 1.1-18.8 1.4-1.7.1-3.2.1-4.4 1.6-14.6 18-27.8 36.9-35.1 59.2-.6 1.7-.8 3.6-1.2 5.3-1.1 4.5-.9 8 3.3 11.7 5.4 4.8 4.8 12.1 3.6 18.7-1.2 6.6-2.7 13.3-8 18.2-.8-2.2 1.1-3.6 1.9-5.2 3.8-7.9 5.9-16 4-24.8-1.2-5.7-4.9-8.9-10-8.4-3.3.4-5.8 2.2-7.8 4.7-6 7.4-8.3 16.1-8.1 25.5.1 2.3-.2 4.7 1.7 6.6 1.9 7.6 8.7 9.6 14.9 4.3 1.1-.9 1.4-3.1 3.6-2.7-1.4 4-4.6 6.6-8.3 6.9-4.5.3-5.1 3.1-5.5 6-1.7 10.7-1 21.1 3.7 31.2 6.5 14-2 44.2-22.2 47.3-9.8 1.7-19.5 2-29.1-.2zM715.5 489.5c4.6 6.3 2.7 11.8-1.3 17.8-3.3 4.9-7.4 9.9-6.9 16.6 0 3.5.2 6.9 0 10.4-.4 7 3.6 8.9 10.8 10.2 7 1.2 8.6-.1 11-7.2 1.1-.1 1.3-2.4 3-1.3-1.1 1.5-.8 3.3-1 5-3.3 5.6-8.5 6-14.1 5.2-2.7-.4-5.1-1.3-7.3-2.9-2-1.5-2.9-1.2-3.8 1.3-3.1 9.4.3 15 11.5 18.5 5.6 1.8 10.7.2 14.6-4.6 3.8-4.6 4-8.5.8-14.2-.6-1.1-1.9-1.9-1.8-3.4 4.7 1.6 4.1 6.7 6.6 10.1 2.2-3.3 8.9-3.6 5.8-9.9-2.2-4.3-6.7-6.4-11.4-5.2-.3-2.8 1.9-2.2 3.4-2.3 2-.2 3.8.9 5.6 1.6 3.3 3.4 5.2 7.2 5.2 12.3-.1 6.6 1.8 8.6 8.1 10.6 2.8.9 5.7 1.7 8.7 1.7-.2 1.9-1.6 2-2.8 1.6-6.4-2-14.4-1.8-15.5-11.2-.2-1.7-1.5-2-2.9-.7-1.1 1-2.4 1.9-3.2 3.1-3.7 5-4.1 10.4-1.8 16 2.2 5.1 6.2 7.3 11.8 7.7 11.7.8 16.6-2.5 17.5-12.4h1.9c-1.3 9.2-5.8 13.9-13.7 14.2-14 .6-17.7-2.3-21.3-17.1-7.3 6.2-14.9 5.6-22.6 1.3-6.1-3.4-9.3-9.6-6.9-16 2.3-6 2.5-12 1.8-18-1-8.5 2.3-15.6 7-21.7 5.5-7.2 5-13-1-19.1-.7-.7-1-1.7-1.5-2.6.3-.3.6-.5.8-.8 1.8 1.8 2.5 4.4 4.9 5.4zM315.1 393.9c-2.6 1-3.6-1.3-5-2.6-11.9-10.7-24-21.3-39.7-26.1-35-10.7-67.7 4.3-79.3 42.9-5 16.8-5.2 34.1-3.7 51.4.5 6.3 1.5 12.5 2.4 18.8.2 1.4-.3 2.5-.8 3.7-3.2-9.4-3.1-19.3-3.8-29-.7-8.8-1.2-17.7 0-26.4 2.8-19.8 8.8-38.5 24.7-52.2 17.2-14.8 37.1-17.5 58.4-12.1 16.7 4.2 29 15.7 41.7 26.3 1.8 1.6 4.1 2.9 5.1 5.3zM343.2 855.9c.2 13 7.2 21.3 19.7 24.2 5.5 1.3 11.5.6 16.7 3.4v.1c-8.4.6-16.8-.7-24.3-3.9-10-4.3-12.6-14-14.6-24-1.7-9 1.6-14.9 8.9-19.6 5.2-3.3 10.1-6.9 15.5-9.9 13.3-7.4 22.4-19.1 31.1-31 16.5-22.4 28.9-47.1 38.7-73.1 2.6 1 1 2.8.6 4-12.2 30.7-27.7 59.5-49.6 84.6-6.6 7.5-13.8 14.3-22.8 19-4.8 2.5-9.1 6-13.7 9-6.5 4-9.1 9.6-6.2 17.2zM582.9 729.8c-.2 3.4-3.6 4-5.5 5.9-4.5 4.5-7.4 9.3-6.5 15.9.2 1.7.4 3.3 2.2 4.7 1.4-3.3 1.8-6.9 4.1-9.7 7.4-9.1 21.3-10.9 30.9-3.8 1.2.9 2.4 1.7 3.6 2.6 6.5 7.2 8.4 15.3 5.2 24.6-1.1.5-.9 3-3 2 .1-.9.3-1.8.4-2.7 3.9-6.5 2.9-12.8-1.1-18.7-4.6-6.7-10.7-10.7-19.3-9.6-7.7-.6-14.4 3.5-16.9 10.3-3.2 8.8-.5 17.7 7.2 23.4 7.6 5.7 18.5 6 25.6.8.9-.7 1.3-2.6 3.1-1.6-3.6 6.7-10.3 7.2-17.5 8 6.3 5.3 12.7 9.2 17.6 14.8-.2.3-.5.7-.7 1-8.9-7.1-17.7-14.3-27.6-20.1-4.6-2.7-7.9-6.9-9.8-12.2-.5-1.5-1.3-3.1-2.2-4.4-6.4-9.2-5-17.8 2.3-25.2 2.4-2.3 4.6-4.9 7.9-6z"/><path fill="#BEADC2" d="M763 560c-3 0-5.9-.8-8.7-1.7-6.3-2.1-8.2-4-8.1-10.6 0-5.1-1.9-8.9-5.2-12.3 0-2.6 1.5-1.8 3-1.4 5 1.1 8 5 12 7.6 1.2.8 2.2 1.9 3.6 2.6 6.4 3.2 6.4 3.2 11-2.6 1.4 3.4.7 7 .5 10.5-.4-.3-.9-.4-1 .1 0 .2.6.5.9.8-.1 1.8-1.6 2-2.8 2.5l-1.2.9c-.6.3-1.3.5-1 1.5-1-.4-1.6.1-2 1.1-.8-.1-1.2.2-1 1z"/><path fill="#423B45" d="M513.8 115.8c-1.1-.2-2.3-.4-3.4-.5-.6-.1-1.3.1-2.1.2 1 4.8 3.9 8.1 7.2 11.1 3.8 3.4 4.2 7.3 2.5 11.8-.3-6.7-4-11.5-8.5-16-1-1-1.7-2.5-2.3-3.8-1.4-3.3-1.1-5.4 3.4-5 9.2.8 18.6.6 27.3 4.5 3.7 1.6 6.3 3.8 7.7 7.8 2.5 7.4 5.7 14.5 8.3 21.8 1 2.7 2.5 4.1 5.2 4.3 12.5 1.2 24.6 3.5 36.1 8.8 1.7.8 2.7.3 3.8-1.1 1.5-1.9 2.4-4.4 4.9-5.4 1.4 1.4-.3 2.1-.8 2.7-2.6 3-4.9 5.8.2 9.2-14.9-7.8-30.5-11.5-47-12.7 1.6 5.8 4.6 11 4.6 17.2-1.5-3.6-3.2-7.2-4.6-10.9-4-10.6-8.1-21.1-11.7-31.8-1.7-5-4.8-7.7-9.5-9.1-6.9-2.2-13.9-3.8-21.3-3.1zM399.4 506.9c-.5.4-1.2.9-1.7.2-4.3-5.7-9.2-11-14.1-16.2-5.2-5.5-8.2-12.3-12.9-18-5.1-6.3-9.5-13.2-13.9-20-5.8-9-11.1-18.4-17.1-27.4-6.8-10.1-14.9-19.2-23.2-28.1-.9-1-2.6-1.6-1.3-3.4 12.6 10.8 22.7 23.8 31.1 37.9 15.4 25.7 32.2 50.3 51.9 72.9.4.6.8 1.4 1.2 2.1zM566.8 316.3c-2.5 2-3.3.2-3.6-1.8-.3-2.8-.4-5.6-.5-8.4 1.4-7.1.1-12.7-7.9-14.9-1-.3-2.2-.8-2.8-3.1 14.4 6.1 26.5 16.1 42.5 19.3-3.5-6.8-9.3-8.5-16-10.5 4.2-1.7 7.1 1.1 10.2.3 1.6 3.3 5.4 4.4 7.3 7.5 1.5 2.6 3.6 3 6.2 1.5 4.3-.6 8.4-1.8 12.2-4 6.5-3.7 8.7-9.5 6.9-16.8-1.5-6.2-2.2-12.4.7-18.4 1.9 2.6 3.3 2 4.9-.4 1.6-2.2 3.3-4.5 5.8-5.8l.8.8c-3.2 3.8-6.6 7.5-9.5 11.5-2.3 3.2-2.5 6.3-1.7 9.8 3.1 12.7-1 18.7-13.2 23.6-14.6 5.8-26.5.3-38.6-6.4-1.6-.9-3-2.1-5.2-2.3-1.6 5.7-.1 11.6-.4 17.3 0 1.1 1.1 1.2 1.9 1.2zm56.9-45.9-.3-.3-.3.3c.2.1.3.2.5.3 0-.1 0-.2.1-.3z"/><path fill="#423B45" d="M620.3 376.2c-2.1-4.4-4.3-8.9-6.4-13.3-3.1-6.5-5.1-13.4-5.7-20.6 2.4 2.1 1.8 5.5 3.7 8.4 3.2-4 4.9-8.5 6.6-13.1.5-1.3-.2-2.6-1.4-3.5-8.5-6.4-16.4-13.5-25.8-18.6-5.7-3.1-11.4.1-17.1.1-2.1 0-4.2 1.3-6.1-.6 6.2-1.7 12.7-1.7 19.1-2.6 2.9-.4 5.5 1.4 7.6 2.9 7.7 5.4 15 11.3 22.6 17 1.7 1.3 3.6 2.6 2.9 4.7-1.4 3.9.5 6.6 2.2 9.7 1.3 2.3 2.5 4.7 3.2 7.3 2.7 9.3 6.7 17.8 13.3 25-3.4-1.2-9.8-9-11.3-13.7-2.3-7.5-5-14.8-9.2-21.5-5.3 6.4-7.3 12.9-2.2 20.3.7 1.1 1 2.5 1.9 3.5 4.6 5.5 4.9 11.2 1.5 17.4-.8.8-1.5 1.7-2.3 2.5l-.7-.7c1.4-3.5 3.6-6.6 3.6-10.6zM742.6 828.3c2.9 3.5 4.5 7.7 5.5 12.1.5 2.5 1.5 2.8 3.6 1.4 4.7-3.1 6.2-6.8 4.3-12.3-.7-2-1.4-4.1-2.1-6.1-6.1-17.5-10.8-20.4-29.1-17.7-17.6 2.5-32.5-3.1-45.8-14.2-.5-.4-.9-1 0-1.5 8.2 5.2 16.3 10.5 25.4 14.2 2.2.9 3.2-.2 4.7-.2 11.6.2 23.2.2 34.9.1 1.8 0 2.7.7 3.6 2.1 5.1 7.8 8.5 16.5 11.1 25.4 1.3 4.5-1.1 8.4-4.6 10.7-3.7 2.4-5.6 5.3-6.4 9.6-.5 2.7-1.3 5.9-4.7 7.1-.4-1.5.9-2.3 1.5-3.4 3.7-7.2 3-14.3-.5-21.4-.8-1.6-1.5-3.3-2.3-4.9.3-.4.6-.7.9-1zM634 714.9c5.1-17 12.8-32.6 24.2-46.3 4.5-5.4 9-10.6 14.8-14.6-3 5.5-8.1 9.2-12 13.8-12.3 14.6-21.3 30.9-25.6 49.4-2.6 11.1 1.3 21.5 6.4 31.4 4 7.9 10 14.3 15.2 21.3-.9 1.1-1.4 0-1.9-.5-10.6-11.5-19.1-24.2-21.7-40-.7-4.5-.4-8.8-.1-13.3l-.4-.1c1.2.4.9-.5 1.1-1.1zM518.2 141.3c.3.2.8.3.8.5 1.5 8.6 1.4 17.2 2 26.2-2.6-.8-1.4-2.6-2.7-3.7-6.9 5.8-11.5 13.5-16.1 21.1-5 8.3-8.4 17.2-11.1 26.5-2.9 10.1-.8 18.9 5.2 27.3 1.6 2.2 3.9 4 4.6 6.9-1.3.9-1.6-.4-2.2-1-10-11.1-13.5-23.3-8.3-38 5.9-16.6 13.9-31.8 26.6-44.3.9-.9 1.4-1.4 1.2-3.2-.5-5.4-.1-10.9 0-16.3 1.2-.5 1.3-1 0-1.6v-.4zM722.4 456.3c-2.2.2-2.6-1.8-3.5-3-8.3-11-15.7-22.7-23-34.4-1.7-2.8-3.8-4.5-7.1-5.4-15.1-3.9-26.6-13.9-38.8-22.8-3.8-2.7-7.2-5.9-10.3-9.4-.5-.6-1.9-1-.7-2.2 8 6.9 15.8 14 24.7 19.7 9.1 5.9 18.2 11.5 28.8 14 1.4.3 2.3.9 3.1 2.1 8.6 13.7 17.2 27.3 26.5 40.6.3.1.3.5.3.8zM640 254.1c-.7-3 2.2-3.9 3.5-5.6 3.5-4.4 4.7-9 1.7-13.8-11.2-18.1-19.6-37.6-30-56.1.3-.2.7-.5 1-.7 4.4 4.9 6.7 11.1 10.1 17.1 1.6-3.7-.4-7.6 2.4-10.5.2 4.3.3 8.6-.5 12.8-.3 1.8.2 3.3 1 4.7 5.4 9.8 10.3 19.8 16.4 29.1 6.1 9.4 1.4 17.9-5.6 23zM771 552.1c.2-3.5.9-7.1-.5-10.5-.2-5.2-2.2-10.3-.5-15.5 1.7 1.1-.4 4 2.6 4.6 3 .6 3.3-2.2 4.6-3.5 1.6-1.7 1.2-3.9-.1-5.9-1-1.5-2.9-2.3-3-4.4 2.9.1 4.2 2.5 4.8 4.5 1.1 3.4 3.2 5.8 5.6 8.3 6.3 6.6 2.5 18.4-6.6 21.2-2.2.7-4.6.8-6.9 1.2zm14.8-15c-.3-3.7-1.8-7.3-5.2-8.3-2.5-.8-2.1 3.4-3.9 4.8-.7.6-1 1.8-1.7 2.4-2.8 2.3-3.5 5.2-1.9 8.3.9 1.8-1.4 4.9 1.2 5.4 2.6.4 5.4-1 7.5-3.1 2.7-2.7 3.4-6 4-9.5zM681 640c10-15.8 15-33.3 16.8-51.7.2-2.1.2-2.1 2.1-2.4-1.7 18.8-6.8 36.7-16.1 53.2-1.2 2.2-1.9 5.1-5 5.8l.1.1c.4-.7.7-1.4-.2-2l-.1-.3-.3-.1c2.4.6 2.4-1.1 2.7-2.6zM709 863.9c-11.1.5-22.2 1-33.1-1.8-5.8-1.5-10.7-3.9-14.2-9.1-3.1-4.7-6.8-9-10.2-13.4l.7-.7c4.6 3.7 7.6 8.7 10.9 13.4 2.8 4 6.5 6.5 11.1 7.7 11.5 3 23.2 3.5 35 2.2 0 .4-.1 1.1-.2 1.7zM392.4 882.9c1.2 0 2.3 0 3.5-.2 7.4-1.1 8.1-2.5 5.2-9.4-2.2-5.1-3.4-10.3-4-15.8-.7-5.8 2.1-9.3 7-11.6.1.1.3.4.3.4-8.1 6.5-5.6 14.5-3.1 22.5 2.4 7.7 6.3 13.8 15 15.1 1 .2 1.3.8 1.5 1.7-4 1-7-1.5-9.9-3.2-2.2-1.3-3.5-1.4-5.5 0-2.3 1.6-5.2 2-8 2.3-1.2.1-2.4.1-2-1.8zM651.4 839.5c-9.4-10.4-18.9-20.8-28.2-31.3-2.7-3.1-6.5-5.1-8.8-8.7l.7-.7c3.7 1.8 6.1 5.1 8.8 7.9 9.8 10.3 19.9 20.4 28.2 32.1l-.7.7zM594.4 682.4c2.8 5.3 1.5 10.9 1.4 16.4-.1 10.8-3.5 20.7-10.3 29.3-.7.8-1.1 2.1-2.6 1.9-.3-.4-.5-.7 0-1.2 9.3-11 12.1-23.9 11.3-37.9-.3-2.9.1-5.7.2-8.5zM625 138c-3.8-.6-5-4.4-7.9-6.1-1.3-.8-2.5-2.7-4.3-1.5-1.5.9-1 2.9-.7 4.2 2.3 8.1-3.1 13.3-6.8 19.2-.3.5-.8 1-1.5.3-.1-1.7 1.4-2.6 2-3.9 2.7-5 6.3-9.7 4.5-16.1-.5-1.9-.5-4.7 1.5-5.8 2.2-1.2 4.2.7 5.8 2 2.8 2.3 5.8 4.4 7.4 7.7zM697.5 470.8c-9.5-10.7-20.1-20.6-26.1-34.1.3-.3.6-.7.9-1 4.8 6.1 7.4 13.5 13 19.1 4.6 4.7 9.3 9.4 12.9 15-.3.3-.5.7-.7 1zM752 493c-7.8-6.7-14.6-14.4-20.5-23-.4-.6.1-.8.5-1.1 6.5 7.4 13 14.7 19.5 22.1.4.6 1.5 1.1.5 2zM773 516c-7.3-6.8-14.3-13.8-20.1-22.1 1.7-.6 2.1 1 2.9 1.8 5.3 5.7 10.6 11.4 15.8 17.2.8.8 2.2 1.5 1.4 3.1z"/><path fill="#423B45" d="m679 789.9-.6.6c-8.1-5.7-15.2-12.6-21.8-19.9-.1-.1.3-.5.4-.7 7.3 6.7 14.7 13.3 22 20zM629 182.2c-2.4-3.3-.3-6.6 0-9.8.6-4.9-.2-10.2 2.6-14.7.1 8.2-.9 16.4-2.6 24.5zM722 861.1c4.1.1 8.3-1.2 12.2 1.2 1.2.7 2.5-.2 3.4-1.3 0 0 .4.1.4.2v.9c-7.9.5-15.9 1-23.8 1.6-.1-.6-.1-1.1-.2-1.7 2.6-.4 5.4.3 8-.9zM708.4 483.5l-10.2-12c.3-.2.7-.4 1-.7 3.7 3.7 7.5 7.4 10 12-.3.2-.5.5-.8.7zM676 646.2c.2-.1.4-.2.6-.4 1.1.5 2 .6 2.4-.8l-.1-.1c-1 3.7-2.6 7-5.9 9.2-.4-3.2 3.8-4.6 3-7.9zM632 156c-1.9-.7-1.1-2.3-.8-3.3 1-3.1.3-5.8-1.1-8.5.6-.1 1.2-.1 1.9-.2 2.1 4 1.8 8 0 12z"/><path fill="#8F6E86" d="M632 144c-.6.1-1.2.1-1.9.2-1.8-2-5.1-2.7-5.1-6.1 3.4.7 5.5 3 7 5.9z"/><path fill="#423B45" d="M637 255.1c1.1-.1 1.5-2.2 3-1-1.6 3-4.2 5.1-6.5 7.5l-.8-.8c1.5-1.9 2.9-3.8 4.3-5.7zM732 469c-3.8-.8-4.6-4.2-6-7 3.3 1.1 4.4 4.3 6 7z"/><path fill="#8F6E86" d="m766.9 556.4 1.2-.9c-.1 2.8-.2 5.6-.2 8.5H766v-4.7c0-.4 0-.9-.1-1.3 1-.1 1.1-.8 1-1.6zM379.7 883.6v-.1c2.3-.5 4.6-1 7-.5-1.3 2.5-2.5 2.7-7 .6z"/><path fill="#423B45" d="M726 462c-2.2-.3-2.2-2.3-3-3.7 2.5.1 3.4 1.4 3 3.7z"/><path fill="#8F6E86" d="M713.9 861.9c.1.6.1 1.1.2 1.7-1.7.7-3.4.4-5.1.3.1-.6.2-1.2.3-1.9 1.5 0 3.1-.1 4.6-.1z"/><path fill="#423B45" d="M614.5 799.5c-.7-.6-1.4-1.2-2.1-1.7.2-.3.5-.7.7-1 1 .3 1.7.9 2 2-.2.2-.4.4-.6.7zM189.2 483.1c.7.3 2.2.1 1.1 1.6-.4-.5-.8-1.1-1.1-1.6zM709.8 485.1c-.5-.5-.9-1.1-1.4-1.6.3-.2.5-.5.8-.7.5.5 1 1 1.5 1.6-.3.2-.6.5-.9.7z"/><path fill="#BEADC2" d="M518.3 141.7c1.3.6 1.2 1.1 0 1.6v-1.6z"/><path fill="#423B45" d="M771 553c-.3-.3-1-.6-.9-.8.1-.5.6-.5 1-.1-.1.3-.1.6-.1.9zM774 517c-.9.2-1.1-.3-1.1-1.1 1.3-.5 1.6-.1 1.1 1.1zM698.2 471.5l-.7-.7c.2-.3.5-.6.7-1l1 1c-.4.2-.7.4-1 .7zM753 494c-.8.1-1.2-.2-1.1-1.1 1.3-.5 1.5 0 1.1 1.1zM742.2 859.5c.2-.2.5-.4.7-.5-.3.1-.5.3-.7.5z"/><path fill="#8F6E86" d="M440.9 624c-2.6.7-1.8 2.9-1.8 4.6-.1 8.5-.1 17-.2 25.5-.1 4.3-1.2 4.8-5 3.2-3.9-1.6-8.6-1.7-10.3-6.7-5.7 1.6-6.3-3.4-8.2-6.2-1.2 2.8-2.8 1.4-4.4.1-9.3-7.5-18.3-15.2-26.4-23.9-6.4-7-13.7-13.8-17.5-22.5-2-4.6-6.2-7.1-8.1-11.5-3.5-7.8-8.1-15.1-11.9-22.9-6-12.3-11.7-24.7-17.2-37.2-3.9-8.9-9.1-17.4-9.2-27.6 0-.8-.3-1.7-.8-2.3-7.4-8.9-7.6-20.6-12-30.7.1-.1.1-.2.2-.2-.1.1-.1.2-.2.3-3.9-10.6-10.7-19.7-15.3-29.9-1.8-4.1-5.7-5.6-7.9-9.2-4.1-6.5-9.3-12.3-16.1-16.4-2.6-1.6-4.1-5.1-8-4.8-.4 0-.8-.5-1.2-.8-1.6-1.1-1.1-4.6-3.4-4.3-6.7.9-13.7-1.7-20.2 2.1-2.6 1.5-4.7 4.3-8.3 3.7-.3-.1-.9.4-1.1.8-4.8 10.5-9.7 20.9-10.3 32.8-1.1 20.3 1.3 40.1 7.3 59.6.6 2.1 1 4.2.6 6.4-2.9.2-3.5-2.5-4.4-4.2-8.1-16.4-15.2-33.3-17.2-51.6-1.9-17-.7-33.9 12.2-47.1 10.5-10.8 23.9-12.9 37.8-8.1 22.1 7.7 38.3 22.3 49.3 43.1 16.4 30.9 32.9 61.8 50.2 92.2 11.4 20 28.2 35 48.7 45.8 12 6.3 24.5 11 37.5 14.5 1.4.4 2.8 1.1 4.1 1.6-.8 8.1-1.6 16.1-2.2 24.2-.1 1.5-.8 3.3 1 4.5 0 1.1-.1 2.1-.1 3.1zM354.1 693.8c-8.2 5.9-17.2 6.3-26.4 3.6-8.5-2.4-15.2-7.8-22.3-12.9-13.3-9.6-22.7-22.6-33.2-34.7-.8-.9-1.5-1.9-1.5-3-.1-2.9 2.2-7.2-4.1-5.8-1 .2-1.7-1.3-1.3-2.7 1-3.5-2.1-4.3-4-5.8-.7-.6-2.6-.5-2.6-.9-.6-8.8-10.2-11-13.1-18.2-3.1-7.4-9-13.4-11.7-21.1-1.3-3.7-2.3-7-5.7-9.6-3-2.3-2.6-6.6-3.3-10.1 6.3 5.4 10.5 12.5 15.8 18.7 9.6 11.1 19.9 21.4 30.7 31.1 8.8 8 18.3 15.3 27.5 22.9 7.8 6.5 16.8 11.2 25.1 16.8 8.9 6.1 17.6 12.4 25 20.3 2.8 3.1 5.1 6.8 5.1 11.4zM224.4 572.4c-1.1.1-2 .5-2.7-1.1-1.6-3.7-4.6-6.7-4.9-11 3.7 3.3 6.9 6.9 7.6 12.1z"/><path fill="#8F6E86" d="M224.2 506.8c1.7 0 2.1.7 1.1 2.2-1-.4-1.3-1.1-1.1-2.2z"/><path fill="#423B45" d="m404.6 516.7-.2.4h.2z"/><path fill="#BEADC2" d="M557.9 231c-5.1-3.9-6.9-9.4-6.7-15.5.1-3.1 1.5-4.6 5.1-3.5 5.2 1.6 8.7 5.4 12.1 9.2 8.5 9.6 16.8 19.5 25.3 29.2 3.9 4.5 8.9 4.2 14.1 2.6.7 2.1.2 4.1-.3 6.2-1.1 4-4 7-5.4 10.8-3.7 2.6-7.7 3.3-12.1 2 0-.8.2-1.8-1-1.9l.1.1c-1.1-1.8-1.6-3.9-1.8-6-.5-5.2-2-10.2-4.5-14.8-.8-2.6-2.1-4.9-4-6.9-1-2-2.3-3.8-4-5.2-.6-1-1.2-2-2.4-2.5-1.4-2.6-3.6-4.4-5.7-6.3-.3-.4-.7-.7-1-1.1l-.9-.9c-1.7-1.6-3.4-3.3-5.1-4.9-1.7-1.8-3.1-3.9-5.8-4.6 1.1 2.4 2.7 4.1 5 5.3 2.4 3.2.3 5.9-1 8.7z"/><path fill="#423B45" d="M566.5 228.5c2.1 1.9 4.4 3.7 5.7 6.3l-.9.9c-1.4-1.1-2.2-1.3-2.2 1-.1 3.3.3 6.6-.6 9.9-1.5 5-2.7 5.6-7.2 3.2-.2-1.5-.4-3.1-.6-4.6.1-2.2.6-4.5-.4-7.3-1.5 2.8-1.4 5-.7 7.2.3 1.8.7 3.5 1 5.3 1.4 3.2 4.8 3.7 7.1 5.7 3.3 2.9 4.6 1.3 5.5-2.2 1.3-5.2.6-10.4.5-15.7.3-.3.6-.6.9-1 1.7 1.4 3 3.2 4 5.2-.3.3-.6.5-1 .8-.6 0-1.4-1.5-1.6.2-.2 1.6-.2 3.3-.2 4.9.2 4-3.7 8.3-1.7 11.4 2 3.1 6.6 4.6 10 6.9-.3.4-.6.8-.8 1.2-10.1-5.7-20.1-11.7-29.9-18.6 1.9-1.5 3 .4 4.4.2V231c1.3-2.8 3.4-5.5.8-8.7.3-.2.5-.5.8-.7 1.7 1.6 3.4 3.3 5.1 4.9-.3.3-.6.5-.9.8-3.5-1.9-3.2 1.4-3.4 2.9-.3 2.2-2.2 5 1.3 6.4 2 .8 4 1.1 5.5-.8 2-2.6.1-4.6-1.5-6.5.5-.2.7-.5 1-.8zM602 270c1.4-3.8 4.3-6.8 5.4-10.8.6-2.1 1-4.1.3-6.2-2.1-11.7-8.2-21.8-12.8-32.5 1.4-.5 1.8.3 2.1 1 5.1 10.2 10 20.5 12.6 31.8 1.3 5.5-2.5 13.7-7.6 16.7z"/><path fill="#BEADC2" d="M637 255.1c-1.4 1.9-2.9 3.8-4.3 5.7-2.6 1.3-4.2 3.6-5.8 5.8-1.7 2.3-3.1 2.9-4.9.4 1-2.3 2.2-4.5 2.9-6.8 1-3.5 4.1-2.8 6.5-3.7 1.7-.7 3.7-1 5.6-1.4z"/><path fill="#423B45" d="M582.7 249.3c2.5 4.6 4 9.6 4.5 14.8.2 2.1.7 4.1 1.8 6-2.5 1-3.7-1.4-5.5-2.2.3-.4.6-.8.8-1.2 2.8.6 1.6-1.5 1.4-2.4-1.2-4.7-2.6-9.4-4-14l1-1z"/><path fill="#BEADC2" d="M602.2 306.3c-2.5 1.4-4.6 1.1-6.2-1.5-1.8-3.1-5.7-4.2-7.3-7.5 4.4-.6 6.2 3.3 8.8 5.5 1.6 1.2 3 2.5 4.7 3.5z"/><path fill="#423B45" d="M610.6 171.3c2.4 1.7 4.5 3.8 5.6 6.6-.3.2-.7.5-1 .7-1.9-2-4-3.9-5.3-6.4.2-.3.4-.6.7-.9zM609.8 172.2c-.6-.4-1.6-.9-1-1.6.7-.9 1.2.4 1.7.7-.2.3-.4.6-.7.9zM588.9 270.1c1.3.2 1.1 1.1 1 1.9-1-.3-1.9-.6-1-1.9z"/><path fill="#BEADC2" d="M522.9 673.8c-9.7 8.9-17.2 19.7-24.3 30.6-6.4 9.7-12.7 19.4-16.4 30.5-1.5 4.6-3.1 9.2-3.1 14 0 4.2-1.6 6.3-5.8 6.3.1-15.2-1.9-30.3-5.2-45.1-.5-2.4-1.3-4.8-2.1-7.1-3.5-9.6-8.3-11.7-17.9-7.6-2.6 1.1-5 2.4-7.6 3.6 1.2-12.5 1-25.1.6-37.7-.1-2.8.1-5.6.2-8.4 2.5 1.3 3.6 3.8 5.2 5.8 4.6 6 9.8 11.3 18.3 9.1 4.3-1.1 8.5-2.9 12.5-4.9 19.4-10.2 38.2-21.4 57-32.6 9.4-5.6 18.9-11.1 26.8-18.7 9.4-9 16.6-19.6 21.7-31.6.6-1.5.8-3.8 3.2-4-.8 16.3-5.8 31.1-15.7 44.2-.9 1.2-1.6 2.5-2.3 3.8h.1c-8.5 9.3-17 18.4-25.3 27.8-6.2 7-13.3 13.3-18.6 21.2-.7 0-1 .3-1 1l-.3-.2z"/><path fill="#423B45" d="M408 842c.5-1.9 1-3.8 1.4-5.7l6.6-12.6c.7.6 1.2.9 1.1 1-2.3 5.5-4.5 10.9-6.9 16.4-.2.6-.9 1.7-2.2.9z"/><path fill="#423B45" d="M406.1 845c-.9-2 .3-2.7 2-3 .7 1.9-1.1 2.1-2 3zM404 846c.3-1.2.7-2 2-1-.4.8-.7 1.9-2 1z"/><path fill="#BEADC2" d="M615.2 798.7c-.3-1-1-1.6-2-2-4.9-5.6-11.3-9.5-17.6-14.8 7.2-.8 13.9-1.3 17.5-8 1.1-.3 2-.7 1-2.1v.1c2.1 1 1.9-1.6 3-2 9.6 3.5 16.8 10.6 23.6 17.6 9.2 9.4 17.9 19.5 24.5 31.1 2.8 4.9 4.4 10.3 8.1 14.7 6.4 7.5 14 13.2 22.8 17.8 8.4 4.4 17.6 6.1 26.1 10-2.6 1.2-5.4.5-8.1.8-1.5 0-3.1.1-4.6.1-11.8 1.4-23.5.9-35-2.2-4.6-1.2-8.3-3.7-11.1-7.7-3.3-4.7-6.4-9.7-10.9-13.4-8.3-11.7-18.3-21.8-28.2-32.1-3-2.8-5.5-6-9.1-7.9z"/><path fill="#423B45" d="M741.7 829.2c-4-2.7-8.5-1.9-12.9-2.1-6.2-.2-12.4-.1-18.6-.5 8.6-1 17.2-1.9 25.9-.8 2.4.3 5.1-.6 6.4 2.5-.2.3-.5.6-.8.9z"/><path fill="#8F6E86" d="M602.6 655c-6.7 3.3-13.4 6.5-20.1 9.8-4.6 2.2-9.3 4.3-14.5 4.5-4.3.2-7.9 2.7-11.8 3.9-7.7 2.4-15.6 2.8-23.3 4.3-2.9.6-7.9 1-10-3.6v.1c.8.1 1.2-.2 1-1 .6 0 1.5.4 1.9.1 3.7-3.5 8.7-6.9 11-10.5 3-4.6 7.3-7.7 10.2-12.1 3.9-5.7 9-10.5 13.6-15.8 1.6-1.8 2.5-4.1 5.8-3.5 2.5.5 3.1-1.7 2.3-3.5-.5-1.3-.4-2.5-.9-3.7h-.1c3.1-.9 5.4-2.4 6.3-6 .6-2.4 2.6-4.5 4-6.7 3.6-5.4 5.6-11.4 6.9-17.7.4-1.7.3-3.6 1.8-5 2.4-2.6 5.4-4.3 8.2-6.2 12.6-8.8 25.2-17.7 39.7-23.3 7.6-3 20.4-1.1 25.5 6.6.7 1.1 1.8 1.9 2.7 2.9-1.7 13.2-5.1 25.9-12.1 37.4-1.3 2.2-2.8 4.5-2.9 7.2l-.1-.1c-2.8 1.5-4.4 3.9-5 7-3.4 1.3-5 4.5-7.3 7-2.3 2.4-3.6 6-7.8 5.7-.5 0-1.7.2-.8.7 3.5 2 0 2.7-.7 3.3-3.8 3.2-7.7 6.1-11.6 9.2-1 .8-2.3 1.5-1.9 3.1-3.6.1-6 2.2-8 5 .4 2.2-1 1.1-2 .9z"/><path fill="#423B45" d="M613 649c-.5-1.7.9-2.4 1.9-3.1 3.8-3.1 7.8-6 11.6-9.2.7-.6 4.1-1.3.7-3.3-.9-.5.3-.7.8-.7 4.2.2 5.5-3.4 7.8-5.7 2.3-2.4 3.9-5.7 7.3-7 .1 3.6-2.9 5.3-4.9 7.5-7.6 8.2-15.3 16.1-25.2 21.5zM605 654c2-2.8 4.4-4.9 8-5-2 2.8-4.6 4.4-8 5zM643 620c.6-3.1 2.2-5.5 5-7-.4 3.2-1.5 6-5 7z"/><path fill="#E1DEEE" d="M634 714.9c-.1.5.1 1.4-1 1.1.3-.3.7-.7 1-1.1z"/><path fill="#BEADC2" d="m699.2 470.8-1-1c-3.7-5.5-8.3-10.3-12.9-15-5.5-5.6-8.2-13-13-19.1-9.4-8.7-20.4-15.1-31.4-21.7-8.7-5.2-17.3-10.4-26.1-15.4-3.4-1.9-3.8-3.7-.9-6.4 1.4-1.3 2.4-3.1 3.5-4.7.8-.8 1.5-1.7 2.3-2.5 11.4 16 29.6 23.1 44.9 33.9 8 5.6 16.4 10.7 24.1 16.7 5.3 4.1 7.5 10.8 10.9 16.5 6.2 10.4 11.8 21 15.4 32.6.5 1.6 1.3 3.1.5 4.8-2.4-1-3.1-3.6-4.9-5.2-.5-.5-1-1-1.5-1.6-2.5-4.5-6.3-8.2-9.9-11.9zM729 537.2c-2.4 7.2-4 8.5-11 7.2-7.1-1.2-11.2-3.2-10.8-10.2.2-3.4 0-6.9 0-10.4 2.9.6 4.1 3.3 5.8 5.1 4.4 4.9 10.4 6.2 16 8.3z"/><path fill="#423B45" d="M770 526c-.3-.3-.5-.6-.8-1 .2.4.5.7.8 1-.1.1 0 0 0 0zM555 319.9c2.2 1.4 4.5 2.8 6.8 4.1 5.6 3.3 5.6 3.3 11 .2-3.7 3.5-2.8 6.1.7 8.8-3.1-1.8-6.2-3.7-9.3-5.5l-18-10.5c-1.5-.9-3.7-1.4-3.3-4 4 2.3 8.1 4.6 12.1 6.9zM544.7 307.8c-.7-6-1.5-12 2.3-17.4-2.1 5.6-.4 11.7-2.3 17.4zM514.5 261.3c3.1 3.8 6.1 7.5 9.2 11.3-.3.2-.6.5-.9.7-3.4-3.3-6.4-7-9.1-10.9.3-.4.5-.8.8-1.1z"/><path fill="#423B45" d="M543 313.1c-2.3.3-2.5-1.5-3-3 2.1-.2 2.6 1.4 3 3zM539.9 310.1c-.9-.4-2-.7-1-2 1.2.2 1.8.8 1 2zM523.7 272.5c.3.3.6.6.8 1l-.8.8c-.3-.3-.6-.7-.9-1 .3-.3.6-.5.9-.8zM513.7 260.5l.8.8c-.3.3-.5.7-.8 1-.3-.4-.5-.8-.8-1.2.3-.2.5-.4.8-.6z"/><path fill="#BEADC2" d="M593.4 387.5c3.9 1.7 7.6 3.9 11.6 5 4.2 1.1 5.6 3.2 5 7.2-.3 1.8-.2 3.6-.3 5.4-4.1-.5-7.3-4.1-11.8-3.1-7.6 1.7-15.1 1.2-22.6-.8-2-.5-4.3-.3-6.5-.2-5.6.3-11.5 7-10.7 12.2 2.5 15.8 5.2 31.6 7.4 47.5.8 5.9 1.9 12 .7 18.1-3.8-2.1-6.3-5.9-10.5-7.3-4.2-1.4-8.3-3.3-12.4.2-.5.1-1.1.2-1.6.4-2.6-2.5-5.4.7-8-.4 0-.3 0-.6.1-.8 11.4-18.2 10.8-32.7-2-50-7.3-9.9-14.2-20-21.3-30-.9-1.2-1.3-3.1-3.5-2.9v.1c.2-2.3-.5-3.8-3-4v.1c.1-3-1.1-5.1-4-6.1-.5-5.4-4.6-8.9-6.8-13.4-2.9-5.8-3-5.3 3.5-6.8 7.1-1.6 12.4 1.9 18 4.8-5.3-6.2-12.1-7.8-19.8-6.3-3.8.8-5.9.9-4.2-4 1.1-3.1-.7-6.2-.7-9.4 7.3 0 14.5 1.4 21.8 1.2 4.4-.2 7.7-1.6 10.1-5.1.7-1 1.3-2 2.6-2.1 2.4 8.7 4.7 17.3 7.1 26 .5-.2 1.1-.3 1.6-.5-3.7-11.6-4.8-24-10.1-35.2-.7-1.4-.8-3.6-3.3-3.3l.1.1c-.8-3.9-4.4-5.2-7-7.4-1.4-1.2-3-2-4.5-3 6.6-1.4 10.5 3.5 15 6.8 6.6 4.7 9.9 11.5 11.9 19.3 2.2 8.3 5.4 16.3 8.1 24.5 1.5 4.7 4.4 6.7 9.6 6.8 12.1.3 24.2 1.2 36.2 1.9 2.1 4.4 4.1 8.7.8 13.4-2 2.7-4.7 1.7-7.2 1.2-7.6-1.7-15-5.2-22.9-3.5-8.5 1.8-15.3.6-19.2-7.9 0-.1-.3 0-.4 0 .9 6 6 11.4 10.7 10.5 11.3-2.2 22.1-.3 32.8 3 3.1.9 5.5.4 7.2-2.6.4-.3.8-.5 1.2-.8l1.2 1.2z"/><path fill="#BEADC2" d="M620.3 376.2c0 3.9-2.3 7.1-3.6 10.5-3.6 5.9-8.4 5.8-14.1 3.1-2.8-1.3-5.6-3.7-9.2-2.4l-1.1-1.1c2.1-3.6 2-7.1.2-10.9-1.3-2.6-2.5-5.4-2.6-8.5 2.8 0 3.9 2.4 5.5 3.9 3.8 3.5 7.9 5.8 13.4 5.2 3.8-.2 7.7.2 11.5.2z"/><path fill="#423B45" d="M589.9 367.1c.1 3.1 1.3 5.8 2.6 8.5 1.8 3.8 1.9 7.3-.2 10.9-.4.3-.8.5-1.2.8-.3-.2-.6-.5-.9-.7 3.3-4.7 1.3-9.1-.8-13.4-2-7-4.9-13.9-5.3-21.4 3 4.6 2.9 10.5 5.8 15.3z"/><path fill="#BEADC2" d="M679 645c-.4 1.4-1.4 1.3-2.4.8-1.2-2.4.1-2.9 2.2-2.8.9.6.5 1.3.2 2zM681 640c-.3 1.5-.4 3.2-2.7 2.6-.6-2.5.9-2.8 2.7-2.6z"/><path fill="#E1DEEE" d="M541.7 472.1c.5-.1 1.1-.2 1.6-.4 14.9-1.7 22.7 8 28.5 19.1 14 26.7 18 55.3 14 85.1-2.4.2-2.6 2.5-3.2 4-5.1 12-12.4 22.6-21.7 31.6-7.9 7.6-17.4 13.1-26.8 18.7-18.8 11.2-37.6 22.4-57 32.6-3.9 2.1-8.2 3.8-12.5 4.9-8.5 2.3-13.7-3.1-18.3-9.1-1.6-2.1-2.7-4.5-5.2-5.8l-.3-28.9c0-1 .1-2 .1-3.1 2.8-29.3 6.3-58.5 21.1-84.6 10.4-18.5 23.3-35.1 40.1-48.5 10.7-8.5 22.8-13.6 36.4-14.9 1.1.1 2.5.6 3.2-.7z"/><path fill="#BEADC2" d="M433 329.6c-.9 3.6-3.6 6.2-4.7 9.8-3.4 11.5-2.9 22.1 5.3 31.5.8.9 2.3 1.9 1.6 3.3-.7 1.5-2.4.6-3.6.7-2.1.2-3.8-.8-5.5-1.8-8.5-5.2-16.8-10.7-26.7-12.9-1.2-.3-2.4-1.3-3.9-.2.7 2.3 3.5 1.3 5.2 3.7-8.6 1.6-15.9 6.6-24.7 6.3-3.2-.1-3.8-1-1.8-3.8 7.8-10.9 9.3-22.5 3.3-34.7-1.1-2.2-1.1-3.6 1.1-4.9 4.4-2.6 6.8-6.7 8-11.5.5-1.9 1.2-3.4 3.6-3.1 14.5 1.6 25.4-4.5 33.6-16 1.8 4 2.7 8.1 1.6 12.5-1.1 4.6.1 8.8 3 12.6 2 2.5 4.6 4.8 4.6 8.5z"/><path fill="#E1DEEE" d="M364.9 286.5c-4.2-10.3 1.7-26.1 9.6-32.5 10.2-8.1 23.9-9.4 35.9-3.1 10 5.3 16.3 16.9 15.3 28.1-2.5.5-3.7 2.7-5.3 4.3-2.2 2.2-4.7 4.3-7.6 4.5-8.2.6-16.6 1.6-23.9-4.3-2.8-2.3-6.1-3.9-9.8-4.5-6.7-1.1-10.2 3.5-14.2 7.5zM321.2 356.9c-4.8-11.4-2.6-22 5.2-31 7.8-8.9 18.4-11.7 29.9-9.3 12.4 2.7 19.7 10.8 22.2 23.3-2.7.4-2.9 3-3.9 4.8-3.2 5.9-8.3 8.7-14.7 8-4.7-.5-9.4-1.1-14.1-2.2-9.1-2-18.4-3.6-24.6 6.4z"/><path fill="#BEADC2" d="M437.9 327c.4 0 .8 0 1.2.1 7.5 1.1 11.2 5.8 12.4 13 .1.8.3 1.6.6 2.4 3.3 8.5 6.9 16.7 17 19.1 6.3 1.5 12.1-.4 17.9-2.5-3.7 12.1-11.9 19.6-24.4 21.2-12.4 1.5-23.2-2.8-29.9-13.7-6.8-11.1-6-22.7 1-33.9 1-1.7 2.9-2.7 3.3-4.8v.1c.8.1 1.1-.3 1-1h-.1z"/><path fill="#E1DEEE" d="M524.5 337c-1.3.1-1.9 1.1-2.6 2.1-2.5 3.5-5.8 4.9-10.1 5.1-7.3.3-14.5-1.2-21.8-1.2-1.7-4-2.7-8.4-5.6-11.9-.6-.7-.9-2.3-2.4-1.2l.1.1c1.4-1.5-.3-2-1-2.6-6.9-6.5-15.2-9.5-24.5-8.7-4.5.4-8.1-.5-11.4-3.3-3.7-3.1-7.7-5.8-10.7-9.7-.6-.7-1.6-1.4-1.1-2.5.5-1.2 1.7-.9 2.6-.8 9.2 1.2 18.5 1.6 27.6 3.7 2.8.6 5 2 7.3 3.9 8.9 7.2 19.5 10 31.7 12-3.7-3.4-7.9-2.6-11.4-4.7 6.9-4.1 13.3-4.8 19.7.2 3 2.3 6.1 4.5 9.2 6.7l-.1-.1c1.6 4.3 3.9 8.3 4.5 12.9z"/><path fill="#E1DEEE" d="M487 359c-5.8 2.1-11.5 4.1-17.9 2.5-10.2-2.4-13.7-10.7-17-19.1-.3-.8-.5-1.6-.6-2.4-1.2-7.1-4.9-11.9-12.4-13 13.1-10 29.2-9.1 41.4 2.1.5.4 1.1.6 1.6.9l-.1-.1c2.6 4.7 5.3 9.3 6.4 14.7 1 5.1.6 9.8-1.4 14.4z"/><path fill="#BEADC2" d="M364.9 286.5c4-3.9 7.5-8.5 14.2-7.5 3.8.6 7 2.2 9.8 4.5 7.2 5.9 15.6 4.9 23.9 4.3 2.9-.2 5.4-2.3 7.6-4.5 1.6-1.6 2.8-3.8 5.3-4.3.2 18.1-13.1 29.8-27.3 31.2-16.5 1.7-30.2-8.1-33.5-23.7zM321.2 356.9c6.2-10 15.5-8.4 24.6-6.3 4.7 1.1 9.4 1.7 14.1 2.2 6.4.7 11.5-2.1 14.7-8 1-1.8 1.2-4.3 3.9-4.8 3.2 16.5-5.5 31.1-21.3 35.6-13 3.7-31.6-2.9-36-18.7z"/><path fill="#E1DEEE" d="M502.9 292.8c-7 .8-9 8.3-14.6 11-5.5-16.6 5.2-38.1 21.6-43.4.8-.3 1.6-.4 2.2.5-.8 1-1.8 2-2.5 3-4.4 6.4-9 12.6-8.7 20.9.1 3 2.5 5.1 2 8z"/><path fill="#BEADC2" d="M502.9 292.8c.5-2.9-1.9-5-2-7.9-.2-8.4 4.4-14.6 8.7-20.9.7-1.1 1.7-2 2.5-3 .3 0 .5.1.8.3.3.4.5.8.8 1.2 2.7 3.9 5.7 7.6 9.1 10.9.3.3.6.7.9 1-.3 1.5-1.7 2-2.8 2.5-5.5 2.3-9.4 6.2-11.3 11.8-1.2 3.3-3.4 4.4-6.7 4.1z"/><path fill="#E1DEEE" d="M433 329.6c0-3.7-2.6-6-4.6-8.6-2.9-3.8-4.1-8-3-12.6 1.1-4.4.2-8.5-1.6-12.5 1.5-2.5 2-.5 2.5.6 4.4 10 12.2 16.9 21 23-2.8 3.2-8.2 2.9-9.5 7.5h.1c-1.2-.5-1.6-.2-1 1v-.1c-2-1.1-2.4 1.4-3.9 1.7z"/><path fill="#BEADC2" d="M507 388c-.5 2.6-2.2 1.8-3.8 1.2-3.4-1.2-5.9-3.5-8-6.3-2.9-3.8-5.1-8.1-7.2-12.4-1.5-3.2-2-6.2 1-9.4 4.1 5.4 6.2 12.1 11.1 16.9.5 2.6 2.1 4.4 4 6.1v-.1c.2 1.9 1 3.3 2.9 4z"/><path fill="#E1DEEE" d="M432.9 302.6c-.1.1-.1.2-.2.3-.1-.1-.3-.2-.4-.4.1-.1.2-.3.3-.3.1.1.2.3.3.4z"/><path fill="#BF9BAD" d="M663.1 568.5c-.9-.9-2-1.8-2.7-2.9-5.1-7.7-17.9-9.6-25.5-6.6-14.5 5.6-27 14.5-39.7 23.3-2.8 2-5.9 3.6-8.2 6.2-.8-4.4.8-8.6 1.3-12.8 1.1-8.5 1-16.9.8-25.4-.6-23 5-44.4 16.3-64.4 5.4-9.5 12.5-10.9 22.8-7.3 10.2 3.6 14.2 11.6 18.8 19.9 5.3 9.7 9.9 19.6 13.5 30.1 4.3 13.1 4.6 26.4 2.6 39.9z"/><path fill="#E1DEEE" d="M566.3 478.8c1.2-6.1.1-12.1-.7-18.1-2.2-15.9-4.9-31.7-7.4-47.5-.8-5.2 5.1-11.9 10.7-12.2 2.2-.1 4.4-.4 6.5.2 7.5 2 15 2.5 22.6.8 4.5-1 7.7 2.6 11.8 3.1 2.8 16 7.6 31.4 13.7 46.4 3.7 9.2 7.9 18.2 12.3 27-.4.3-.8.5-1.1.8-1.3-.7-2.6-1.4-4-2.1-11.2-5.7-20.6-3.1-27.2 7.7-8.7 14.1-12.4 29.9-15.4 46-.1.5-.2.9-.6 2.3-2.3-12-4.8-23-9.1-33.5-3.2-7.5-7.9-14-12.1-20.9zM636.5 479.4c.1.4.3 1 .2 1.1-.4.4-.6-.1-.8-.4.2-.2.4-.4.6-.7z"/><path fill="#E1DEEE" d="M635.8 478.6c.3.3.5.6.8.8-.2.3-.4.5-.6.7-.4-.2-.8-.5-1.3-.7.3-.3.7-.6 1.1-.8z"/><path fill="#8F6E86" d="m437.8 659.9-.3-.6c.3-.1.5-.1.8-.1.1 0 .2.2.2.4-.2.1-.4.2-.7.3zM259.6 633.7l-.1-.3h.3zM263.8 638.5l-.3.1v-.3z"/><path fill="#BEADC2" d="M475.9 756.6c5.1-.5 8.8 2.6 10 8.4 1.9 8.8-.2 16.9-4 24.8-.8 1.6-2.7 3-1.9 5.2-2.2-.4-2.4 1.7-3.6 2.7-6.2 5.2-12.9 3.3-14.9-4.3 13.4-8.1 19.9-24.7 14.4-36.8z"/><path fill="#E1DEEE" d="M475.9 756.6c5.4 12.1-1 28.7-14.3 36.8-1.8-1.9-1.6-4.3-1.7-6.6-.2-9.4 2.1-18.1 8.1-25.5 2.1-2.5 4.6-4.4 7.9-4.7z"/><path fill="#BEADC2" d="M765.9 559.3v4.7c-.9 10-5.9 13.2-17.5 12.4-5.6-.4-9.6-2.6-11.8-7.7-2.4-5.6-2-11 1.8-16 .9-1.2 2.2-2.1 3.2-3.1 1.4-1.3 2.7-1 2.9.7 1.2 9.4 9.1 9.2 15.5 11.2 1.2.4 2.7.3 2.8-1.6.9.2 1.6.2 1-1 .7 1.1 1.5.2 2.1.4zM731 540.9c-.1 1.5 1.1 2.3 1.8 3.4 3.2 5.7 3 9.5-.8 14.2-3.9 4.7-9 6.4-14.6 4.6-11.3-3.5-14.6-9.1-11.5-18.5.8-2.5 1.7-2.8 3.8-1.3 2.2 1.6 4.6 2.5 7.3 2.9 5.5.7 10.7.3 14-5.3 0 .1 0 0 0 0zM614.4 769.3c-.1.9-.3 1.8-.4 2.7v-.1c-1 .4-2.1.7-1 2.1-1.8-1-2.2.9-3.1 1.6-7.1 5.2-18 4.9-25.6-.8-7.7-5.8-10.4-14.7-7.2-23.4 2.5-6.8 9.2-10.9 16.9-10.3 0 1.5-1.1 2.3-1.7 3.5-3.6 7-2.8 13.6 1.9 19.9 4.1 5.6 9.7 6.2 15.9 5.3 1.4-.3 2.8-1 4.3-.5z"/><path fill="#E1DEEE" d="M614.4 769.3c-1.5-.4-2.9.3-4.3.5-6.1.9-11.7.3-15.9-5.3-4.7-6.4-5.5-12.9-1.9-19.9.6-1.2 1.8-2 1.7-3.5 8.6-1.1 14.7 2.9 19.3 9.6 4 5.8 4.9 12.1 1.1 18.6z"/><path fill="#423B45" d="M765.9 559.3c-.7-.1-1.5.8-2-.3.3-1 .9-1.4 2-1.1v1.4zM766.9 556.4c.1.8 0 1.5-1 1.5-.3-.9.4-1.1 1-1.5z"/><path fill="#423B45" d="M764 559c.6 1.3-.2 1.2-1 1-.2-.8.2-1.1 1-1z"/><path fill="#BEADC2" d="M623.7 270.4c0 .1-.1.2-.1.3-.2-.1-.3-.2-.5-.3l.3-.3.3.3zM785.8 537.1c-.6 3.4-1.4 6.8-4 9.4-2.1 2.1-4.9 3.6-7.5 3.1-2.6-.4-.3-3.5-1.2-5.4-1.5-3.1-.8-6 1.9-8.3.7-.6 1-1.8 1.7-2.4 1.7-1.4 1.4-5.6 3.9-4.8 3.5 1.1 5 4.7 5.2 8.4z"/><path fill="#423B45" d="M308 466c.1-.1.1-.2.2-.3 0 .1-.1.2-.2.3zM558.7 222.3c-2.3-1.2-4-2.9-5-5.3 2.6.7 4.1 2.8 5.8 4.6-.3.3-.5.5-.8.7zM578.7 242.5c1.9 2 3.2 4.3 4 6.9-.3.3-.7.6-1 1-1.6-2.2-3.2-4.3-4-7 .3-.4.6-.6 1-.9zM572.2 234.8c1.2.5 1.8 1.5 2.4 2.5-.3.3-.6.6-.9 1-.8-.9-1.6-1.7-2.4-2.6.4-.3.7-.6.9-.9zM565.5 227.4c.3.4.7.7 1 1.1l-.8.8-1-1c.3-.3.5-.6.8-.9z"/><path fill="#423B45" d="m564.6 226.5.9.9c-.3.3-.5.6-.8.9-.3-.3-.6-.7-1-1 .3-.2.6-.5.9-.8z"/><path fill="#E1DEEE" d="M577.7 243.3c.7 2.7 2.4 4.8 4 7 1.4 4.7 2.8 9.3 4 14 .2.8 1.4 2.9-1.4 2.4-3.5-2.2-8-3.7-10-6.9s1.9-7.4 1.7-11.4c-.1-1.6 0-3.3.2-4.9.1-1.7.9-.2 1.5-.2z"/><path fill="#BF9BAD" d="M571.4 235.7c.8.9 1.6 1.7 2.4 2.6.1 5.2.7 10.5-.5 15.7-.9 3.5-2.1 5.1-5.5 2.2-2.3-2-5.8-2.6-7.1-5.7.2-.2.5-.4.7-.6 4.5 2.4 5.7 1.8 7.2-3.2 1-3.3.5-6.6.6-9.9 0-2.4.8-2.3 2.2-1.1z"/><path fill="#E1DEEE" d="M563.7 227.3c.3.3.6.7 1 1l1 1c1.6 1.9 3.5 3.9 1.5 6.5-1.4 1.9-3.5 1.5-5.5.8-3.6-1.4-1.6-4.2-1.3-6.4.2-1.5-.2-4.7 3.3-2.9z"/><path fill="#8F6E86" d="M559.6 245.1c-.7-2.2-.8-4.3.7-7.2 1 2.8.5 5.1.4 7.3-.4-.1-.7-.1-1.1-.1z"/><path fill="#BF9BAD" d="M559.6 245.1c.4 0 .7.1 1.1.1.2 1.5.4 3.1.6 4.6-.2.2-.5.4-.7.6-.3-1.8-.7-3.6-1-5.3z"/><path fill="#423B45" d="M567.9 623.9c.4 1.2.3 2.4.9 3.7.8 1.7.2 4-2.3 3.5-3.3-.7-4.2 1.7-5.8 3.5-4.6 5.2-9.7 10.1-13.6 15.8-3 4.4-7.3 7.5-10.2 12.1-2.3 3.6-7.3 7-11 10.5-.3.3-1.2 0-1.9-.1 5.3-7.9 12.4-14.1 18.6-21.2 8.3-9.3 16.9-18.5 25.3-27.8zM524 672.9c.1.8-.2 1.2-1 1-.1-.6.3-1 1-1zM613 774c-1.1-1.4 0-1.7 1-2.1 1 1.4 0 1.8-1 2.1zM591.1 387.2c-1.6 3-4.1 3.5-7.2 2.6-10.7-3.3-21.5-5.2-32.8-3-4.7.9-9.8-4.5-10.7-10.5.2 0 .4-.1.4 0 4 8.6 10.7 9.8 19.2 7.9 7.9-1.7 15.3 1.8 22.9 3.5 2.6.6 5.2 1.5 7.2-1.2.4.2.7.4 1 .7zM524.5 337c-.6-4.6-2.9-8.7-4.6-13 2.5-.3 2.6 1.9 3.3 3.3 5.2 11.2 6.3 23.6 10.1 35.2-.5.2-1.1.3-1.6.5-2.4-8.6-4.8-17.3-7.2-26zM504 384.1c-2-1.6-3.5-3.5-4-6.1 2.9 1 4.1 3.1 4 6.1zM507 388.1c-1.9-.7-2.7-2.2-3-4 2.5.1 3.2 1.7 3 4zM436.9 328c-.5-1.2-.2-1.6 1-1 .1.7-.2 1.1-1 1z"/></g></switch></svg>