<svg xmlns="http://www.w3.org/2000/svg" viewBox="0 0 1000 1000" style="enable-background:new 0 0 1000 1000" xml:space="preserve"><style>.st0,.st1,.st2,.st3,.st4,.st5{fill:#4d4d4d;stroke:#000;stroke-miterlimit:10}.st1,.st2,.st3,.st4,.st5{fill:#999}.st2,.st3,.st4,.st5{fill:#ccc}.st3,.st4,.st5{fill:#e6e6e6}.st4,.st5{fill:#b3b3b3}.st5{fill:#fff}.st6{fill:#c1272d}.st6,.st7{stroke:#000;stroke-miterlimit:10}</style><g id="Слой_2"><path class="st0" d="M172.5 606.5s-34 47-36 79c0 0 1 11 11 14s30 43 30 43 20-76-5-136zM269.5 354.5s-16-41 50-78c0 0 14-1 24 15l-26 90-48-27zM426.5 762.5s57 28 89 6l12-58s-74 14-101 52z"/><path class="st1" d="M174.5 647.5s-25.85 69.51 10.57 133.76c0 0 69.43 46.24 117.43-15.76 0 0-55-82-128-118z"/><path class="st2" d="M179.65 770.68s-1.01 13.31 5.42 22.06c6.43 8.76-1.57 19.76 7.43 27.76s46.59 21.87 75.29 17.44 52.71-22.44 54.71-54.44l-20-18s-50.69 52.36-122.85 5.18z"/><path class="st1" d="M309.5 785.5s37.68 42.66 91.84 12.33C455.5 767.5 451.5 739.5 506.5 731.5c0 0 19.6-27.43 42.3-32.84.23-.06.47-.11.7-.16 23-5-44-9-78 3s-91 100-162 84z"/><path class="st3" d="M202.5 847.5s-9-38 11-42c0 0 15 3 18 28 0 0-20 21-29 14zM268.5 860.5s-17-12-15-25 9-22.62 15-21.31c6 1.31 14 9.31 15 17.31s-10 34-15 29z"/><path class="st1" d="M325.5 385.5s-26-40-13-68 54-63 94-84c0 0-6 192-81 152z"/><path class="st0" d="M361.5 287.5s15-20 41-37l-2 16s-20.64 8.49-42.82 30.24l3.82-9.24z"/><path class="st1" d="M343.5 386.28s37.6-55.29 43.8-89.53c6.2-34.24 9.2-65.24 5.2-103.24s-11-42.13 14-63.56 32-22.44 49-17.44l-21 43s-11.77 132 16.12 226c0-.01-46.12 44.54-107.12 4.77z"/><path class="st4" d="M450.5 388.5s-18-19-23-51-11-148-5-174 35-51 35-51 0 20 34 66c0 0 33 28 53-2 0 0 9-33 8-61 0 0-4.02-13.98 35.99-5.49 0 0 8.01 3.49 8.01 18.49s17 79 51 103 34.96 36.48 36.48 80.74L543.5 265.5l-69 70-24 53z"/><path class="st1" d="M491.5 178.5s26-6 31-43 1-33 17-33 39.98 2.02 48.99 7.51c0 0-28.99 2.49-28.99 9.49s5 56-15 71-39 14-53-12zM676.5 284.5s6-9 24 4 60-11 94 27c0 0 4 6-9 11s-23 18-20 44c0 0-89-24-89-86z"/><path class="st1" d="M567.5 342.5s0-16 41-27 70.96 19.48 75.48-3.26c0 0-1.99-20.25 12.77-15.5 14.76 4.76 35.74 29.24 35.74 29.24s14.01 24.52-3.99 33.52-63.82-7.02-75.91-11.01c-12.09-3.99-51.11-3.67-64.1 8.17L567.5 342.5z"/><path class="st0" d="m518.5 263.5-1.46 28.84 34.94 13.77z"/><path class="st4" d="M455.5 388.5s-18-48.94 44.5-109.97l46.46 20.55-27.96-35.58s9-18 55-20 107.96 61.48 110.48 68.74c0 0 9.52 17.26-.48 20.26s-83-30-110 9l-118 47z"/><path class="st0" d="M769.77 370.5s38.73 19 45.73 62l-44-18-1.73-44z"/><path class="st1" d="M774.36 402.8s55.14 22.7 60.14 37.7 13 29 10 42-14 41-14 41l-63 18-8-78 14.86-60.7z"/><path class="st0" d="M847.5 537.5s26.31 65.21-2.35 104.61L830.5 593.5l17-56z"/><path class="st1" d="M721.5 700.5s8 38.43 38 43.22 53-27.22 53-27.22 15-25 9-42c0 0-91-18-100 26z"/><path class="st2" d="M730.45 707.53c.05.97 9.05 22.97 29.05 25.47s38.02-6.44 46.01-25.47c7.99-19.03 9.99-28.15 9.99-28.15l18 11.12s-2 17.72 0 35.86 3.65 56.41-31.17 61.28S713.5 810.5 688.5 754.5l41.95-46.97z"/><path class="st3" d="M736.5 762.5s-16.81 9.47-15.9 23.73c.9 14.27 9.9 22.27 12.9 21.27s16.53-12.92 17.27-22.46c.73-9.54-12.27-24.54-14.27-22.54zM793.5 764.5s-15 12-10 24 12 17 15 16 12.21-11.88 11.61-19.94c-.61-8.06-10.61-22.06-16.61-20.06z"/><path class="st0" d="M614.5 530.5s-6-34-5-34 40-11 41-11 26 19 26 19l-45 30-17-4z"/><path class="st4" d="M603.5 432.5c-1-3 0-60 0-60l-15.01-15.84s-3.29-15.16 17.36-18.16 29.65-11 86.65 13c0 0 41.98 7.97 39.99-25.52 0 0 50.01 41.52 47.01 69.52s-13 61-6 93 9.54 46 9.54 46l-45.36 21.31S659.5 495.5 647.5 496.5s-38.11 11.31-38.11 11.31l-5.89-75.31z"/><path class="st4" d="M703.5 568.5s49-40.09 112-53.54 57 2.54 51 14.54-26.49 35.61-25.24 60.3c1.24 24.7 11.3 40.7 17.27 47.2 5.97 6.5-16.56 28.27-18.29 42.38-1.73 14.12-4.73 26.99-9.73 26.55s-32.11-24.16-69.06-14.3c-.01.01-74.95-48.13-57.95-123.13z"/><path class="st1" d="M488.5 821.5s14-33.53 11.5-53.27c-2.5-19.73-1.24-42.68 23.13-60.7C547.5 689.5 614.5 651.5 635.5 663.5s31.12 15.88 31.12 15.88l5.11 43.28s-5.22 97.83-24.22 100.83c-.01.01-103.01-58.99-159.01-1.99z"/><path class="st2" d="M506.5 871.5s-21-9-24-22 1.45-34.71 21.22-47.35c19.78-12.65 65.39-26.11 100.09-7.88 34.69 18.23 50.6 20.23 49.69 25.23s-8 49-30 56-71 22-117-4z"/><path class="st3" d="M533.5 830.5s-23 11-25 26 13 40 21 44 23.41-22.21 24.71-28.61c1.29-6.39-.71-37.39-20.71-41.39zM613 830.5s-29.5 23-19.5 45 35 23 35 17 14-50-15.5-62z"/><path class="st0" d="M611.63 662.99s24.87-23.49 51.87-6.49 25 61.18 25 61.18l-20.44 44.64s2.31-59.65-11.62-73.23c-13.94-13.59-44.81-26.1-44.81-26.1z"/><path class="st4" d="M595.13 534.5s84.37-30.68 126.37-81.84c0 0 4-3.16 15 7.84s31 33.51 23 44.76c-8 11.24-52 65.9-38 99.57s69-6.33 77 9.67 14.65 50.71 3.83 56.35c-10.83 5.65-55.47 40.3-71.65 65.97-16.18 25.67-49.62 43.04-63.9 34.86 0 0 2.22-29.68 14.14-65.74 5.48-16.58-13.16-59.47-69.29-42.96l-8.13 2.25c0 .01 37.26-104.73-8.37-130.73zM308.86 628.32s-27.77-5.73-41.07-61.28-36.64-262.29 20.53-235.91c0 0 19.85 36.68 53.01 47.03C374.5 388.5 441.5 385.5 491.5 345.5c0 0 19.57 29.48-8.71 106.74S437.5 560.5 437.5 560.5s-43.28 97.64-128.64 67.82z"/><path class="st1" d="M197.5 466.5s9 51-5 63c0 0-4 2 0 12 0 0-21.8 16.94-26.9 21.97s-13.15 111.5 17.37 132.77c30.53 21.27 43.62-5.01 68.07 30.13s50.79 69.8 82.12 71.47c31.33 1.67 52.33-10.71 66.33-26.02 14-15.31 49.19-29.66 53.6-34.98 4.4-5.33 22.11-29.27 32.76-29.3 10.65-.03 93.24 4.63 102.45-6.7 9.2-11.33 31.2-69.33 51.2-99.33s15-51 0-60-25-46-24-83c0 0 10.13-66.69.56-80.35l-20.94 39.27-45.62 47.07-45.27 91.31-15.73 37.79-62 44.94-35.63 84.13-50.37 35.83-48-26-24.71-85-27.05-39.61-14.24-90.39-29-51z"/><path class="st5" d="M406.69 696.74s23.81 8.76 40.81-15.24 3.91-61.03 3.91-61.03l-24.91 29.85-19.81 46.42z"/><path class="st6" d="M417.94 679.38s9.56 11.12 17.56 4.12 3-32 0-36l-17.56 31.88z"/><path class="st5" d="M253.51 643.04s-4.8 35.7 4.6 50.58c9.39 14.88 25.46 18.95 25.46 18.95l-15.11-49.53-6.26-8.38-8.69-11.62z"/><path class="st6" d="M262.19 654.66s-4.69 16.84-1.69 26.84 12.02 13.73 17.51 12.87l-9.56-31.32-6.26-8.39z"/><circle class="st7" cx="267.5" cy="674.5" r="3.5"/><path class="st4" d="M288.33 331.13s-19.79 2.95-19.81 19.66-6.98 41.8 0 61.75c6.98 19.96-18.02 149.15 33.98 205.05 52 55.9 134-82.1 153-132.1s36-120 36-140c0 0-3-37 19-36s96.13 42.31 105.56 68.65c0 0-.79 20.88-6.68 31.61s-13.53 26.21-35.71 42.47S505.5 577.5 502.5 594.5c0 0-1.3 10.97-16.65 18.48-15.35 7.52-31.44 8.73-42.89 29.12-11.46 20.39-30.08 44.39-36.27 68.39s-17.19 31-24.19 37-17 13-19 23c0 0-20.57 18-52.29 0 0 0-.71-13.17-8.71-17.59-8-4.41-21-15.41-22-40.41s-30-78-37-84-14-14-14-44-19.04-84.11-29.02-94.05c0 0-16.73-18.47-13.35-38.21 3.37-19.74 9.37-40.74 11.37-34.74s.91 15 4.46 15 4.54-33 23.54-58c0 0-1-12-9-7s-3-6 6-13 26.65-44.73 64.83-23.36z"/><path class="st4" d="M322.5 730.28s-30-8.78-31-41.78 16.96-102.39 27.48-98.7c10.52 3.7 54.24 69.41 55.88 81.05 1.64 11.65 7.64 45.21-31.36 59.43 0 0-12 3.78-21 0z"/><path class="st0" d="M575.5 411.5s-12-26.04-12-63.52c0 0 23.26 12.59 31.63 26.55 8.37 13.97-16.63 43.97-19.63 36.97z"/><circle class="st7" cx="431.5" cy="668.5" r="3.5"/><path class="st1" d="M502.5 594.5s28.19-38.02 75.1-50.51"/><path class="st4" d="M192.5 541.5s11.06 25.14 14.03 46.57"/><path class="st1" d="M199.52 543.99s20.89 18.79 30.44 52.65"/><path class="st4" d="M722.45 569.24s-16.95 26.26-3.95 56.26 66-19 76-7"/></g></svg>