<svg xmlns="http://www.w3.org/2000/svg" viewBox="0 0 1000 1000" xml:space="preserve"><switch><g><g stroke="#000" stroke-miterlimit="10"><path fill="#CCC" d="M653.5 511.5c2-2 29-12 36-54s56.1 6 71.1 0 26.9-23 40.9-15 5 35-9 49-4 24-16 29-45-5-53 8-70-17-70-17z"/><path fill="#CCC" d="M580.5 567.5s19-66 59-95c0 0-6.3 15-9.6 27.5 0 0 23.6-13.5 38.6-5.5s34-1.1 41-8.6c7-7.4 0 2.5 0 2.5s-6 16.1-18 25.1c0 0 37-24 47-22 0 0-14 26-27 32 0 0 16 3 24-6 0 0-1 18-13 27 0 0 10-1.2 16-7.6 0 0-7 21.6-25 38.6s8 9 12 2c0 0-1 15-31 31s-50 20-50 20l-64-61z"/><path fill="#EBEBE9" d="M484.5 508.5c-1-2-11-33-31-39s-15 12-53-19-66-94-169-64-210 92-228 202c0 0 60-70 82-84 0 0-62 80-65 137 0 0 77-111 110-134 0 0-32 33-37 76 0 0 79-99 110-113 0 0-41 37-43 76 0 0 83-106 107-92s23 27 69 27 73 29 94 32 56.5-3.4 56.5-3.4l-2.5-1.6z"/><path fill="#B3B3B3" d="M610 504.5s52.7-7.4 79.1 27.3c26.4 34.7 11.1 86.7-9.7 84.2 0 0 22.8-96.4-78.5-96.4-.1 0-5.4-8.2 9.1-15.1z"/><path fill="#CCC" d="M479.5 583.5c-2-3-20.6-27.5-23.8-51.7 0 0-9.2 6.7-4.2 34.7 0 0-13-11-16-25 0 0-10 23 15 60 0 0-13 38-2 70s25 23 25 23-26 32-32 43c0 0-11 12 6 14s32.7 8 37.3 0c4.7-8 14.7-35 20.7-43s-6-19-2-26 15-2 18-18-42-81-42-81zM435.5 366.5s-13-35-27-24-33 22-45-9-10-37-24-32-32-25-12-66c0 0 0 38 14 32s22-21 26-6 13 47 22 36 32-48 49-35 38 37 31 66-34 38-34 38zM470.9 348.5s6.6-55 32.6-70 52-8 60 10 34 11 34-9 10-56 36-46 27 54 43 38 22.2-42 38.1-36c0 0-16.9 19-11.5 41 5.4 22-5.6 38-38.6 30s-34 2-35 21-26 37-60 25-47-8-53 7c0 0-22.8-5.2-38.9 9.4l-6.7-20.4z"/><path fill="#B0B0AF" d="M473.5 694.5s-30 31-16 36c0 0 15 5 32-28 0 0 5-15-16-8zM442.5 741.5s-12-1-12 26c0 0 18-14 17-19s-5-7-5-7z"/><path fill="#B0B0AF" d="M453.8 743.7s-17.2-5.4-20.3 33.2c0 0-2 12.6 28-25.4 0 0 .6-8.6-7.7-7.8z"/><path fill="#B0B0AF" d="M471.9 748.3s-20.4-4.8-28.4 33.2c0 0-5.2 17 37.9-27 0 0 .9-9.4-9.5-6.2z"/><path fill="#EBEBE9" d="M465.5 405.5c-2 3 22 30.8 21.5 57.9-.5 27.1-28.7 61.7-21.6 115.4s33.1 85.7 61.1 96.7 80 0 85-15l-8.2-100.6s-28.8-46.4-37.8-59.9c-9-13.5-31-29.5-46-40.5s-22-85.9-19.5-83.9-34.5 29.9-34.5 29.9z"/><path fill="#D8D8D7" d="M470.9 430.7s27.4 21.8 1 63.3l11.5 21.4s11.2-44.6 6.6-61.3c-4.5-16.6-23.7-34.2-19.1-23.4zM521.6 511.9s-11.1-17.4-13.1-50.4-6-37.3 0-46.6c0 0 0 13.3 5 21.4 0 0-1-11.8 4-18.8 0 0-2.7 23.4 4.1 38.2 6.9 14.8 30.2 12.9 33.5 32.3.1.1-9.3 42.3-33.5 23.9z"/><path fill="#CCC" d="M517.5 638.5s12 63.7-17.5 86.8c0 0 19-4 30.2-20.4 0 0-4.7 16.3-11.2 20.4 0 0 23.5-8.8 33.5-20.8 0 0-1 12-6 16 0 0 35-20 41-49 0 0-23 6-38-4s-32-29-32-29zM632.9 680s14 42.9 13.3 67.7c0 0 1.5 13.9 19.4 7.9s29.9-13 27.9-21-35-54.3-40-80.6l-20.6 26z"/><path fill="#B0B0AF" d="M651.5 747.7s-10 3.8 8 32.8c0 0 10 12.7 0-31.1 0-.1-3-3.6-8-1.7z"/><path fill="#B0B0AF" d="M678.4 743.5s-16.9-8.3-18.9 5.9c-2 14.2 22 39.2 22 39.2s9.7 7.8-3.1-45.1z"/><path fill="#B0B0AF" d="M693.5 734.5s-13.3-3.1-15.1 9 15.4 32.9 15.4 32.9 11.7 6.1-.3-41.9zM632.9 680s6.6 31.1 20.6 42.8 10.9 5 10.4-7.7c-.4-12.6 3.2-24.8-7.6-51.2L632.9 680z"/><path fill="#CCC" d="M604.1 513.9s-19.6 41.7-23.6 78.2 5 80.4 31 91.9 38.7 4.9 44.8-13.3c6.2-18.2 17.2-44.3-4.8-84.3 0 0-3.8-20.9 13.1-35.9 0 0-15-.1-24 11.4 0 0 4.7-21.6 18.8-38 0 0-18.2 2.6-30.6 26.6 0 0 1.9-34 13.3-50.5 0 0-26.6 19.5-34.6 43.5 0 0-6.8-1.2-3.4-29.6z"/><path fill="#EBEBE9" d="M548.1 505.9s-2.4-31 31.5-40.2 100-75.2 109-90.2c8.9-15 70.9-20 136.9 16s175 154.5 174.5 209.2c0 0-43.4-47.4-71.9-76.8 0 0 67.2 112.4 63.3 158 0 0-47.9-90.4-90.4-131.4 0 0 24.4 59 22.5 88 0 0-45.3-94.9-79.1-122 0 0 15.5 27.8 16.9 45.4 0 0-82.7-102.4-111.7-114.4s-42.5 22.4-100.8 31.2c-58.2 8.8-35.4 20.4-63.3 25.1s-33.9 30.5-37.4 2.1zM443.5 419.5s10 9 20.7-1.1c11.7-10.9 21.3-17.9 32.3-14.9 0 0 2-9-2-11 0 0 19 1 21-6 0 0-13 2-14-2s4-14.3 14-19.2c0 0 3.7-8.5-10.2-7.7s-40.8 15.8-52.8 34.8-9 27.1-9 27.1z"/><path fill="#008FEB" d="M458.5 390.5c-.6-.8 15-19 25-23 0 0 1 13-5 20s-15 10-20 3z"/><path fill="#00DFFF" d="M460.5 387.5s6.7 4 12.9 0 4.6-16.8 4.6-16.8l-17.5 16.8z"/><path fill="#EBEBE9" d="M431.5 290.5c2-1 10 26 3 40s-1.8 47 4.1 45c0 0-.8 22.6-7.5 35.8 0 0 1.6 8.6 7.5 7.9 5.9-.7 6.9 1.3 6.9 1.3s5-16.5 13-22.7-2.3-5.1 13.8-19.2c16.2-14.1 44.2-19.1 44.2-19.1s2.7-5-11.2-4.5c0 0 18.2-14.5 20.2-29.5 0 0-6 8-13 10 0 0 10-22 9-38 0 0-22.7 23.2-40.9 32.1-18.1 8.9-6.7 12.8-16.4-6.1s-32.7-33-32.7-33z"/><path fill="#939392" d="M675.2 391.8s-4.6-12.4 12.9-22.9 42.7-6.4 52.1-1.4-9.6 38-23.6 40-38.7-9.4-41.4-15.7z"/><path fill="#B0B0AF" d="M684.7 394.5s4.8-11-13.2-11c0 0 3.5 21 13.2 11zM698.5 385.1s-10.6 10.8-16.3-14.4c0 0 25.4 3.9 16.3 14.4z"/><path fill="#B0B0AF" d="M712.1 381s-11.6 8.3-11.6-18.6c0 0 26.1 9.1 11.6 18.6z"/><path fill="#B0B0AF" d="M724.6 379s-11.8.7 2.6-21.4c-.1 0 14.4 24-2.6 21.4z"/><path fill="#939392" d="M248.5 382.2s-4 20.3 11 27.3 47 5 55-3-51.1-54.5-66-24.3z"/><path fill="#B0B0AF" d="M302.5 397.5s-6-9-14 7c0 0 24 5 14-7zM270.5 383.5s.5-12.5-25.2 1.8c-.1 0 28.2 9.2 25.2-1.8z"/><path fill="#B0B0AF" d="M279.5 386.5s1-8.5-21.5-1.2c0 0 26.5 14.2 21.5 1.2z"/><path fill="#B0B0AF" d="M291.8 392s-3.3-11.5-26.8 0c0 0 31.1 13.4 26.8 0z"/><path fill="#B3B3B3" d="M481.4 447.2s8.1 3.3 20.1-1.7 15.4-9.4 15.7-10.2c.3-.8 5.5 6.8 1.9 13s-22.5 17.3-35.5 10.2c0 0-5.2-2.5-2.2-11.3zM482.7 468s7.9 11.7 20.9 5.6c13-6.1 19.2-15.8 19.2-15.8s7.8 1.2 8.8 7.9c1 6.8-16.2 21.6-31.1 22.7-15 1.1-26.7-11-17.8-20.4z"/><circle cx="472.5" cy="382.5" r="2"/><path fill="#EBEBE9" d="M469.3 337s-8 7.8-14.9 27.2"/><path fill="none" d="M586.3 652.2s-38.8-12.7-50.8-41.7M580.5 625.6s-31-20.1-40-56.1M514.8 669.6s-15.1-20.9-17.2-44M490 643.7s-6.6-10.5-8.6-23.8M517.5 638.5s-15-23.1-14-59.5"/><path fill="#CCC" d="M490 553.3c-1.3.4-31.4-5.2-42.5-46.5 0 0 6.4 7.9 16.7 13.8 0 0-12.2-18.2-10.5-30.1 0 0 12.5 13.7 18.1 17.4 0 0-2.6-14.4 0-21.9 0 0 14.6 34 28.1 41.8 0 0 9.5-25.2 32.5-32.2 0 0 4.5 8.1-2.3 14.6 0 0 14.3 3.4 22.3-21.6 0 0 7.2 17.3-7.4 31.2 0 0 10.4-.2 14.4-7.2 0 0-8 30-42.5 38 0 0-12.5 4.9-13.5 11.4.1-.1-5.9-11-13.4-8.7z"/></g></g></switch></svg>