<svg class="svg-icon" style="width: 1em; height: 1em;vertical-align: middle;fill: currentColor;overflow: hidden;" viewBox="0 0 1024 1024" version="1.1" xmlns="http://www.w3.org/2000/svg"><path d="M568.32 3.072c-18.432-2.048-37.376-3.072-56.32-3.072s-37.888 1.024-56.32 3.072h112.64z" fill="#CF142B" /><path d="M359.424 23.04C278.528 48.128 206.336 93.184 147.968 152.064l211.456 140.8V23.04zM664.576 1000.96c80.896-25.088 153.6-70.144 211.968-129.024l-211.968-141.312v270.336zM984.576 709.632c6.144-14.848 11.776-29.696 16.384-45.056h-83.968l67.584 45.056zM876.544 152.064c-58.368-58.88-130.56-103.936-211.968-129.024v270.336l211.968-141.312zM1000.96 359.424c-4.608-15.36-10.24-30.72-16.384-45.568L916.48 359.424h84.48zM23.04 359.424H107.52L39.936 313.856c-6.656 14.848-11.776 30.208-16.896 45.568zM23.04 664.576c4.608 15.36 10.24 30.208 16.384 45.056l67.584-45.056H23.04zM147.456 871.424c58.368 58.88 130.56 103.936 211.968 129.024v-270.336l-211.968 141.312z" fill="#01247D" /><path d="M601.088 1019.904h63.488v-18.944c-20.48 6.656-41.984 11.776-63.488 15.36v3.584zM359.424 1000.96v18.944h64v-3.584c-22.016-3.584-43.008-9.216-64-15.36zM108.032 359.424H23.04c-6.656 20.48-11.776 41.984-15.36 63.488h195.584L108.032 359.424z" fill="#FFFFFF" /><path d="M423.424 687.616l-64 42.496v270.336c20.992 6.656 41.984 11.776 64 15.36v-328.192zM664.576 23.04c-20.48-6.656-41.984-11.776-63.488-15.36v327.68l63.488-42.496V23.04zM359.424 292.864l64 42.496v-327.68c-22.016 3.584-43.008 9.216-64 15.36v269.824zM203.264 600.576H7.68c3.584 22.016 9.216 43.008 15.36 64H107.52l95.744-64zM820.736 422.912h195.584c-3.584-21.504-8.704-43.008-15.36-63.488H916.48l-95.744 63.488zM916.992 664.576h83.968c6.656-20.992 11.776-41.984 15.36-64h-195.584l96.256 64zM601.088 688.128v328.192c21.504-3.584 43.008-8.704 63.488-15.36v-270.336l-63.488-42.496zM865.28 664.576l107.52 71.168c4.096-8.704 8.192-17.408 11.776-26.112l-67.584-45.056H865.28zM52.736 286.208c-4.608 9.216-8.704 18.432-12.8 28.16l68.096 45.568h54.784L52.736 286.208zM359.424 359.424v-66.56L147.968 152.064c-23.04 23.552-44.032 48.64-61.952 76.288l197.12 131.072h76.288z" fill="#FFFFFF" /><path d="M664.576 664.576v66.048l211.968 141.312c23.552-23.552 44.544-49.664 62.976-77.312l-195.072-130.048h-79.872zM359.424 359.424H108.032l95.232 63.488h220.16V335.36l-64-42.496z" fill="#FFFFFF" /><path d="M821.248 600.576h-220.16v87.552l63.488 42.496v-66.048H916.992zM359.424 691.712l-233.984 155.648c7.168 8.192 14.848 16.384 22.528 24.064l211.968-141.312v-38.4zM664.576 328.704l232.448-154.112c-6.656-7.68-13.312-14.848-20.48-22.016l-211.968 140.8v35.328zM915.968 359.424l68.096-45.568c-12.8-30.208-28.16-59.392-46.592-86.016l-197.632 131.584h176.128zM107.52 664.576l-67.584 45.056c12.288 29.696 27.648 58.368 45.568 84.992l195.072-130.048H107.52z" fill="#FFFFFF" /><path d="M820.736 422.912l95.232-63.488H664.576V293.376l-63.488 42.496v87.04zM203.264 600.576L107.52 664.576h172.544l79.36-0.512v66.56l64-43.008v-87.04z" fill="#FFFFFF" /><path d="M423.424 1019.904l28.16 0.512c-1.536 0-3.072-0.512-4.608-0.512h-23.552zM572.416 1020.416h28.672v-0.512h-24.064c-1.536 0-3.072 0.512-4.608 0.512z" fill="#CF142B" /><path d="M446.976 1019.904c1.536 0 3.072 0.512 4.608 0.512h121.344c1.536 0 3.072-0.512 4.608-0.512H446.976zM577.024 1019.904h24.064zM446.976 1019.904h-23.552 23.552zM446.976 1019.904h130.048-130.048zM423.424 1019.904h23.552c-7.68-1.024-15.872-2.048-23.552-3.584v3.584zM423.424 7.68l9.216-1.536h-9.216v1.536zM601.088 6.144h-9.728c3.072 0.512 6.656 1.024 9.728 1.536v-1.536zM577.024 1019.904h24.064v-3.584c-8.192 1.536-15.872 2.56-24.064 3.584z" fill="#CF142B" /><path d="M423.424 335.36l89.088 59.392 88.576-59.392v-327.68c-3.072-0.512-6.656-1.024-9.728-1.536h-158.72l-9.216 1.536v327.68zM601.088 688.128L512 628.736l-88.576 58.88v328.704c7.68 1.536 15.872 2.56 23.552 3.584h130.048c8.192-1.024 15.872-2.048 24.064-3.584v-328.192zM336.384 512l-133.12-89.088H7.68C2.56 452.096 0 481.792 0 512c0 30.208 2.56 59.904 7.68 88.576h195.584l133.12-88.576zM687.616 511.488l133.12 89.088h195.584c5.12-28.672 7.68-58.368 7.68-88.576s-2.56-59.904-7.68-89.088h-195.584l-133.12 88.576zM432.64 6.144L455.68 3.072h-32.256v3.072h9.216zM601.088 6.144V3.072H568.32c7.68 1.024 15.872 2.048 23.552 3.072h9.216z" fill="#CF142B" /><path d="M432.64 6.144h158.72c-7.68-1.024-15.36-2.048-23.552-3.072H455.68l-23.04 3.072zM821.248 600.576l-133.632-89.088-175.616 117.248 89.088 59.392v-87.552zM203.264 422.912l133.12 89.088 176.128-117.248-89.088-59.392v87.552zM820.736 422.912h-219.648v-87.04l-88.576 58.88 175.104 116.736zM203.264 600.576h220.16v87.04l88.576-58.88L336.384 512zM512 628.736l175.616-117.248-175.104-116.736L336.384 512zM283.136 359.424L86.016 228.352c-12.288 18.432-23.552 37.888-33.28 57.856l110.08 73.216h120.32zM865.28 664.576h-121.344l195.072 130.048c12.288-18.432 23.552-38.4 33.28-58.368l-107.008-71.68zM664.576 359.424h75.776l197.632-131.584c-12.288-18.944-26.112-36.352-40.96-53.248l-232.448 154.112v30.72zM359.424 664.576H280.064l-195.072 130.048c12.288 18.432 25.6 36.352 40.448 53.248l233.984-155.648v-27.648z" fill="#CF142B" /><path d="M280.064 664.576h79.36v-0.512z" fill="#CF142B" /></svg>